{
.appVersion = "1230";
DisplayStrings = (
"OOO\012HHEH",
"8",
"OOOO\012HHHH\012OOTOO\012HHSHH\012HA HAB\012DYNASTY\012HOE\012",
X,
"9",
CHIRO,
"OAO\012HAH",
OO,
H,
"HHH\012OOO",
"AARD\012VARK",
SPEED,
L,
AOA,
E,
AARDVARK,
"/I.alt1 V",
"/I.alt1 V",
"/I.alt1 HAMBURGEFONTSIV",
HEMI,
"O9H\012HHH\012\012",
A,
"",
K,

glyphs = (
{
glyphname = A;
lastChange = "2019-09-09 01:28:52 +0000";
layers = (
{
layerId = "41E2CF60-9A62-485C-A680-66BBCCBE3685";
paths = (
{
closed = 1;
nodes = (
"499 0 LINE",
"499 236 LINE",
"1387 236 LINE",
"1387 0 LINE",
"1827 0 LINE",
"1827 750 LINE",
"249 750 LINE",
"59 477 LINE",
"59 0 LINE"
);
},
{
closed = 1;
nodes = (
"499 471 LINE",
"584 601 LINE",
"1387 601 LINE",
"1387 397 LINE",
"499 397 LINE"
);
}
);
width = 1891;
},
{
layerId = "C9BA7AB2-4C39-4898-B0E1-23BE521DA8C1";
paths = (
{
closed = 1;
nodes = (
"86 0 LINE",
"86 355 LINE",
"1142 355 LINE",
"1142 0 LINE",
"1183 0 LINE",
"1183 750 LINE",
"158 750 LINE",
"45 478 LINE",
"45 0 LINE"
);
},
{
closed = 1;
nodes = (
"86 475 LINE",
"187 719 LINE",
"1142 719 LINE",
"1142 386 LINE",
"86 386 LINE"
);
}
);
width = 1229;
},
{
layerId = "1577B97C-DCC5-4AA4-842F-E9BB22E99E3C";
paths = (
{
closed = 1;
nodes = (
"44 0 LINE",
"44 364 LINE",
"101 364 LINE",
"101 0 LINE",
"132 0 LINE",
"132 750 LINE",
"54 750 LINE",
"13 467 LINE",
"13 0 LINE"
);
},
{
closed = 1;
nodes = (
"44 463 LINE",
"82 728 LINE",
"101 728 LINE",
"101 386 LINE",
"44 386 LINE"
);
}
);
userData = {
com.schriftgestaltung.Glyphs.lastChange = "2019-04-28 05:35:59 +0000";
com.typemytype.robofont.pointLabels = {
FsYtJ2vFnp = (
crossbar,
shiftstem,
crossbar,
shiftdown,
crossbar,
crossbar,
shiftdown,
crossbar
);
IIRC9Wy7kQ = (
crossbar
);
OBZ5Ayed7M = (
crossbar,
shiftstem,
crossbar,
shiftdown,
crossbar,
crossbar,
shiftdown,
crossbar
);
QVexAlbAcl = (
crossbar,
shiftstem,
crossbar,
shiftdown,
crossbar,
crossbar,
shiftdown,
crossbar
);
VufvPdJ075 = (
crossbar,
shiftstem,
crossbar,
shiftdown,
crossbar,
crossbar,
shiftdown,
crossbar
);
ZgsCdxNJRW = (
crossbar,
shiftstem,
crossbar,
shiftdown,
crossbar,
crossbar,
shiftdown,
crossbar
);
iDT0uyhKrn = (
crossbar,
crossbar,
shiftdown
);
kpn4Kw9J0C = (
crossbar,
shiftstem,
crossbar,
shiftdown,
crossbar,
crossbar,
shiftdown,
crossbar
);
tUsW8L7b0y = (
crossbar,
crossbar,
shiftdown
);
};
};
width = 152;
},
{
layerId = "628C7BDB-7DBE-4EE3-879C-693AF95326D4";
paths = (
{
closed = 1;
nodes = (
"365 0 LINE",
"365 269 LINE",
"454 269 LINE",
"454 0 LINE",
"793 0 LINE",
"793 750 LINE",
"111 750 LINE",
"26 470 LINE",
"26 0 LINE"
);
},
{
closed = 1;
nodes = (
"365 463 LINE",
"411 658 LINE",
"454 658 LINE",
"454 405 LINE",
"365 405 LINE"
);
}
);
width = 824;
},
{
layerId = "B41498C8-9825-4C4A-856B-8BEA93F27BCF";
paths = (
{
closed = 1;
nodes = (
"365 0 LINE",
"365 376 LINE",
"454 376 LINE",
"454 0 LINE",
"793 0 LINE",
"793 750 LINE",
"111 750 LINE",
"26 577 LINE",
"26 0 LINE"
);
},
{
closed = 1;
nodes = (
"365 570 LINE",
"400 658 LINE",
"454 658 LINE",
"454 512 LINE",
"365 512 LINE"
);
}
);
width = 824;
},
{
layerId = "7F3C6EE5-2603-4259-9F13-C30BB9E194E1";
paths = (
{
closed = 1;
nodes = (
"44 0 LINE",
"44 469 LINE",
"101 469 LINE",
"101 0 LINE",
"132 0 LINE",
"132 750 LINE",
"54 750 LINE",
"13 572 LINE",
"13 0 LINE"
);
},
{
closed = 1;
nodes = (
"44 568 LINE",
"82 728 LINE",
"101 728 LINE",
"101 491 LINE",
"44 491 LINE"
);
}
);
userData = {
com.schriftgestaltung.Glyphs.lastChange = "2019-04-28 05:35:59 +0000";
com.typemytype.robofont.pointLabels = {
FsYtJ2vFnp = (
crossbar,
shiftstem,
crossbar,
shiftdown,
crossbar,
crossbar,
shiftdown,
crossbar
);
IIRC9Wy7kQ = (
crossbar
);
OBZ5Ayed7M = (
crossbar,
shiftstem,
crossbar,
shiftdown,
crossbar,
crossbar,
shiftdown,
crossbar
);
QVexAlbAcl = (
crossbar,
shiftstem,
crossbar,
shiftdown,
crossbar,
crossbar,
shiftdown,
crossbar
);
VufvPdJ075 = (
crossbar,
shiftstem,
crossbar,
shiftdown,
crossbar,
crossbar,
shiftdown,
crossbar
);
ZgsCdxNJRW = (
crossbar,
shiftstem,
crossbar,
shiftdown,
crossbar,
crossbar,
shiftdown,
crossbar
);
iDT0uyhKrn = (
crossbar,
crossbar,
shiftdown
);
kpn4Kw9J0C = (
crossbar,
shiftstem,
crossbar,
shiftdown,
crossbar,
crossbar,
shiftdown,
crossbar
);
tUsW8L7b0y = (
crossbar,
crossbar,
shiftdown
);
};
};
width = 152;
},
{
layerId = "7A9BD435-3083-4FB3-9FE1-50106B21C13B";
paths = (
{
closed = 1;
nodes = (
"86 0 LINE",
"86 455 LINE",
"1142 455 LINE",
"1142 0 LINE",
"1183 0 LINE",
"1183 750 LINE",
"158 750 LINE",
"45 578 LINE",
"45 0 LINE"
);
},
{
closed = 1;
nodes = (
"86 575 LINE",
"187 719 LINE",
"1142 719 LINE",
"1142 486 LINE",
"86 486 LINE"
);
}
);
width = 1229;
},
{
layerId = "401C54E9-F42A-49C7-842E-99B3D4FBDAC0";
paths = (
{
closed = 1;
nodes = (
"499 0 LINE",
"499 321 LINE",
"1387 321 LINE",
"1387 0 LINE",
"1827 0 LINE",
"1827 750 LINE",
"249 750 LINE",
"59 503 LINE",
"59 0 LINE"
);
},
{
closed = 1;
nodes = (
"499 506 LINE",
"564 601 LINE",
"1387 601 LINE",
"1387 482 LINE",
"499 482 LINE"
);
}
);
width = 1891;
},
{
layerId = "5B01A85C-72B1-477B-9F3C-4C3A665051AF";
paths = (
{
closed = 1;
nodes = (
"365 0 LINE",
"365 159 LINE",
"454 159 LINE",
"454 0 LINE",
"793 0 LINE",
"793 750 LINE",
"111 750 LINE",
"26 372 LINE",
"26 0 LINE"
);
},
{
closed = 1;
nodes = (
"365 365 LINE",
"411 658 LINE",
"454 658 LINE",
"454 295 LINE",
"365 295 LINE"
);
}
);
width = 824;
},
{
layerId = "6A003782-5630-46D5-9AEF-173A49B0B076";
paths = (
{
closed = 1;
nodes = (
"44 0 LINE",
"44 240 LINE",
"101 240 LINE",
"101 0 LINE",
"132 0 LINE",
"132 750 LINE",
"54 750 LINE",
"13 347 LINE",
"13 0 LINE"
);
},
{
closed = 1;
nodes = (
"44 343 LINE",
"82 728 LINE",
"101 728 LINE",
"101 262 LINE",
"44 262 LINE"
);
}
);
userData = {
com.schriftgestaltung.Glyphs.lastChange = "2019-04-28 05:35:59 +0000";
com.typemytype.robofont.pointLabels = {
FsYtJ2vFnp = (
crossbar,
shiftstem,
crossbar,
shiftdown,
crossbar,
crossbar,
shiftdown,
crossbar
);
IIRC9Wy7kQ = (
crossbar
);
OBZ5Ayed7M = (
crossbar,
shiftstem,
crossbar,
shiftdown,
crossbar,
crossbar,
shiftdown,
crossbar
);
QVexAlbAcl = (
crossbar,
shiftstem,
crossbar,
shiftdown,
crossbar,
crossbar,
shiftdown,
crossbar
);
VufvPdJ075 = (
crossbar,
shiftstem,
crossbar,
shiftdown,
crossbar,
crossbar,
shiftdown,
crossbar
);
ZgsCdxNJRW = (
crossbar,
shiftstem,
crossbar,
shiftdown,
crossbar,
crossbar,
shiftdown,
crossbar
);
iDT0uyhKrn = (
crossbar,
crossbar,
shiftdown
);
kpn4Kw9J0C = (
crossbar,
shiftstem,
crossbar,
shiftdown,
crossbar,
crossbar,
shiftdown,
crossbar
);
tUsW8L7b0y = (
crossbar,
crossbar,
shiftdown
);
};
};
width = 152;
},
{
layerId = "9EF6E879-D021-4626-8F52-6D74284C4DC7";
paths = (
{
closed = 1;
nodes = (
"86 0 LINE",
"86 185 LINE",
"1142 185 LINE",
"1142 0 LINE",
"1183 0 LINE",
"1183 750 LINE",
"158 750 LINE",
"45 358 LINE",
"45 0 LINE"
);
},
{
closed = 1;
nodes = (
"86 362 LINE",
"187 719 LINE",
"1142 719 LINE",
"1142 216 LINE",
"86 216 LINE"
);
}
);
width = 1229;
},
{
layerId = "FEE31BD6-05B9-4F93-BD72-F1214701600E";
paths = (
{
closed = 1;
nodes = (
"499 0 LINE",
"499 134 LINE",
"1387 134 LINE",
"1387 0 LINE",
"1827 0 LINE",
"1827 750 LINE",
"247 750 LINE",
"59 403 LINE",
"59 0 LINE"
);
},
{
closed = 1;
nodes = (
"499 382 LINE",
"612 601 LINE",
"1387 601 LINE",
"1387 295 LINE",
"499 295 LINE"
);
}
);
width = 1891;
}
);
unicode = 0041;
},
{
glyphname = B;
lastChange = "2019-09-09 01:10:10 +0000";
layers = (
{
layerId = "41E2CF60-9A62-485C-A680-66BBCCBE3685";
paths = (
{
closed = 1;
nodes = (
"1831 0 LINE",
"1831 271 LINE",
"1535 358 LINE",
"1535 387 LINE",
"1805 468 LINE",
"1805 750 LINE",
"64 750 LINE",
"64 0 LINE"
);
},
{
closed = 1;
nodes = (
"504 313 LINE",
"1273 313 LINE",
"1392 281 LINE",
"1392 156 LINE",
"504 156 LINE"
);
},
{
closed = 1;
nodes = (
"504 594 LINE",
"1365 594 LINE",
"1365 456 LINE",
"1275 432 LINE",
"504 432 LINE"
);
}
);
width = 1862;
},
{
layerId = "C9BA7AB2-4C39-4898-B0E1-23BE521DA8C1";
paths = (
{
closed = 1;
nodes = (
"1184 0 LINE",
"1184 305 LINE",
"982 371 LINE",
"982 373 LINE",
"1148 440 LINE",
"1148 750 LINE",
"46 750 LINE",
"46 0 LINE"
);
},
{
closed = 1;
nodes = (
"87 356 LINE",
"943 356 LINE",
"1143 287 LINE",
"1143 32 LINE",
"87 32 LINE"
);
},
{
closed = 1;
nodes = (
"87 718 LINE",
"1107 718 LINE",
"1107 455 LINE",
"945 387 LINE",
"87 387 LINE"
);
}
);
width = 1210;
},
{
layerId = "1577B97C-DCC5-4AA4-842F-E9BB22E99E3C";
paths = (
{
closed = 1;
nodes = (
"139 0 LINE",
"139 325 LINE",
"79 388 LINE",
"79 360 LINE",
"136 427 LINE",
"136 750 LINE",
"20 750 LINE",
"20 0 LINE"
);
},
{
closed = 1;
nodes = (
"51 361 LINE",
"67 361 LINE",
"108 317 LINE",
"108 22 LINE",
"51 22 LINE"
);
},
{
closed = 1;
nodes = (
"51 728 LINE",
"105 728 LINE",
"105 432 LINE",
"67 386 LINE",
"51 386 LINE"
);
}
);
userData = {
com.schriftgestaltung.Glyphs.lastChange = "2019-04-28 05:35:59 +0000";
com.typemytype.robofont.pointLabels = {
1p5hKrurVy = (
leftside,
shiftstem,
leftside,
crossbar,
crossbar,
crossbar,
shiftdown,
crossbar,
crossbar,
crossbar,
shiftdown,
crossbar,
crossbar,
crossbar,
crossbar,
shiftdown
);
543PerILpr = (
crossbar,
rightside,
crossbar,
crossbar,
crossbar
);
9QFpw7nfq7 = (
crossbar,
rightside,
crossbar,
crossbar,
crossbar
);
9lW01gQyU2 = (
crossbar
);
By7dfMihfe = (
leftside,
shiftstem,
leftside,
crossbar,
crossbar,
crossbar,
shiftdown,
crossbar,
crossbar,
crossbar,
shiftdown,
crossbar,
crossbar,
crossbar,
crossbar,
shiftdown
);
CFLmER0nAJ = (
crossbar,
rightside,
crossbar,
crossbar,
crossbar
);
FaP204GrdB = (
crossbar,
rightside,
crossbar,
crossbar,
crossbar
);
JEev70GAj6 = (
leftside,
shiftstem,
leftside,
crossbar,
crossbar,
crossbar,
shiftdown,
crossbar,
crossbar,
crossbar,
shiftdown,
crossbar,
crossbar,
crossbar,
crossbar,
shiftdown
);
Qby8aMtF2X = (
crossbar,
crossbar,
crossbar,
shiftdown
);
VyYlzRh5nq = (
crossbar,
crossbar,
crossbar,
shiftdown
);
XSrxNd2axx = (
leftside,
shiftstem,
leftside,
crossbar,
crossbar,
crossbar,
shiftdown,
crossbar,
crossbar,
crossbar,
shiftdown,
crossbar,
crossbar,
crossbar,
crossbar,
shiftdown
);
eGKH52Jgnk = (
crossbar,
rightside,
crossbar,
crossbar,
crossbar
);
hvY9r8RmLr = (
leftside,
shiftstem,
leftside,
crossbar,
crossbar,
crossbar,
shiftdown,
crossbar,
crossbar,
crossbar,
shiftdown,
crossbar,
crossbar,
crossbar,
crossbar,
shiftdown
);
jaMSiLrCua = (
leftside,
shiftstem,
leftside,
crossbar,
crossbar,
crossbar,
shiftdown,
crossbar,
crossbar,
crossbar,
shiftdown,
crossbar,
crossbar,
crossbar,
crossbar,
shiftdown
);
lsRGatjQja = (
crossbar,
crossbar,
crossbar,
shiftdown
);
tTFhqGqWV0 = (
crossbar,
rightside,
crossbar,
crossbar,
crossbar
);
xhlDJ3CjD5 = (
crossbar,
crossbar,
crossbar,
shiftdown
);
xpxyvIzPoc = (
crossbar
);
};
};
width = 154;
},
{
layerId = "628C7BDB-7DBE-4EE3-879C-693AF95326D4";
paths = (
{
closed = 1;
nodes = (
"800 0 LINE",
"800 310 LINE",
"670 367 LINE",
"670 380 LINE",
"789 432 LINE",
"789 750 LINE",
"31 750 LINE",
"31 0 LINE"
);
},
{
closed = 1;
nodes = (
"370 342 LINE",
"407 342 LINE",
"461 319 LINE",
"461 97 LINE",
"370 97 LINE"
);
},
{
closed = 1;
nodes = (
"370 653 LINE",
"450 653 LINE",
"450 432 LINE",
"407 408 LINE",
"370 408 LINE"
);
}
);
width = 811;
},
{
layerId = "B41498C8-9825-4C4A-856B-8BEA93F27BCF";
paths = (
{
closed = 1;
nodes = (
"800 0 LINE",
"800 406 LINE",
"670 463 LINE",
"670 476 LINE",
"789 528 LINE",
"789 750 LINE",
"31 750 LINE",
"31 0 LINE"
);
},
{
closed = 1;
nodes = (
"370 438 LINE",
"407 438 LINE",
"461 415 LINE",
"461 97 LINE",
"370 97 LINE"
);
},
{
closed = 1;
nodes = (
"370 653 LINE",
"450 653 LINE",
"450 528 LINE",
"407 504 LINE",
"370 504 LINE"
);
}
);
width = 811;
},
{
layerId = "7F3C6EE5-2603-4259-9F13-C30BB9E194E1";
paths = (
{
closed = 1;
nodes = (
"139 0 LINE",
"139 429 LINE",
"79 492 LINE",
"79 464 LINE",
"136 531 LINE",
"136 750 LINE",
"20 750 LINE",
"20 0 LINE"
);
},
{
closed = 1;
nodes = (
"51 465 LINE",
"67 465 LINE",
"108 421 LINE",
"108 22 LINE",
"51 22 LINE"
);
},
{
closed = 1;
nodes = (
"51 728 LINE",
"105 728 LINE",
"105 536 LINE",
"67 490 LINE",
"51 490 LINE"
);
}
);
userData = {
com.schriftgestaltung.Glyphs.lastChange = "2019-04-28 05:35:59 +0000";
com.typemytype.robofont.pointLabels = {
1p5hKrurVy = (
leftside,
shiftstem,
leftside,
crossbar,
crossbar,
crossbar,
shiftdown,
crossbar,
crossbar,
crossbar,
shiftdown,
crossbar,
crossbar,
crossbar,
crossbar,
shiftdown
);
543PerILpr = (
crossbar,
rightside,
crossbar,
crossbar,
crossbar
);
9QFpw7nfq7 = (
crossbar,
rightside,
crossbar,
crossbar,
crossbar
);
9lW01gQyU2 = (
crossbar
);
By7dfMihfe = (
leftside,
shiftstem,
leftside,
crossbar,
crossbar,
crossbar,
shiftdown,
crossbar,
crossbar,
crossbar,
shiftdown,
crossbar,
crossbar,
crossbar,
crossbar,
shiftdown
);
CFLmER0nAJ = (
crossbar,
rightside,
crossbar,
crossbar,
crossbar
);
FaP204GrdB = (
crossbar,
rightside,
crossbar,
crossbar,
crossbar
);
JEev70GAj6 = (
leftside,
shiftstem,
leftside,
crossbar,
crossbar,
crossbar,
shiftdown,
crossbar,
crossbar,
crossbar,
shiftdown,
crossbar,
crossbar,
crossbar,
crossbar,
shiftdown
);
Qby8aMtF2X = (
crossbar,
crossbar,
crossbar,
shiftdown
);
VyYlzRh5nq = (
crossbar,
crossbar,
crossbar,
shiftdown
);
XSrxNd2axx = (
leftside,
shiftstem,
leftside,
crossbar,
crossbar,
crossbar,
shiftdown,
crossbar,
crossbar,
crossbar,
shiftdown,
crossbar,
crossbar,
crossbar,
crossbar,
shiftdown
);
eGKH52Jgnk = (
crossbar,
rightside,
crossbar,
crossbar,
crossbar
);
hvY9r8RmLr = (
leftside,
shiftstem,
leftside,
crossbar,
crossbar,
crossbar,
shiftdown,
crossbar,
crossbar,
crossbar,
shiftdown,
crossbar,
crossbar,
crossbar,
crossbar,
shiftdown
);
jaMSiLrCua = (
leftside,
shiftstem,
leftside,
crossbar,
crossbar,
crossbar,
shiftdown,
crossbar,
crossbar,
crossbar,
shiftdown,
crossbar,
crossbar,
crossbar,
crossbar,
shiftdown
);
lsRGatjQja = (
crossbar,
crossbar,
crossbar,
shiftdown
);
tTFhqGqWV0 = (
crossbar,
rightside,
crossbar,
crossbar,
crossbar
);
xhlDJ3CjD5 = (
crossbar,
crossbar,
crossbar,
shiftdown
);
xpxyvIzPoc = (
crossbar
);
};
};
width = 154;
},
{
layerId = "7A9BD435-3083-4FB3-9FE1-50106B21C13B";
paths = (
{
closed = 1;
nodes = (
"1184 0 LINE",
"1184 405 LINE",
"982 471 LINE",
"982 473 LINE",
"1148 540 LINE",
"1148 750 LINE",
"46 750 LINE",
"46 0 LINE"
);
},
{
closed = 1;
nodes = (
"87 456 LINE",
"943 456 LINE",
"1143 387 LINE",
"1143 32 LINE",
"87 32 LINE"
);
},
{
closed = 1;
nodes = (
"87 718 LINE",
"1107 718 LINE",
"1107 555 LINE",
"945 487 LINE",
"87 487 LINE"
);
}
);
width = 1210;
},
{
layerId = "401C54E9-F42A-49C7-842E-99B3D4FBDAC0";
paths = (
{
closed = 1;
nodes = (
"1831 0 LINE",
"1831 321 LINE",
"1535 408 LINE",
"1535 431 LINE",
"1795 512 LINE",
"1795 750 LINE",
"64 750 LINE",
"64 0 LINE"
);
},
{
closed = 1;
nodes = (
"504 349 LINE",
"1273 349 LINE",
"1392 297 LINE",
"1392 156 LINE",
"504 156 LINE"
);
},
{
closed = 1;
nodes = (
"504 594 LINE",
"1365 594 LINE",
"1365 536 LINE",
"1275 482 LINE",
"504 482 LINE"
);
}
);
width = 1862;
},
{
layerId = "5B01A85C-72B1-477B-9F3C-4C3A665051AF";
paths = (
{
closed = 1;
nodes = (
"800 0 LINE",
"800 207 LINE",
"670 264 LINE",
"670 277 LINE",
"789 329 LINE",
"789 750 LINE",
"31 750 LINE",
"31 0 LINE"
);
},
{
closed = 1;
nodes = (
"370 239 LINE",
"407 239 LINE",
"461 216 LINE",
"461 97 LINE",
"370 97 LINE"
);
},
{
closed = 1;
nodes = (
"370 653 LINE",
"450 653 LINE",
"450 329 LINE",
"407 305 LINE",
"370 305 LINE"
);
}
);
width = 811;
},
{
layerId = "6A003782-5630-46D5-9AEF-173A49B0B076";
paths = (
{
closed = 1;
nodes = (
"139 0 LINE",
"139 215 LINE",
"79 278 LINE",
"79 250 LINE",
"136 317 LINE",
"136 750 LINE",
"20 750 LINE",
"20 0 LINE"
);
},
{
closed = 1;
nodes = (
"51 251 LINE",
"67 251 LINE",
"108 207 LINE",
"108 22 LINE",
"51 22 LINE"
);
},
{
closed = 1;
nodes = (
"51 728 LINE",
"105 728 LINE",
"105 322 LINE",
"67 276 LINE",
"51 276 LINE"
);
}
);
userData = {
com.schriftgestaltung.Glyphs.lastChange = "2019-04-28 05:35:59 +0000";
com.typemytype.robofont.pointLabels = {
1p5hKrurVy = (
leftside,
shiftstem,
leftside,
crossbar,
crossbar,
crossbar,
shiftdown,
crossbar,
crossbar,
crossbar,
shiftdown,
crossbar,
crossbar,
crossbar,
crossbar,
shiftdown
);
543PerILpr = (
crossbar,
rightside,
crossbar,
crossbar,
crossbar
);
9QFpw7nfq7 = (
crossbar,
rightside,
crossbar,
crossbar,
crossbar
);
9lW01gQyU2 = (
crossbar
);
By7dfMihfe = (
leftside,
shiftstem,
leftside,
crossbar,
crossbar,
crossbar,
shiftdown,
crossbar,
crossbar,
crossbar,
shiftdown,
crossbar,
crossbar,
crossbar,
crossbar,
shiftdown
);
CFLmER0nAJ = (
crossbar,
rightside,
crossbar,
crossbar,
crossbar
);
FaP204GrdB = (
crossbar,
rightside,
crossbar,
crossbar,
crossbar
);
JEev70GAj6 = (
leftside,
shiftstem,
leftside,
crossbar,
crossbar,
crossbar,
shiftdown,
crossbar,
crossbar,
crossbar,
shiftdown,
crossbar,
crossbar,
crossbar,
crossbar,
shiftdown
);
Qby8aMtF2X = (
crossbar,
crossbar,
crossbar,
shiftdown
);
VyYlzRh5nq = (
crossbar,
crossbar,
crossbar,
shiftdown
);
XSrxNd2axx = (
leftside,
shiftstem,
leftside,
crossbar,
crossbar,
crossbar,
shiftdown,
crossbar,
crossbar,
crossbar,
shiftdown,
crossbar,
crossbar,
crossbar,
crossbar,
shiftdown
);
eGKH52Jgnk = (
crossbar,
rightside,
crossbar,
crossbar,
crossbar
);
hvY9r8RmLr = (
leftside,
shiftstem,
leftside,
crossbar,
crossbar,
crossbar,
shiftdown,
crossbar,
crossbar,
crossbar,
shiftdown,
crossbar,
crossbar,
crossbar,
crossbar,
shiftdown
);
jaMSiLrCua = (
leftside,
shiftstem,
leftside,
crossbar,
crossbar,
crossbar,
shiftdown,
crossbar,
crossbar,
crossbar,
shiftdown,
crossbar,
crossbar,
crossbar,
crossbar,
shiftdown
);
lsRGatjQja = (
crossbar,
crossbar,
crossbar,
shiftdown
);
tTFhqGqWV0 = (
crossbar,
rightside,
crossbar,
crossbar,
crossbar
);
xhlDJ3CjD5 = (
crossbar,
crossbar,
crossbar,
shiftdown
);
xpxyvIzPoc = (
crossbar
);
};
};
width = 154;
},
{
layerId = "9EF6E879-D021-4626-8F52-6D74284C4DC7";
paths = (
{
closed = 1;
nodes = (
"1184 0 LINE",
"1184 157 LINE",
"982 223 LINE",
"982 225 LINE",
"1148 292 LINE",
"1148 750 LINE",
"46 750 LINE",
"46 0 LINE"
);
},
{
closed = 1;
nodes = (
"87 208 LINE",
"943 208 LINE",
"1143 139 LINE",
"1143 32 LINE",
"87 32 LINE"
);
},
{
closed = 1;
nodes = (
"87 718 LINE",
"1107 718 LINE",
"1107 307 LINE",
"945 239 LINE",
"87 239 LINE"
);
}
);
width = 1210;
},
{
layerId = "FEE31BD6-05B9-4F93-BD72-F1214701600E";
paths = (
{
closed = 1;
nodes = (
"1831 0 LINE",
"1831 205 LINE",
"1535 292 LINE",
"1535 302 LINE",
"1805 383 LINE",
"1805 750 LINE",
"64 750 LINE",
"64 0 LINE"
);
},
{
closed = 1;
nodes = (
"504 248 LINE",
"1283 248 LINE",
"1392 216 LINE",
"1392 156 LINE",
"504 156 LINE"
);
},
{
closed = 1;
nodes = (
"504 594 LINE",
"1365 594 LINE",
"1365 391 LINE",
"1285 367 LINE",
"504 367 LINE"
);
}
);
width = 1862;
}
);
unicode = 0042;
},
{
glyphname = C;
lastChange = "2019-09-09 00:42:35 +0000";
layers = (
{
layerId = "41E2CF60-9A62-485C-A680-66BBCCBE3685";
paths = (
{
closed = 1;
nodes = (
"1827 0 LINE",
"1827 263 LINE",
"1387 263 LINE",
"1387 139 LINE",
"499 139 LINE",
"499 368 LINE",
"673 612 LINE",
"1386 612 LINE",
"1386 431 LINE",
"1826 431 LINE",
"1826 751 LINE",
"318 751 LINE",
"59 393 LINE",
"59 0 LINE"
);
}
);
width = 1885;
},
{
layerId = "C9BA7AB2-4C39-4898-B0E1-23BE521DA8C1";
paths = (
{
closed = 1;
nodes = (
"1184 0 LINE",
"1184 167 LINE",
"1143 167 LINE",
"1143 29 LINE",
"87 29 LINE",
"87 548 LINE",
"210 721 LINE",
"1142 721 LINE",
"1142 488 LINE",
"1183 488 LINE",
"1183 751 LINE",
"187 751 LINE",
"46 553 LINE",
"46 0 LINE"
);
}
);
width = 1221;
},
{
layerId = "1577B97C-DCC5-4AA4-842F-E9BB22E99E3C";
paths = (
{
closed = 1;
nodes = (
"133 0 LINE",
"133 160 LINE",
"102 160 LINE",
"102 22 LINE",
"45 22 LINE",
"45 650 LINE",
"81 729 LINE",
"101 729 LINE",
"101 492 LINE",
"132 492 LINE",
"132 751 LINE",
"61 751 LINE",
"14 651 LINE",
"14 0 LINE"
);
}
);
userData = {
com.schriftgestaltung.Glyphs.lastChange = "2019-04-28 11:49:41 +0000";
com.typemytype.robofont.pointLabels = {
5BjRbcud80 = (
rightside,
shiftstem,
rightside,
shiftdown,
shiftdown,
rightside,
rightside
);
7lPhzTnk2Z = (
leftside
);
9eJelv8BOw = (
rightside,
shiftstem,
rightside,
shiftdown,
shiftdown,
rightside,
rightside
);
L2LsGnXiZ2 = (
shiftdown
);
QX1V08aTu0 = (
rightside,
shiftstem,
rightside,
shiftdown,
shiftdown,
rightside,
rightside
);
QjTd5GXXER = (
rightside
);
V1EWIdPahq = (
leftside
);
Y750RHTvDj = (
rightside,
shiftstem,
rightside,
shiftdown,
shiftdown,
rightside,
rightside
);
dbOUe6OhxL = (
shiftdown
);
fNVDqwQo2o = (
rightside,
shiftstem,
rightside,
shiftdown,
shiftdown,
rightside,
rightside
);
lfZev3ICaC = (
leftside
);
nDnDHzAMXL = (
rightside,
shiftstem,
rightside,
shiftdown,
shiftdown,
rightside,
rightside
);
o9Cec4GtsE = (
rightside
);
qJVLZGnkwh = (
rightside,
shiftstem,
rightside,
shiftdown,
shiftdown,
rightside,
rightside
);
sUWsr03vF4 = (
shiftdown
);
wLqQQx7QVN = (
rightside,
shiftstem,
rightside,
shiftdown,
shiftdown,
rightside,
rightside
);
};
};
width = 144;
},
{
layerId = "628C7BDB-7DBE-4EE3-879C-693AF95326D4";
paths = (
{
closed = 1;
nodes = (
"793 0 LINE",
"793 265 LINE",
"454 265 LINE",
"454 96 LINE",
"365 96 LINE",
"365 570 LINE",
"398 654 LINE",
"453 654 LINE",
"453 447 LINE",
"792 447 LINE",
"792 751 LINE",
"93 751 LINE",
"26 567 LINE",
"26 0 LINE"
);
}
);
width = 815;
},
{
layerId = "B41498C8-9825-4C4A-856B-8BEA93F27BCF";
paths = (
{
closed = 1;
nodes = (
"793 0 LINE",
"793 265 LINE",
"454 265 LINE",
"454 96 LINE",
"365 96 LINE",
"365 570 LINE",
"398 654 LINE",
"453 654 LINE",
"453 447 LINE",
"792 447 LINE",
"792 751 LINE",
"93 751 LINE",
"26 567 LINE",
"26 0 LINE"
);
}
);
width = 815;
},
{
layerId = "7F3C6EE5-2603-4259-9F13-C30BB9E194E1";
paths = (
{
closed = 1;
nodes = (
"133 0 LINE",
"133 160 LINE",
"102 160 LINE",
"102 22 LINE",
"45 22 LINE",
"45 650 LINE",
"81 729 LINE",
"101 729 LINE",
"101 492 LINE",
"132 492 LINE",
"132 751 LINE",
"61 751 LINE",
"14 651 LINE",
"14 0 LINE"
);
}
);
userData = {
com.schriftgestaltung.Glyphs.lastChange = "2019-04-28 11:49:41 +0000";
com.typemytype.robofont.pointLabels = {
5BjRbcud80 = (
rightside,
shiftstem,
rightside,
shiftdown,
shiftdown,
rightside,
rightside
);
7lPhzTnk2Z = (
leftside
);
9eJelv8BOw = (
rightside,
shiftstem,
rightside,
shiftdown,
shiftdown,
rightside,
rightside
);
L2LsGnXiZ2 = (
shiftdown
);
QX1V08aTu0 = (
rightside,
shiftstem,
rightside,
shiftdown,
shiftdown,
rightside,
rightside
);
QjTd5GXXER = (
rightside
);
V1EWIdPahq = (
leftside
);
Y750RHTvDj = (
rightside,
shiftstem,
rightside,
shiftdown,
shiftdown,
rightside,
rightside
);
dbOUe6OhxL = (
shiftdown
);
fNVDqwQo2o = (
rightside,
shiftstem,
rightside,
shiftdown,
shiftdown,
rightside,
rightside
);
lfZev3ICaC = (
leftside
);
nDnDHzAMXL = (
rightside,
shiftstem,
rightside,
shiftdown,
shiftdown,
rightside,
rightside
);
o9Cec4GtsE = (
rightside
);
qJVLZGnkwh = (
rightside,
shiftstem,
rightside,
shiftdown,
shiftdown,
rightside,
rightside
);
sUWsr03vF4 = (
shiftdown
);
wLqQQx7QVN = (
rightside,
shiftstem,
rightside,
shiftdown,
shiftdown,
rightside,
rightside
);
};
};
width = 144;
},
{
layerId = "7A9BD435-3083-4FB3-9FE1-50106B21C13B";
paths = (
{
closed = 1;
nodes = (
"1184 0 LINE",
"1184 167 LINE",
"1143 167 LINE",
"1143 29 LINE",
"87 29 LINE",
"87 548 LINE",
"210 721 LINE",
"1142 721 LINE",
"1142 488 LINE",
"1183 488 LINE",
"1183 751 LINE",
"187 751 LINE",
"46 553 LINE",
"46 0 LINE"
);
}
);
width = 1221;
},
{
layerId = "401C54E9-F42A-49C7-842E-99B3D4FBDAC0";
paths = (
{
closed = 1;
nodes = (
"1827 0 LINE",
"1827 263 LINE",
"1387 263 LINE",
"1387 139 LINE",
"499 139 LINE",
"499 368 LINE",
"673 612 LINE",
"1386 612 LINE",
"1386 431 LINE",
"1826 431 LINE",
"1826 751 LINE",
"318 751 LINE",
"59 393 LINE",
"59 0 LINE"
);
}
);
width = 1885;
},
{
layerId = "5B01A85C-72B1-477B-9F3C-4C3A665051AF";
paths = (
{
closed = 1;
nodes = (
"793 0 LINE",
"793 265 LINE",
"454 265 LINE",
"454 96 LINE",
"365 96 LINE",
"365 570 LINE",
"398 654 LINE",
"453 654 LINE",
"453 447 LINE",
"792 447 LINE",
"792 751 LINE",
"93 751 LINE",
"26 567 LINE",
"26 0 LINE"
);
}
);
width = 815;
},
{
layerId = "6A003782-5630-46D5-9AEF-173A49B0B076";
paths = (
{
closed = 1;
nodes = (
"133 0 LINE",
"133 160 LINE",
"102 160 LINE",
"102 22 LINE",
"45 22 LINE",
"45 650 LINE",
"81 729 LINE",
"101 729 LINE",
"101 492 LINE",
"132 492 LINE",
"132 751 LINE",
"61 751 LINE",
"14 651 LINE",
"14 0 LINE"
);
}
);
userData = {
com.schriftgestaltung.Glyphs.lastChange = "2019-04-28 11:49:41 +0000";
com.typemytype.robofont.pointLabels = {
5BjRbcud80 = (
rightside,
shiftstem,
rightside,
shiftdown,
shiftdown,
rightside,
rightside
);
7lPhzTnk2Z = (
leftside
);
9eJelv8BOw = (
rightside,
shiftstem,
rightside,
shiftdown,
shiftdown,
rightside,
rightside
);
L2LsGnXiZ2 = (
shiftdown
);
QX1V08aTu0 = (
rightside,
shiftstem,
rightside,
shiftdown,
shiftdown,
rightside,
rightside
);
QjTd5GXXER = (
rightside
);
V1EWIdPahq = (
leftside
);
Y750RHTvDj = (
rightside,
shiftstem,
rightside,
shiftdown,
shiftdown,
rightside,
rightside
);
dbOUe6OhxL = (
shiftdown
);
fNVDqwQo2o = (
rightside,
shiftstem,
rightside,
shiftdown,
shiftdown,
rightside,
rightside
);
lfZev3ICaC = (
leftside
);
nDnDHzAMXL = (
rightside,
shiftstem,
rightside,
shiftdown,
shiftdown,
rightside,
rightside
);
o9Cec4GtsE = (
rightside
);
qJVLZGnkwh = (
rightside,
shiftstem,
rightside,
shiftdown,
shiftdown,
rightside,
rightside
);
sUWsr03vF4 = (
shiftdown
);
wLqQQx7QVN = (
rightside,
shiftstem,
rightside,
shiftdown,
shiftdown,
rightside,
rightside
);
};
};
width = 144;
},
{
layerId = "9EF6E879-D021-4626-8F52-6D74284C4DC7";
paths = (
{
closed = 1;
nodes = (
"1184 0 LINE",
"1184 167 LINE",
"1143 167 LINE",
"1143 29 LINE",
"87 29 LINE",
"87 548 LINE",
"210 721 LINE",
"1142 721 LINE",
"1142 488 LINE",
"1183 488 LINE",
"1183 751 LINE",
"187 751 LINE",
"46 553 LINE",
"46 0 LINE"
);
}
);
width = 1221;
},
{
layerId = "FEE31BD6-05B9-4F93-BD72-F1214701600E";
paths = (
{
closed = 1;
nodes = (
"1813 0 LINE",
"1813 263 LINE",
"1373 263 LINE",
"1373 139 LINE",
"499 139 LINE",
"499 368 LINE",
"673 612 LINE",
"1372 612 LINE",
"1372 431 LINE",
"1812 431 LINE",
"1812 751 LINE",
"318 751 LINE",
"59 393 LINE",
"59 0 LINE"
);
}
);
width = 1885;
}
);
unicode = 0043;
},
{
glyphname = D;
lastChange = "2019-09-08 22:09:38 +0000";
layers = (
{
layerId = "41E2CF60-9A62-485C-A680-66BBCCBE3685";
paths = (
{
closed = 1;
nodes = (
"1832 0 LINE",
"1832 425 LINE",
"1453 750 LINE",
"64 750 LINE",
"64 0 LINE"
);
},
{
closed = 1;
nodes = (
"504 594 LINE",
"1111 594 LINE",
"1392 368 LINE",
"1392 156 LINE",
"504 156 LINE"
);
}
);
width = 1891;
},
{
layerId = "C9BA7AB2-4C39-4898-B0E1-23BE521DA8C1";
paths = (
{
closed = 1;
nodes = (
"1171 0 LINE",
"1171 570 LINE",
"1018 750 LINE",
"46 750 LINE",
"46 0 LINE"
);
},
{
closed = 1;
nodes = (
"87 718 LINE",
"994 718 LINE",
"1130 558 LINE",
"1130 31 LINE",
"87 32 LINE"
);
}
);
width = 1210;
},
{
layerId = "1577B97C-DCC5-4AA4-842F-E9BB22E99E3C";
paths = (
{
closed = 1;
nodes = (
"140 0 LINE",
"140 664 LINE",
"96 750 LINE",
"20 750 LINE",
"20 0 LINE"
);
},
{
closed = 1;
nodes = (
"51 728 LINE",
"74 728 LINE",
"109 658 LINE",
"109 22 LINE",
"51 22 LINE"
);
}
);
userData = {
com.schriftgestaltung.Glyphs.lastChange = "2019-04-28 05:35:59 +0000";
com.typemytype.robofont.pointLabels = {
4w8cXO1HlF = (
leftside,
shiftstem,
leftside,
shiftstem,
shiftdown
);
5OFemp6E2Y = (
leftside,
shiftstem,
leftside,
shiftstem,
shiftdown
);
DhFNkdKcfj = (
leftside
);
DiLdvAK6bW = (
leftside,
shiftstem,
leftside,
shiftstem,
shiftdown
);
IF8msvcgce = (
rightside
);
OGdfzPVlic = (
leftside,
shiftstem,
leftside,
shiftstem,
shiftdown
);
YShvMHvurg = (
leftside,
shiftstem,
leftside,
shiftstem,
shiftdown
);
gh4oopoKIn = (
leftside,
shiftstem
);
hTYdJwlqIh = (
leftside,
shiftstem
);
ydeACnPZN4 = (
rightside
);
yunTqSzRcA = (
rightside
);
};
};
width = 157;
},
{
layerId = "628C7BDB-7DBE-4EE3-879C-693AF95326D4";
paths = (
{
closed = 1;
nodes = (
"799 0 LINE",
"799 557 LINE",
"693 750 LINE",
"31 750 LINE",
"31 0 LINE"
);
},
{
closed = 1;
nodes = (
"370 653 LINE",
"412 653 LINE",
"460 543 LINE",
"460 97 LINE",
"370 97 LINE"
);
}
);
width = 825;
},
{
layerId = "B41498C8-9825-4C4A-856B-8BEA93F27BCF";
paths = (
{
closed = 1;
nodes = (
"799 0 LINE",
"799 557 LINE",
"693 750 LINE",
"31 750 LINE",
"31 0 LINE"
);
},
{
closed = 1;
nodes = (
"370 653 LINE",
"412 653 LINE",
"460 543 LINE",
"460 97 LINE",
"370 97 LINE"
);
}
);
width = 825;
},
{
layerId = "7F3C6EE5-2603-4259-9F13-C30BB9E194E1";
paths = (
{
closed = 1;
nodes = (
"140 0 LINE",
"140 664 LINE",
"96 750 LINE",
"20 750 LINE",
"20 0 LINE"
);
},
{
closed = 1;
nodes = (
"51 728 LINE",
"74 728 LINE",
"109 658 LINE",
"109 22 LINE",
"51 22 LINE"
);
}
);
userData = {
com.schriftgestaltung.Glyphs.lastChange = "2019-04-28 05:35:59 +0000";
com.typemytype.robofont.pointLabels = {
4w8cXO1HlF = (
leftside,
shiftstem,
leftside,
shiftstem,
shiftdown
);
5OFemp6E2Y = (
leftside,
shiftstem,
leftside,
shiftstem,
shiftdown
);
DhFNkdKcfj = (
leftside
);
DiLdvAK6bW = (
leftside,
shiftstem,
leftside,
shiftstem,
shiftdown
);
IF8msvcgce = (
rightside
);
OGdfzPVlic = (
leftside,
shiftstem,
leftside,
shiftstem,
shiftdown
);
YShvMHvurg = (
leftside,
shiftstem,
leftside,
shiftstem,
shiftdown
);
gh4oopoKIn = (
leftside,
shiftstem
);
hTYdJwlqIh = (
leftside,
shiftstem
);
ydeACnPZN4 = (
rightside
);
yunTqSzRcA = (
rightside
);
};
};
width = 157;
},
{
layerId = "7A9BD435-3083-4FB3-9FE1-50106B21C13B";
paths = (
{
closed = 1;
nodes = (
"1171 0 LINE",
"1171 570 LINE",
"1018 750 LINE",
"46 750 LINE",
"46 0 LINE"
);
},
{
closed = 1;
nodes = (
"87 718 LINE",
"994 718 LINE",
"1130 558 LINE",
"1130 31 LINE",
"87 32 LINE"
);
}
);
width = 1210;
},
{
layerId = "401C54E9-F42A-49C7-842E-99B3D4FBDAC0";
paths = (
{
closed = 1;
nodes = (
"1832 0 LINE",
"1832 425 LINE",
"1453 750 LINE",
"64 750 LINE",
"64 0 LINE"
);
},
{
closed = 1;
nodes = (
"504 594 LINE",
"1111 594 LINE",
"1392 368 LINE",
"1392 156 LINE",
"504 156 LINE"
);
}
);
width = 1891;
},
{
layerId = "5B01A85C-72B1-477B-9F3C-4C3A665051AF";
paths = (
{
closed = 1;
nodes = (
"799 0 LINE",
"799 557 LINE",
"693 750 LINE",
"31 750 LINE",
"31 0 LINE"
);
},
{
closed = 1;
nodes = (
"370 653 LINE",
"412 653 LINE",
"460 543 LINE",
"460 97 LINE",
"370 97 LINE"
);
}
);
width = 825;
},
{
layerId = "6A003782-5630-46D5-9AEF-173A49B0B076";
paths = (
{
closed = 1;
nodes = (
"140 0 LINE",
"140 664 LINE",
"96 750 LINE",
"20 750 LINE",
"20 0 LINE"
);
},
{
closed = 1;
nodes = (
"51 728 LINE",
"74 728 LINE",
"109 658 LINE",
"109 22 LINE",
"51 22 LINE"
);
}
);
userData = {
com.schriftgestaltung.Glyphs.lastChange = "2019-04-28 05:35:59 +0000";
com.typemytype.robofont.pointLabels = {
4w8cXO1HlF = (
leftside,
shiftstem,
leftside,
shiftstem,
shiftdown
);
5OFemp6E2Y = (
leftside,
shiftstem,
leftside,
shiftstem,
shiftdown
);
DhFNkdKcfj = (
leftside
);
DiLdvAK6bW = (
leftside,
shiftstem,
leftside,
shiftstem,
shiftdown
);
IF8msvcgce = (
rightside
);
OGdfzPVlic = (
leftside,
shiftstem,
leftside,
shiftstem,
shiftdown
);
YShvMHvurg = (
leftside,
shiftstem,
leftside,
shiftstem,
shiftdown
);
gh4oopoKIn = (
leftside,
shiftstem
);
hTYdJwlqIh = (
leftside,
shiftstem
);
ydeACnPZN4 = (
rightside
);
yunTqSzRcA = (
rightside
);
};
};
width = 157;
},
{
layerId = "9EF6E879-D021-4626-8F52-6D74284C4DC7";
paths = (
{
closed = 1;
nodes = (
"1171 0 LINE",
"1171 570 LINE",
"1018 750 LINE",
"46 750 LINE",
"46 0 LINE"
);
},
{
closed = 1;
nodes = (
"87 718 LINE",
"994 718 LINE",
"1130 558 LINE",
"1130 31 LINE",
"87 32 LINE"
);
}
);
width = 1210;
},
{
layerId = "FEE31BD6-05B9-4F93-BD72-F1214701600E";
paths = (
{
closed = 1;
nodes = (
"1832 0 LINE",
"1832 425 LINE",
"1453 750 LINE",
"64 750 LINE",
"64 0 LINE"
);
},
{
closed = 1;
nodes = (
"504 594 LINE",
"1111 594 LINE",
"1392 368 LINE",
"1392 156 LINE",
"504 156 LINE"
);
}
);
width = 1891;
}
);
unicode = 0044;
},
{
glyphname = E;
lastChange = "2019-09-09 01:10:18 +0000";
layers = (
{
layerId = "41E2CF60-9A62-485C-A680-66BBCCBE3685";
paths = (
{
closed = 1;
nodes = (
"1616 0 LINE",
"1616 172 LINE",
"1266 172 LINE",
"1266 172 LINE",
"504 172 LINE",
"504 296 LINE",
"1439 296 LINE",
"1439 448 LINE",
"504 448 LINE",
"504 574 LINE",
"1265 574 LINE",
"1265 574 LINE",
"1615 574 LINE",
"1615 750 LINE",
"64 750 LINE",
"64 0 LINE"
);
}
);
width = 1660;
},
{
layerId = "C9BA7AB2-4C39-4898-B0E1-23BE521DA8C1";
paths = (
{
closed = 1;
nodes = (
"1078 0 LINE",
"1078 233 LINE",
"1037 233 LINE",
"1037 32 LINE",
"87 32 LINE",
"87 364 LINE",
"905 364 LINE",
"905 395 LINE",
"87 395 LINE",
"87 718 LINE",
"1036 718 LINE",
"1036 538 LINE",
"1077 538 LINE",
"1077 750 LINE",
"46 750 LINE",
"46 0 LINE"
);
}
);
width = 1111;
},
{
layerId = "1577B97C-DCC5-4AA4-842F-E9BB22E99E3C";
paths = (
{
closed = 1;
nodes = (
"137 0 LINE",
"137 133 LINE",
"106 133 LINE",
"106 22 LINE",
"51 22 LINE",
"51 363 LINE",
"119 363 LINE",
"119 385 LINE",
"51 385 LINE",
"51 728 LINE",
"105 728 LINE",
"105 557 LINE",
"136 557 LINE",
"136 750 LINE",
"20 750 LINE",
"20 0 LINE"
);
}
);
userData = {
com.schriftgestaltung.Glyphs.lastChange = "2019-04-28 05:35:59 +0000";
com.typemytype.robofont.pointLabels = {
32aoCNw8Jt = (
rightside
);
5cgTYOhATF = (
leftside,
shiftdown,
crossbar,
shiftstem,
crossbar,
leftside,
leftside,
crossbar,
shiftstem,
crossbar,
leftside,
crossbar,
leftside,
crossbar,
shiftstem,
crossbar,
leftside
);
8WuC5p8Ax5 = (
crossbar
);
FAQNpgUPxV = (
rightside
);
HmJIcnLWfC = (
leftside,
crossbar,
shiftstem,
crossbar,
leftside
);
NnvFkLKjyD = (
rightside
);
PpbsFdHAnS = (
leftside,
shiftdown,
crossbar,
shiftstem,
crossbar,
leftside,
leftside,
crossbar,
shiftstem,
crossbar,
leftside,
crossbar,
leftside,
crossbar,
shiftstem,
crossbar,
leftside
);
S91n4lNRRk = (
rightside
);
VtD2aADJmn = (
leftside,
shiftdown,
crossbar,
shiftstem,
crossbar,
leftside,
leftside,
crossbar,
shiftstem,
crossbar,
leftside,
crossbar,
leftside,
crossbar,
shiftstem,
crossbar,
leftside
);
XMbDdjq7aS = (
rightside
);
bWs42DaCgU = (
leftside,
shiftdown,
crossbar,
shiftstem,
crossbar,
leftside,
leftside,
crossbar,
shiftstem,
crossbar,
leftside,
crossbar,
leftside,
crossbar,
shiftstem,
crossbar,
leftside
);
e79n7CoPy1 = (
rightside
);
eqNb2VTwYs = (
leftside,
shiftdown,
crossbar,
shiftstem,
crossbar,
leftside,
leftside,
crossbar,
shiftstem,
crossbar,
leftside,
crossbar,
leftside,
crossbar,
shiftstem,
crossbar,
leftside
);
fZynkQ4XHB = (
leftside,
crossbar,
shiftstem,
crossbar,
leftside
);
gHI0YjrPxR = (
rightside
);
gQ21I4SHQg = (
leftside,
shiftdown,
crossbar,
shiftstem,
crossbar,
leftside,
leftside,
crossbar,
shiftstem,
crossbar,
leftside,
crossbar,
leftside,
crossbar,
shiftstem,
crossbar,
leftside
);
m39IWn9ntA = (
leftside,
crossbar,
shiftstem,
crossbar,
leftside
);
qYRmo14Il5 = (
rightside
);
};
};
width = 147;
},
{
layerId = "628C7BDB-7DBE-4EE3-879C-693AF95326D4";
paths = (
{
closed = 1;
nodes = (
"720 0 LINE",
"721 140 LINE",
"434 140 LINE",
"433 140 LINE",
"370 140 LINE",
"370 292 LINE",
"663 292 LINE",
"663 455 LINE",
"370 455 LINE",
"370 604 LINE",
"432 604 LINE",
"432 604 LINE",
"719 604 LINE",
"719 750 LINE",
"31 750 LINE",
"31 0 LINE"
);
}
);
width = 734;
},
{
layerId = "B41498C8-9825-4C4A-856B-8BEA93F27BCF";
paths = (
{
closed = 1;
nodes = (
"720 0 LINE",
"721 140 LINE",
"434 140 LINE",
"433 140 LINE",
"370 140 LINE",
"370 370 LINE",
"663 370 LINE",
"663 533 LINE",
"370 533 LINE",
"370 604 LINE",
"432 604 LINE",
"432 604 LINE",
"719 604 LINE",
"719 750 LINE",
"31 750 LINE",
"31 0 LINE"
);
}
);
width = 734;
},
{
layerId = "7F3C6EE5-2603-4259-9F13-C30BB9E194E1";
paths = (
{
closed = 1;
nodes = (
"137 0 LINE",
"137 133 LINE",
"106 133 LINE",
"106 22 LINE",
"51 22 LINE",
"51 462 LINE",
"119 462 LINE",
"119 484 LINE",
"51 484 LINE",
"51 728 LINE",
"105 728 LINE",
"105 557 LINE",
"136 557 LINE",
"136 750 LINE",
"20 750 LINE",
"20 0 LINE"
);
}
);
userData = {
com.schriftgestaltung.Glyphs.lastChange = "2019-04-28 05:35:59 +0000";
com.typemytype.robofont.pointLabels = {
32aoCNw8Jt = (
rightside
);
5cgTYOhATF = (
leftside,
shiftdown,
crossbar,
shiftstem,
crossbar,
leftside,
leftside,
crossbar,
shiftstem,
crossbar,
leftside,
crossbar,
leftside,
crossbar,
shiftstem,
crossbar,
leftside
);
8WuC5p8Ax5 = (
crossbar
);
FAQNpgUPxV = (
rightside
);
HmJIcnLWfC = (
leftside,
crossbar,
shiftstem,
crossbar,
leftside
);
NnvFkLKjyD = (
rightside
);
PpbsFdHAnS = (
leftside,
shiftdown,
crossbar,
shiftstem,
crossbar,
leftside,
leftside,
crossbar,
shiftstem,
crossbar,
leftside,
crossbar,
leftside,
crossbar,
shiftstem,
crossbar,
leftside
);
S91n4lNRRk = (
rightside
);
VtD2aADJmn = (
leftside,
shiftdown,
crossbar,
shiftstem,
crossbar,
leftside,
leftside,
crossbar,
shiftstem,
crossbar,
leftside,
crossbar,
leftside,
crossbar,
shiftstem,
crossbar,
leftside
);
XMbDdjq7aS = (
rightside
);
bWs42DaCgU = (
leftside,
shiftdown,
crossbar,
shiftstem,
crossbar,
leftside,
leftside,
crossbar,
shiftstem,
crossbar,
leftside,
crossbar,
leftside,
crossbar,
shiftstem,
crossbar,
leftside
);
e79n7CoPy1 = (
rightside
);
eqNb2VTwYs = (
leftside,
shiftdown,
crossbar,
shiftstem,
crossbar,
leftside,
leftside,
crossbar,
shiftstem,
crossbar,
leftside,
crossbar,
leftside,
crossbar,
shiftstem,
crossbar,
leftside
);
fZynkQ4XHB = (
leftside,
crossbar,
shiftstem,
crossbar,
leftside
);
gHI0YjrPxR = (
rightside
);
gQ21I4SHQg = (
leftside,
shiftdown,
crossbar,
shiftstem,
crossbar,
leftside,
leftside,
crossbar,
shiftstem,
crossbar,
leftside,
crossbar,
leftside,
crossbar,
shiftstem,
crossbar,
leftside
);
m39IWn9ntA = (
leftside,
crossbar,
shiftstem,
crossbar,
leftside
);
qYRmo14Il5 = (
rightside
);
};
};
width = 147;
},
{
layerId = "7A9BD435-3083-4FB3-9FE1-50106B21C13B";
paths = (
{
closed = 1;
nodes = (
"1078 0 LINE",
"1078 233 LINE",
"1037 233 LINE",
"1037 32 LINE",
"87 32 LINE",
"87 464 LINE",
"905 464 LINE",
"905 495 LINE",
"87 495 LINE",
"87 718 LINE",
"1036 718 LINE",
"1036 538 LINE",
"1077 538 LINE",
"1077 750 LINE",
"46 750 LINE",
"46 0 LINE"
);
}
);
width = 1111;
},
{
layerId = "401C54E9-F42A-49C7-842E-99B3D4FBDAC0";
paths = (
{
closed = 1;
nodes = (
"1616 0 LINE",
"1616 172 LINE",
"1266 172 LINE",
"1266 172 LINE",
"504 172 LINE",
"504 355 LINE",
"1439 355 LINE",
"1439 507 LINE",
"504 507 LINE",
"504 574 LINE",
"1265 574 LINE",
"1265 574 LINE",
"1615 574 LINE",
"1615 750 LINE",
"64 750 LINE",
"64 0 LINE"
);
}
);
width = 1660;
},
{
layerId = "5B01A85C-72B1-477B-9F3C-4C3A665051AF";
paths = (
{
closed = 1;
nodes = (
"720 0 LINE",
"721 140 LINE",
"434 140 LINE",
"433 140 LINE",
"370 140 LINE",
"370 205 LINE",
"663 205 LINE",
"663 368 LINE",
"370 368 LINE",
"370 604 LINE",
"432 604 LINE",
"432 604 LINE",
"719 604 LINE",
"719 750 LINE",
"31 750 LINE",
"31 0 LINE"
);
}
);
width = 734;
},
{
layerId = "6A003782-5630-46D5-9AEF-173A49B0B076";
paths = (
{
closed = 1;
nodes = (
"137 0 LINE",
"137 133 LINE",
"106 133 LINE",
"106 22 LINE",
"51 22 LINE",
"51 244 LINE",
"119 244 LINE",
"119 266 LINE",
"51 266 LINE",
"51 728 LINE",
"105 728 LINE",
"105 557 LINE",
"136 557 LINE",
"136 750 LINE",
"20 750 LINE",
"20 0 LINE"
);
}
);
userData = {
com.schriftgestaltung.Glyphs.lastChange = "2019-04-28 05:35:59 +0000";
com.typemytype.robofont.pointLabels = {
32aoCNw8Jt = (
rightside
);
5cgTYOhATF = (
leftside,
shiftdown,
crossbar,
shiftstem,
crossbar,
leftside,
leftside,
crossbar,
shiftstem,
crossbar,
leftside,
crossbar,
leftside,
crossbar,
shiftstem,
crossbar,
leftside
);
8WuC5p8Ax5 = (
crossbar
);
FAQNpgUPxV = (
rightside
);
HmJIcnLWfC = (
leftside,
crossbar,
shiftstem,
crossbar,
leftside
);
NnvFkLKjyD = (
rightside
);
PpbsFdHAnS = (
leftside,
shiftdown,
crossbar,
shiftstem,
crossbar,
leftside,
leftside,
crossbar,
shiftstem,
crossbar,
leftside,
crossbar,
leftside,
crossbar,
shiftstem,
crossbar,
leftside
);
S91n4lNRRk = (
rightside
);
VtD2aADJmn = (
leftside,
shiftdown,
crossbar,
shiftstem,
crossbar,
leftside,
leftside,
crossbar,
shiftstem,
crossbar,
leftside,
crossbar,
leftside,
crossbar,
shiftstem,
crossbar,
leftside
);
XMbDdjq7aS = (
rightside
);
bWs42DaCgU = (
leftside,
shiftdown,
crossbar,
shiftstem,
crossbar,
leftside,
leftside,
crossbar,
shiftstem,
crossbar,
leftside,
crossbar,
leftside,
crossbar,
shiftstem,
crossbar,
leftside
);
e79n7CoPy1 = (
rightside
);
eqNb2VTwYs = (
leftside,
shiftdown,
crossbar,
shiftstem,
crossbar,
leftside,
leftside,
crossbar,
shiftstem,
crossbar,
leftside,
crossbar,
leftside,
crossbar,
shiftstem,
crossbar,
leftside
);
fZynkQ4XHB = (
leftside,
crossbar,
shiftstem,
crossbar,
leftside
);
gHI0YjrPxR = (
rightside
);
gQ21I4SHQg = (
leftside,
shiftdown,
crossbar,
shiftstem,
crossbar,
leftside,
leftside,
crossbar,
shiftstem,
crossbar,
leftside,
crossbar,
leftside,
crossbar,
shiftstem,
crossbar,
leftside
);
m39IWn9ntA = (
leftside,
crossbar,
shiftstem,
crossbar,
leftside
);
qYRmo14Il5 = (
rightside
);
};
};
width = 147;
},
{
layerId = "9EF6E879-D021-4626-8F52-6D74284C4DC7";
paths = (
{
closed = 1;
nodes = (
"1078 0 LINE",
"1078 233 LINE",
"1037 233 LINE",
"1037 32 LINE",
"87 32 LINE",
"87 275 LINE",
"905 275 LINE",
"905 306 LINE",
"87 306 LINE",
"87 718 LINE",
"1036 718 LINE",
"1036 538 LINE",
"1077 538 LINE",
"1077 750 LINE",
"46 750 LINE",
"46 0 LINE"
);
}
);
width = 1111;
},
{
layerId = "FEE31BD6-05B9-4F93-BD72-F1214701600E";
paths = (
{
closed = 1;
nodes = (
"1616 0 LINE",
"1616 172 LINE",
"1266 172 LINE",
"1266 172 LINE",
"504 172 LINE",
"504 236 LINE",
"1439 236 LINE",
"1439 388 LINE",
"504 388 LINE",
"504 574 LINE",
"1265 574 LINE",
"1265 574 LINE",
"1615 574 LINE",
"1615 750 LINE",
"64 750 LINE",
"64 0 LINE"
);
}
);
width = 1660;
}
);
unicode = 0045;
},
{
glyphname = F;
lastChange = "2019-09-09 01:10:24 +0000";
layers = (
{
layerId = "41E2CF60-9A62-485C-A680-66BBCCBE3685";
paths = (
{
closed = 1;
nodes = (
"519 0 LINE",
"519 249 LINE",
"1294 249 LINE",
"1294 386 LINE",
"519 386 LINE",
"519 594 LINE",
"1366 594 LINE",
"1366 594 LINE",
"1602 594 LINE",
"1602 750 LINE",
"79 750 LINE",
"79 0 LINE"
);
}
);
width = 1618;
},
{
layerId = "C9BA7AB2-4C39-4898-B0E1-23BE521DA8C1";
paths = (
{
closed = 1;
nodes = (
"87 0 LINE",
"87 355 LINE",
"988 355 LINE",
"988 386 LINE",
"87 386 LINE",
"87 718 LINE",
"1034 718 LINE",
"1034 517 LINE",
"1075 517 LINE",
"1075 750 LINE",
"46 750 LINE",
"46 0 LINE"
);
}
);
width = 1097;
},
{
layerId = "1577B97C-DCC5-4AA4-842F-E9BB22E99E3C";
paths = (
{
closed = 1;
nodes = (
"51 0 LINE",
"51 364 LINE",
"123 364 LINE",
"123 386 LINE",
"51 386 LINE",
"51 728 LINE",
"107 728 LINE",
"107 557 LINE",
"138 557 LINE",
"138 750 LINE",
"20 750 LINE",
"20 0 LINE"
);
}
);
userData = {
com.schriftgestaltung.Glyphs.lastChange = "2019-04-28 05:35:59 +0000";
com.typemytype.robofont.pointLabels = {
0tk7G4orz6 = (
rightside
);
4cFHKQfHDt = (
leftside,
crossbar,
crossbar,
shiftstem,
leftside
);
F6QQD702pX = (
rightside
);
NUrIjqOB7J = (
rightside
);
NmB7yyQuio = (
crossbar
);
TBAYuCfUFX = (
leftside,
crossbar,
crossbar,
shiftstem,
leftside
);
ZvzwyrcwpS = (
leftside,
crossbar,
crossbar,
shiftstem,
leftside
);
bL0wwzlx16 = (
rightside
);
oAgH2tA6DJ = (
leftside,
crossbar,
crossbar,
shiftstem,
leftside
);
wQk2C8zPHh = (
crossbar
);
yHYqkMd7LI = (
leftside,
crossbar,
crossbar,
shiftstem,
leftside
);
zCZyMcW5ho = (
leftside,
crossbar,
crossbar,
shiftstem,
leftside
);
};
};
width = 148;
},
{
layerId = "628C7BDB-7DBE-4EE3-879C-693AF95326D4";
paths = (
{
closed = 1;
nodes = (
"370 0 LINE",
"370 253 LINE",
"632 253 LINE",
"632 386 LINE",
"370 386 LINE",
"370 653 LINE",
"446 653 LINE",
"446 490 LINE",
"785 490 LINE",
"785 750 LINE",
"31 750 LINE",
"31 0 LINE"
);
}
);
width = 788;
},
{
layerId = "B41498C8-9825-4C4A-856B-8BEA93F27BCF";
paths = (
{
closed = 1;
nodes = (
"370 0 LINE",
"370 307 LINE",
"632 307 LINE",
"632 440 LINE",
"370 440 LINE",
"370 653 LINE",
"446 653 LINE",
"446 490 LINE",
"785 490 LINE",
"785 750 LINE",
"31 750 LINE",
"31 0 LINE"
);
}
);
width = 788;
},
{
layerId = "7F3C6EE5-2603-4259-9F13-C30BB9E194E1";
paths = (
{
closed = 1;
nodes = (
"51 0 LINE",
"51 461 LINE",
"123 461 LINE",
"123 483 LINE",
"51 483 LINE",
"51 728 LINE",
"107 728 LINE",
"107 557 LINE",
"138 557 LINE",
"138 750 LINE",
"20 750 LINE",
"20 0 LINE"
);
}
);
userData = {
com.schriftgestaltung.Glyphs.lastChange = "2019-04-28 05:35:59 +0000";
com.typemytype.robofont.pointLabels = {
0tk7G4orz6 = (
rightside
);
4cFHKQfHDt = (
leftside,
crossbar,
crossbar,
shiftstem,
leftside
);
F6QQD702pX = (
rightside
);
NUrIjqOB7J = (
rightside
);
NmB7yyQuio = (
crossbar
);
TBAYuCfUFX = (
leftside,
crossbar,
crossbar,
shiftstem,
leftside
);
ZvzwyrcwpS = (
leftside,
crossbar,
crossbar,
shiftstem,
leftside
);
bL0wwzlx16 = (
rightside
);
oAgH2tA6DJ = (
leftside,
crossbar,
crossbar,
shiftstem,
leftside
);
wQk2C8zPHh = (
crossbar
);
yHYqkMd7LI = (
leftside,
crossbar,
crossbar,
shiftstem,
leftside
);
zCZyMcW5ho = (
leftside,
crossbar,
crossbar,
shiftstem,
leftside
);
};
};
width = 148;
},
{
layerId = "7A9BD435-3083-4FB3-9FE1-50106B21C13B";
paths = (
{
closed = 1;
nodes = (
"87 0 LINE",
"87 440 LINE",
"988 440 LINE",
"988 471 LINE",
"87 471 LINE",
"87 718 LINE",
"1034 718 LINE",
"1034 517 LINE",
"1075 517 LINE",
"1075 750 LINE",
"46 750 LINE",
"46 0 LINE"
);
}
);
width = 1097;
},
{
layerId = "401C54E9-F42A-49C7-842E-99B3D4FBDAC0";
paths = (
{
closed = 1;
nodes = (
"519 0 LINE",
"519 333 LINE",
"1294 333 LINE",
"1294 470 LINE",
"519 470 LINE",
"519 594 LINE",
"1366 594 LINE",
"1366 594 LINE",
"1602 594 LINE",
"1602 750 LINE",
"79 750 LINE",
"79 0 LINE"
);
}
);
width = 1618;
},
{
layerId = "5B01A85C-72B1-477B-9F3C-4C3A665051AF";
paths = (
{
closed = 1;
nodes = (
"370 0 LINE",
"370 150 LINE",
"632 150 LINE",
"632 283 LINE",
"370 283 LINE",
"370 653 LINE",
"446 653 LINE",
"446 490 LINE",
"785 490 LINE",
"785 750 LINE",
"31 750 LINE",
"31 0 LINE"
);
}
);
width = 788;
},
{
layerId = "6A003782-5630-46D5-9AEF-173A49B0B076";
paths = (
{
closed = 1;
nodes = (
"51 0 LINE",
"51 244 LINE",
"123 244 LINE",
"123 266 LINE",
"51 266 LINE",
"51 728 LINE",
"107 728 LINE",
"107 557 LINE",
"138 557 LINE",
"138 750 LINE",
"20 750 LINE",
"20 0 LINE"
);
}
);
userData = {
com.schriftgestaltung.Glyphs.lastChange = "2019-04-28 05:35:59 +0000";
com.typemytype.robofont.pointLabels = {
0tk7G4orz6 = (
rightside
);
4cFHKQfHDt = (
leftside,
crossbar,
crossbar,
shiftstem,
leftside
);
F6QQD702pX = (
rightside
);
NUrIjqOB7J = (
rightside
);
NmB7yyQuio = (
crossbar
);
TBAYuCfUFX = (
leftside,
crossbar,
crossbar,
shiftstem,
leftside
);
ZvzwyrcwpS = (
leftside,
crossbar,
crossbar,
shiftstem,
leftside
);
bL0wwzlx16 = (
rightside
);
oAgH2tA6DJ = (
leftside,
crossbar,
crossbar,
shiftstem,
leftside
);
wQk2C8zPHh = (
crossbar
);
yHYqkMd7LI = (
leftside,
crossbar,
crossbar,
shiftstem,
leftside
);
zCZyMcW5ho = (
leftside,
crossbar,
crossbar,
shiftstem,
leftside
);
};
};
width = 148;
},
{
layerId = "9EF6E879-D021-4626-8F52-6D74284C4DC7";
paths = (
{
closed = 1;
nodes = (
"87 0 LINE",
"87 250 LINE",
"988 250 LINE",
"988 281 LINE",
"87 281 LINE",
"87 718 LINE",
"1034 718 LINE",
"1034 517 LINE",
"1075 517 LINE",
"1075 750 LINE",
"46 750 LINE",
"46 0 LINE"
);
}
);
width = 1097;
},
{
layerId = "FEE31BD6-05B9-4F93-BD72-F1214701600E";
paths = (
{
closed = 1;
nodes = (
"519 0 LINE",
"519 151 LINE",
"1294 151 LINE",
"1294 288 LINE",
"519 288 LINE",
"519 594 LINE",
"1366 594 LINE",
"1366 594 LINE",
"1602 594 LINE",
"1602 750 LINE",
"79 750 LINE",
"79 0 LINE"
);
}
);
width = 1618;
}
);
unicode = 0046;
},
{
glyphname = G;
lastChange = "2019-09-09 01:10:28 +0000";
layers = (
{
layerId = "41E2CF60-9A62-485C-A680-66BBCCBE3685";
paths = (
{
closed = 1;
nodes = (
"1820 0 LINE",
"1820 424 LINE",
"929 424 LINE",
"929 310 LINE",
"1380 310 LINE",
"1380 156 LINE",
"489 156 LINE",
"489 359 LINE",
"678 594 LINE",
"1380 594 LINE",
"1380 594 LINE",
"1810 594 LINE",
"1810 750 LINE",
"281 750 LINE",
"49 459 LINE",
"49 0 LINE"
);
}
);
width = 1876;
},
{
layerId = "C9BA7AB2-4C39-4898-B0E1-23BE521DA8C1";
paths = (
{
closed = 1;
nodes = (
"1181 0 LINE",
"1181 374 LINE",
"607 374 LINE",
"607 341 LINE",
"1140 341 LINE",
"1140 32 LINE",
"87 32 LINE",
"87 547 LINE",
"206 718 LINE",
"1142 718 LINE",
"1142 561 LINE",
"1183 561 LINE",
"1183 750 LINE",
"177 750 LINE",
"46 559 LINE",
"46 0 LINE"
);
}
);
width = 1224;
},
{
layerId = "1577B97C-DCC5-4AA4-842F-E9BB22E99E3C";
paths = (
{
closed = 1;
nodes = (
"136 0 LINE",
"136 365 LINE",
"71 365 LINE",
"71 343 LINE",
"105 343 LINE",
"105 22 LINE",
"51 22 LINE",
"51 649 LINE",
"79 728 LINE",
"107 728 LINE",
"107 557 LINE",
"138 557 LINE",
"138 750 LINE",
"59 750 LINE",
"20 650 LINE",
"20 0 LINE"
);
}
);
userData = {
com.schriftgestaltung.Glyphs.lastChange = "2019-04-28 11:53:33 +0000";
com.typemytype.robofont.pointLabels = {
03XIRquU5H = (
rightside,
crossbar,
shiftstem,
rightside,
rightside,
shiftdown,
rightside,
rightside,
rightside,
rightside,
rightside,
rightside,
rightside,
rightside,
rightside,
rightside,
rightside,
rightside,
rightside,
rightside,
rightside,
rightside,
rightside,
rightside,
crossbar,
rightside,
rightside,
rightside,
rightside,
rightside,
rightside,
rightside,
rightside,
rightside,
rightside,
rightside,
rightside,
rightside,
rightside,
rightside,
rightside,
rightside,
rightside,
rightside,
rightside,
crossbar,
rightside,
rightside,
shiftdown,
rightside,
rightside,
rightside,
rightside,
rightside,
rightside,
rightside,
rightside,
rightside,
rightside,
rightside,
rightside,
rightside,
rightside,
rightside,
rightside,
rightside,
rightside,
crossbar,
rightside,
rightside,
rightside,
rightside,
rightside,
rightside,
rightside,
rightside,
rightside,
rightside,
rightside,
rightside,
rightside,
rightside,
rightside,
rightside,
rightside,
rightside,
rightside,
leftside,
leftside,
leftside,
rightside,
crossbar,
rightside,
rightside,
shiftdown,
rightside,
rightside,
rightside,
rightside,
rightside,
rightside,
rightside,
rightside,
rightside,
rightside,
rightside,
rightside,
rightside,
rightside,
rightside,
rightside,
rightside,
rightside,
crossbar,
rightside,
rightside,
rightside,
rightside,
rightside,
rightside,
rightside,
rightside,
rightside,
rightside,
rightside,
rightside,
rightside,
rightside,
rightside,
rightside,
rightside,
rightside,
rightside
);
0C3ytxLmQy = (
rightside,
rightside,
rightside,
rightside,
rightside,
rightside,
rightside,
rightside
);
3nCTj46eZY = (
rightside,
crossbar,
rightside,
rightside,
shiftdown,
rightside,
rightside,
rightside,
rightside,
rightside,
rightside,
rightside,
rightside,
rightside,
rightside,
rightside,
rightside,
rightside,
rightside,
rightside,
rightside,
rightside,
rightside,
crossbar,
rightside,
rightside,
rightside,
rightside,
rightside,
rightside,
rightside,
rightside,
rightside,
rightside,
rightside,
rightside,
rightside,
rightside,
rightside,
rightside,
rightside,
rightside,
rightside
);
8B2JVN8ZLJ = (
rightside,
rightside,
rightside,
rightside,
rightside,
rightside,
rightside,
rightside
);
8rex52NyWa = (
rightside,
crossbar,
rightside,
rightside,
rightside,
rightside,
rightside,
rightside,
rightside,
rightside,
rightside,
rightside,
rightside,
rightside,
rightside,
rightside,
rightside,
rightside,
rightside,
rightside,
rightside
);
BK8t8NwvTJ = (
rightside,
crossbar,
shiftstem,
rightside,
rightside,
shiftdown,
rightside,
rightside,
rightside,
rightside,
rightside,
rightside,
rightside,
rightside,
rightside,
rightside,
rightside,
rightside,
rightside,
rightside,
rightside,
rightside,
rightside,
rightside,
crossbar,
rightside,
rightside,
rightside,
rightside,
rightside,
rightside,
rightside,
rightside,
rightside,
rightside,
rightside,
rightside,
rightside,
rightside,
rightside,
rightside,
rightside,
rightside,
rightside,
rightside,
crossbar,
rightside,
rightside,
shiftdown,
rightside,
rightside,
rightside,
rightside,
rightside,
rightside,
rightside,
rightside,
rightside,
rightside,
rightside,
rightside,
rightside,
rightside,
rightside,
rightside,
rightside,
rightside,
crossbar,
rightside,
rightside,
rightside,
rightside,
rightside,
rightside,
rightside,
rightside,
rightside,
rightside,
rightside,
rightside,
rightside,
rightside,
rightside,
rightside,
rightside,
rightside,
rightside,
leftside,
leftside,
leftside,
rightside,
crossbar,
rightside,
rightside,
shiftdown,
rightside,
rightside,
rightside,
rightside,
rightside,
rightside,
rightside,
rightside,
rightside,
rightside,
rightside,
rightside,
rightside,
rightside,
rightside,
rightside,
rightside,
rightside,
crossbar,
rightside,
rightside,
rightside,
rightside,
rightside,
rightside,
rightside,
rightside,
rightside,
rightside,
rightside,
rightside,
rightside,
rightside,
rightside,
rightside,
rightside,
rightside,
rightside
);
CxPWfAz72K = (
rightside,
crossbar,
rightside,
rightside,
shiftdown,
rightside,
rightside,
rightside,
rightside,
rightside,
rightside,
rightside,
rightside,
rightside,
rightside,
rightside,
rightside,
rightside,
rightside,
rightside,
rightside,
rightside,
rightside,
crossbar,
rightside,
rightside,
rightside,
rightside,
rightside,
rightside,
rightside,
rightside,
rightside,
rightside,
rightside,
rightside,
rightside,
rightside,
rightside,
rightside,
rightside,
rightside,
rightside
);
DkNGLrNVA4 = (
rightside,
crossbar,
rightside,
rightside,
rightside,
rightside,
rightside,
rightside,
rightside,
rightside,
rightside,
rightside,
rightside,
rightside,
rightside,
rightside,
rightside,
rightside,
rightside,
rightside,
rightside
);
HNKsGz9B03 = (
rightside,
crossbar,
rightside,
rightside,
shiftdown,
rightside,
rightside,
rightside,
rightside,
rightside,
rightside,
rightside,
rightside,
rightside,
rightside,
rightside,
rightside,
rightside,
rightside,
rightside,
rightside,
rightside,
rightside,
crossbar,
rightside,
rightside,
rightside,
rightside,
rightside,
rightside,
rightside,
rightside,
rightside,
rightside,
rightside,
rightside,
rightside,
rightside,
rightside,
rightside,
rightside,
rightside,
rightside
);
Mtb7ldvxRR = (
rightside,
rightside,
rightside,
rightside,
rightside,
rightside,
rightside,
rightside
);
PhwuN5iOza = (
rightside,
crossbar,
rightside,
rightside,
shiftdown,
rightside,
rightside,
rightside,
rightside,
rightside,
rightside,
rightside,
rightside,
rightside,
rightside,
rightside,
rightside,
rightside,
rightside,
rightside,
rightside,
rightside,
rightside,
crossbar,
rightside,
rightside,
rightside,
rightside,
rightside,
rightside,
rightside,
rightside,
rightside,
rightside,
rightside,
rightside,
rightside,
rightside,
rightside,
rightside,
rightside,
rightside,
rightside
);
gruPC0rm4E = (
rightside,
crossbar,
shiftstem,
rightside,
rightside,
shiftdown,
rightside,
rightside,
rightside,
rightside,
rightside,
rightside,
rightside,
rightside,
rightside,
rightside,
rightside,
rightside,
rightside,
rightside,
rightside,
rightside,
rightside,
rightside,
crossbar,
rightside,
rightside,
rightside,
rightside,
rightside,
rightside,
rightside,
rightside,
rightside,
rightside,
rightside,
rightside,
rightside,
rightside,
rightside,
rightside,
rightside,
rightside,
rightside,
rightside,
crossbar,
rightside,
rightside,
shiftdown,
rightside,
rightside,
rightside,
rightside,
rightside,
rightside,
rightside,
rightside,
rightside,
rightside,
rightside,
rightside,
rightside,
rightside,
rightside,
rightside,
rightside,
rightside,
crossbar,
rightside,
rightside,
rightside,
rightside,
rightside,
rightside,
rightside,
rightside,
rightside,
rightside,
rightside,
rightside,
rightside,
rightside,
rightside,
rightside,
rightside,
rightside,
rightside,
leftside,
leftside,
leftside,
rightside,
crossbar,
rightside,
rightside,
shiftdown,
rightside,
rightside,
rightside,
rightside,
rightside,
rightside,
rightside,
rightside,
rightside,
rightside,
rightside,
rightside,
rightside,
rightside,
rightside,
rightside,
rightside,
rightside,
crossbar,
rightside,
rightside,
rightside,
rightside,
rightside,
rightside,
rightside,
rightside,
rightside,
rightside,
rightside,
rightside,
rightside,
rightside,
rightside,
rightside,
rightside,
rightside,
rightside
);
gyWZd1V7bg = (
rightside,
rightside,
rightside,
rightside,
rightside,
rightside,
rightside,
rightside
);
oP4AYTo8BD = (
rightside,
rightside,
rightside,
rightside,
rightside,
rightside,
rightside,
rightside
);
p5qGxSYyHQ = (
rightside,
crossbar,
shiftstem,
rightside,
rightside,
shiftdown,
rightside,
rightside,
rightside,
rightside,
rightside,
rightside,
rightside,
rightside,
rightside,
rightside,
rightside,
rightside,
rightside,
rightside,
rightside,
rightside,
rightside,
rightside,
crossbar,
rightside,
rightside,
rightside,
rightside,
rightside,
rightside,
rightside,
rightside,
rightside,
rightside,
rightside,
rightside,
rightside,
rightside,
rightside,
rightside,
rightside,
rightside,
rightside,
rightside,
crossbar,
rightside,
rightside,
shiftdown,
rightside,
rightside,
rightside,
rightside,
rightside,
rightside,
rightside,
rightside,
rightside,
rightside,
rightside,
rightside,
rightside,
rightside,
rightside,
rightside,
rightside,
rightside,
crossbar,
rightside,
rightside,
rightside,
rightside,
rightside,
rightside,
rightside,
rightside,
rightside,
rightside,
rightside,
rightside,
rightside,
rightside,
rightside,
rightside,
rightside,
rightside,
rightside,
leftside,
leftside,
leftside,
rightside,
crossbar,
rightside,
rightside,
shiftdown,
rightside,
rightside,
rightside,
rightside,
rightside,
rightside,
rightside,
rightside,
rightside,
rightside,
rightside,
rightside,
rightside,
rightside,
rightside,
rightside,
rightside,
rightside,
crossbar,
rightside,
rightside,
rightside,
rightside,
rightside,
rightside,
rightside,
rightside,
rightside,
rightside,
rightside,
rightside,
rightside,
rightside,
rightside,
rightside,
rightside,
rightside,
rightside
);
q5MpLm6pYB = (
rightside,
crossbar,
shiftstem,
rightside,
rightside,
shiftdown,
rightside,
rightside,
rightside,
rightside,
rightside,
rightside,
rightside,
rightside,
rightside,
rightside,
rightside,
rightside,
rightside,
rightside,
rightside,
rightside,
rightside,
rightside,
crossbar,
rightside,
rightside,
rightside,
rightside,
rightside,
rightside,
rightside,
rightside,
rightside,
rightside,
rightside,
rightside,
rightside,
rightside,
rightside,
rightside,
rightside,
rightside,
rightside,
rightside,
crossbar,
rightside,
rightside,
shiftdown,
rightside,
rightside,
rightside,
rightside,
rightside,
rightside,
rightside,
rightside,
rightside,
rightside,
rightside,
rightside,
rightside,
rightside,
rightside,
rightside,
rightside,
rightside,
crossbar,
rightside,
rightside,
rightside,
rightside,
rightside,
rightside,
rightside,
rightside,
rightside,
rightside,
rightside,
rightside,
rightside,
rightside,
rightside,
rightside,
rightside,
rightside,
rightside,
leftside,
leftside,
leftside,
rightside,
crossbar,
rightside,
rightside,
shiftdown,
rightside,
rightside,
rightside,
rightside,
rightside,
rightside,
rightside,
rightside,
rightside,
rightside,
rightside,
rightside,
rightside,
rightside,
rightside,
rightside,
rightside,
rightside,
crossbar,
rightside,
rightside,
rightside,
rightside,
rightside,
rightside,
rightside,
rightside,
rightside,
rightside,
rightside,
rightside,
rightside,
rightside,
rightside,
rightside,
rightside,
rightside,
rightside
);
sayqGOMtzs = (
rightside,
crossbar,
shiftstem,
rightside,
rightside,
shiftdown,
rightside,
rightside,
rightside,
rightside,
rightside,
rightside,
rightside,
rightside,
rightside,
rightside,
rightside,
rightside,
rightside,
rightside,
rightside,
rightside,
rightside,
rightside,
crossbar,
rightside,
rightside,
rightside,
rightside,
rightside,
rightside,
rightside,
rightside,
rightside,
rightside,
rightside,
rightside,
rightside,
rightside,
rightside,
rightside,
rightside,
rightside,
rightside,
rightside,
crossbar,
rightside,
rightside,
shiftdown,
rightside,
rightside,
rightside,
rightside,
rightside,
rightside,
rightside,
rightside,
rightside,
rightside,
rightside,
rightside,
rightside,
rightside,
rightside,
rightside,
rightside,
rightside,
crossbar,
rightside,
rightside,
rightside,
rightside,
rightside,
rightside,
rightside,
rightside,
rightside,
rightside,
rightside,
rightside,
rightside,
rightside,
rightside,
rightside,
rightside,
rightside,
rightside,
leftside,
leftside,
leftside,
rightside,
crossbar,
rightside,
rightside,
shiftdown,
rightside,
rightside,
rightside,
rightside,
rightside,
rightside,
rightside,
rightside,
rightside,
rightside,
rightside,
rightside,
rightside,
rightside,
rightside,
rightside,
rightside,
rightside,
crossbar,
rightside,
rightside,
rightside,
rightside,
rightside,
rightside,
rightside,
rightside,
rightside,
rightside,
rightside,
rightside,
rightside,
rightside,
rightside,
rightside,
rightside,
rightside,
rightside
);
};
};
width = 153;
},
{
layerId = "628C7BDB-7DBE-4EE3-879C-693AF95326D4";
paths = (
{
closed = 1;
nodes = (
"805 0 LINE",
"805 401 LINE",
"411 401 LINE",
"411 284 LINE",
"466 284 LINE",
"466 97 LINE",
"365 97 LINE",
"365 579 LINE",
"394 653 LINE",
"458 653 LINE",
"458 492 LINE",
"797 492 LINE",
"797 750 LINE",
"89 750 LINE",
"26 587 LINE",
"26 0 LINE"
);
}
);
width = 831;
},
{
layerId = "B41498C8-9825-4C4A-856B-8BEA93F27BCF";
paths = (
{
closed = 1;
nodes = (
"805 0 LINE",
"805 461 LINE",
"411 461 LINE",
"411 344 LINE",
"466 344 LINE",
"466 97 LINE",
"365 97 LINE",
"365 579 LINE",
"394 653 LINE",
"458 653 LINE",
"458 492 LINE",
"797 492 LINE",
"797 750 LINE",
"89 750 LINE",
"26 587 LINE",
"26 0 LINE"
);
}
);
width = 831;
},
{
layerId = "7F3C6EE5-2603-4259-9F13-C30BB9E194E1";
paths = (
{
closed = 1;
nodes = (
"136 0 LINE",
"136 469 LINE",
"71 469 LINE",
"71 447 LINE",
"105 447 LINE",
"105 22 LINE",
"51 22 LINE",
"51 649 LINE",
"79 728 LINE",
"107 728 LINE",
"107 557 LINE",
"138 557 LINE",
"138 750 LINE",
"59 750 LINE",
"20 650 LINE",
"20 0 LINE"
);
}
);
userData = {
com.schriftgestaltung.Glyphs.lastChange = "2019-04-28 11:53:33 +0000";
com.typemytype.robofont.pointLabels = {
03XIRquU5H = (
rightside,
crossbar,
shiftstem,
rightside,
rightside,
shiftdown,
rightside,
rightside,
rightside,
rightside,
rightside,
rightside,
rightside,
rightside,
rightside,
rightside,
rightside,
rightside,
rightside,
rightside,
rightside,
rightside,
rightside,
rightside,
crossbar,
rightside,
rightside,
rightside,
rightside,
rightside,
rightside,
rightside,
rightside,
rightside,
rightside,
rightside,
rightside,
rightside,
rightside,
rightside,
rightside,
rightside,
rightside,
rightside,
rightside,
crossbar,
rightside,
rightside,
shiftdown,
rightside,
rightside,
rightside,
rightside,
rightside,
rightside,
rightside,
rightside,
rightside,
rightside,
rightside,
rightside,
rightside,
rightside,
rightside,
rightside,
rightside,
rightside,
crossbar,
rightside,
rightside,
rightside,
rightside,
rightside,
rightside,
rightside,
rightside,
rightside,
rightside,
rightside,
rightside,
rightside,
rightside,
rightside,
rightside,
rightside,
rightside,
rightside,
leftside,
leftside,
leftside,
rightside,
crossbar,
rightside,
rightside,
shiftdown,
rightside,
rightside,
rightside,
rightside,
rightside,
rightside,
rightside,
rightside,
rightside,
rightside,
rightside,
rightside,
rightside,
rightside,
rightside,
rightside,
rightside,
rightside,
crossbar,
rightside,
rightside,
rightside,
rightside,
rightside,
rightside,
rightside,
rightside,
rightside,
rightside,
rightside,
rightside,
rightside,
rightside,
rightside,
rightside,
rightside,
rightside,
rightside
);
0C3ytxLmQy = (
rightside,
rightside,
rightside,
rightside,
rightside,
rightside,
rightside,
rightside
);
3nCTj46eZY = (
rightside,
crossbar,
rightside,
rightside,
shiftdown,
rightside,
rightside,
rightside,
rightside,
rightside,
rightside,
rightside,
rightside,
rightside,
rightside,
rightside,
rightside,
rightside,
rightside,
rightside,
rightside,
rightside,
rightside,
crossbar,
rightside,
rightside,
rightside,
rightside,
rightside,
rightside,
rightside,
rightside,
rightside,
rightside,
rightside,
rightside,
rightside,
rightside,
rightside,
rightside,
rightside,
rightside,
rightside
);
8B2JVN8ZLJ = (
rightside,
rightside,
rightside,
rightside,
rightside,
rightside,
rightside,
rightside
);
8rex52NyWa = (
rightside,
crossbar,
rightside,
rightside,
rightside,
rightside,
rightside,
rightside,
rightside,
rightside,
rightside,
rightside,
rightside,
rightside,
rightside,
rightside,
rightside,
rightside,
rightside,
rightside,
rightside
);
BK8t8NwvTJ = (
rightside,
crossbar,
shiftstem,
rightside,
rightside,
shiftdown,
rightside,
rightside,
rightside,
rightside,
rightside,
rightside,
rightside,
rightside,
rightside,
rightside,
rightside,
rightside,
rightside,
rightside,
rightside,
rightside,
rightside,
rightside,
crossbar,
rightside,
rightside,
rightside,
rightside,
rightside,
rightside,
rightside,
rightside,
rightside,
rightside,
rightside,
rightside,
rightside,
rightside,
rightside,
rightside,
rightside,
rightside,
rightside,
rightside,
crossbar,
rightside,
rightside,
shiftdown,
rightside,
rightside,
rightside,
rightside,
rightside,
rightside,
rightside,
rightside,
rightside,
rightside,
rightside,
rightside,
rightside,
rightside,
rightside,
rightside,
rightside,
rightside,
crossbar,
rightside,
rightside,
rightside,
rightside,
rightside,
rightside,
rightside,
rightside,
rightside,
rightside,
rightside,
rightside,
rightside,
rightside,
rightside,
rightside,
rightside,
rightside,
rightside,
leftside,
leftside,
leftside,
rightside,
crossbar,
rightside,
rightside,
shiftdown,
rightside,
rightside,
rightside,
rightside,
rightside,
rightside,
rightside,
rightside,
rightside,
rightside,
rightside,
rightside,
rightside,
rightside,
rightside,
rightside,
rightside,
rightside,
crossbar,
rightside,
rightside,
rightside,
rightside,
rightside,
rightside,
rightside,
rightside,
rightside,
rightside,
rightside,
rightside,
rightside,
rightside,
rightside,
rightside,
rightside,
rightside,
rightside
);
CxPWfAz72K = (
rightside,
crossbar,
rightside,
rightside,
shiftdown,
rightside,
rightside,
rightside,
rightside,
rightside,
rightside,
rightside,
rightside,
rightside,
rightside,
rightside,
rightside,
rightside,
rightside,
rightside,
rightside,
rightside,
rightside,
crossbar,
rightside,
rightside,
rightside,
rightside,
rightside,
rightside,
rightside,
rightside,
rightside,
rightside,
rightside,
rightside,
rightside,
rightside,
rightside,
rightside,
rightside,
rightside,
rightside
);
DkNGLrNVA4 = (
rightside,
crossbar,
rightside,
rightside,
rightside,
rightside,
rightside,
rightside,
rightside,
rightside,
rightside,
rightside,
rightside,
rightside,
rightside,
rightside,
rightside,
rightside,
rightside,
rightside,
rightside
);
HNKsGz9B03 = (
rightside,
crossbar,
rightside,
rightside,
shiftdown,
rightside,
rightside,
rightside,
rightside,
rightside,
rightside,
rightside,
rightside,
rightside,
rightside,
rightside,
rightside,
rightside,
rightside,
rightside,
rightside,
rightside,
rightside,
crossbar,
rightside,
rightside,
rightside,
rightside,
rightside,
rightside,
rightside,
rightside,
rightside,
rightside,
rightside,
rightside,
rightside,
rightside,
rightside,
rightside,
rightside,
rightside,
rightside
);
Mtb7ldvxRR = (
rightside,
rightside,
rightside,
rightside,
rightside,
rightside,
rightside,
rightside
);
PhwuN5iOza = (
rightside,
crossbar,
rightside,
rightside,
shiftdown,
rightside,
rightside,
rightside,
rightside,
rightside,
rightside,
rightside,
rightside,
rightside,
rightside,
rightside,
rightside,
rightside,
rightside,
rightside,
rightside,
rightside,
rightside,
crossbar,
rightside,
rightside,
rightside,
rightside,
rightside,
rightside,
rightside,
rightside,
rightside,
rightside,
rightside,
rightside,
rightside,
rightside,
rightside,
rightside,
rightside,
rightside,
rightside
);
gruPC0rm4E = (
rightside,
crossbar,
shiftstem,
rightside,
rightside,
shiftdown,
rightside,
rightside,
rightside,
rightside,
rightside,
rightside,
rightside,
rightside,
rightside,
rightside,
rightside,
rightside,
rightside,
rightside,
rightside,
rightside,
rightside,
rightside,
crossbar,
rightside,
rightside,
rightside,
rightside,
rightside,
rightside,
rightside,
rightside,
rightside,
rightside,
rightside,
rightside,
rightside,
rightside,
rightside,
rightside,
rightside,
rightside,
rightside,
rightside,
crossbar,
rightside,
rightside,
shiftdown,
rightside,
rightside,
rightside,
rightside,
rightside,
rightside,
rightside,
rightside,
rightside,
rightside,
rightside,
rightside,
rightside,
rightside,
rightside,
rightside,
rightside,
rightside,
crossbar,
rightside,
rightside,
rightside,
rightside,
rightside,
rightside,
rightside,
rightside,
rightside,
rightside,
rightside,
rightside,
rightside,
rightside,
rightside,
rightside,
rightside,
rightside,
rightside,
leftside,
leftside,
leftside,
rightside,
crossbar,
rightside,
rightside,
shiftdown,
rightside,
rightside,
rightside,
rightside,
rightside,
rightside,
rightside,
rightside,
rightside,
rightside,
rightside,
rightside,
rightside,
rightside,
rightside,
rightside,
rightside,
rightside,
crossbar,
rightside,
rightside,
rightside,
rightside,
rightside,
rightside,
rightside,
rightside,
rightside,
rightside,
rightside,
rightside,
rightside,
rightside,
rightside,
rightside,
rightside,
rightside,
rightside
);
gyWZd1V7bg = (
rightside,
rightside,
rightside,
rightside,
rightside,
rightside,
rightside,
rightside
);
oP4AYTo8BD = (
rightside,
rightside,
rightside,
rightside,
rightside,
rightside,
rightside,
rightside
);
p5qGxSYyHQ = (
rightside,
crossbar,
shiftstem,
rightside,
rightside,
shiftdown,
rightside,
rightside,
rightside,
rightside,
rightside,
rightside,
rightside,
rightside,
rightside,
rightside,
rightside,
rightside,
rightside,
rightside,
rightside,
rightside,
rightside,
rightside,
crossbar,
rightside,
rightside,
rightside,
rightside,
rightside,
rightside,
rightside,
rightside,
rightside,
rightside,
rightside,
rightside,
rightside,
rightside,
rightside,
rightside,
rightside,
rightside,
rightside,
rightside,
crossbar,
rightside,
rightside,
shiftdown,
rightside,
rightside,
rightside,
rightside,
rightside,
rightside,
rightside,
rightside,
rightside,
rightside,
rightside,
rightside,
rightside,
rightside,
rightside,
rightside,
rightside,
rightside,
crossbar,
rightside,
rightside,
rightside,
rightside,
rightside,
rightside,
rightside,
rightside,
rightside,
rightside,
rightside,
rightside,
rightside,
rightside,
rightside,
rightside,
rightside,
rightside,
rightside,
leftside,
leftside,
leftside,
rightside,
crossbar,
rightside,
rightside,
shiftdown,
rightside,
rightside,
rightside,
rightside,
rightside,
rightside,
rightside,
rightside,
rightside,
rightside,
rightside,
rightside,
rightside,
rightside,
rightside,
rightside,
rightside,
rightside,
crossbar,
rightside,
rightside,
rightside,
rightside,
rightside,
rightside,
rightside,
rightside,
rightside,
rightside,
rightside,
rightside,
rightside,
rightside,
rightside,
rightside,
rightside,
rightside,
rightside
);
q5MpLm6pYB = (
rightside,
crossbar,
shiftstem,
rightside,
rightside,
shiftdown,
rightside,
rightside,
rightside,
rightside,
rightside,
rightside,
rightside,
rightside,
rightside,
rightside,
rightside,
rightside,
rightside,
rightside,
rightside,
rightside,
rightside,
rightside,
crossbar,
rightside,
rightside,
rightside,
rightside,
rightside,
rightside,
rightside,
rightside,
rightside,
rightside,
rightside,
rightside,
rightside,
rightside,
rightside,
rightside,
rightside,
rightside,
rightside,
rightside,
crossbar,
rightside,
rightside,
shiftdown,
rightside,
rightside,
rightside,
rightside,
rightside,
rightside,
rightside,
rightside,
rightside,
rightside,
rightside,
rightside,
rightside,
rightside,
rightside,
rightside,
rightside,
rightside,
crossbar,
rightside,
rightside,
rightside,
rightside,
rightside,
rightside,
rightside,
rightside,
rightside,
rightside,
rightside,
rightside,
rightside,
rightside,
rightside,
rightside,
rightside,
rightside,
rightside,
leftside,
leftside,
leftside,
rightside,
crossbar,
rightside,
rightside,
shiftdown,
rightside,
rightside,
rightside,
rightside,
rightside,
rightside,
rightside,
rightside,
rightside,
rightside,
rightside,
rightside,
rightside,
rightside,
rightside,
rightside,
rightside,
rightside,
crossbar,
rightside,
rightside,
rightside,
rightside,
rightside,
rightside,
rightside,
rightside,
rightside,
rightside,
rightside,
rightside,
rightside,
rightside,
rightside,
rightside,
rightside,
rightside,
rightside
);
sayqGOMtzs = (
rightside,
crossbar,
shiftstem,
rightside,
rightside,
shiftdown,
rightside,
rightside,
rightside,
rightside,
rightside,
rightside,
rightside,
rightside,
rightside,
rightside,
rightside,
rightside,
rightside,
rightside,
rightside,
rightside,
rightside,
rightside,
crossbar,
rightside,
rightside,
rightside,
rightside,
rightside,
rightside,
rightside,
rightside,
rightside,
rightside,
rightside,
rightside,
rightside,
rightside,
rightside,
rightside,
rightside,
rightside,
rightside,
rightside,
crossbar,
rightside,
rightside,
shiftdown,
rightside,
rightside,
rightside,
rightside,
rightside,
rightside,
rightside,
rightside,
rightside,
rightside,
rightside,
rightside,
rightside,
rightside,
rightside,
rightside,
rightside,
rightside,
crossbar,
rightside,
rightside,
rightside,
rightside,
rightside,
rightside,
rightside,
rightside,
rightside,
rightside,
rightside,
rightside,
rightside,
rightside,
rightside,
rightside,
rightside,
rightside,
rightside,
leftside,
leftside,
leftside,
rightside,
crossbar,
rightside,
rightside,
shiftdown,
rightside,
rightside,
rightside,
rightside,
rightside,
rightside,
rightside,
rightside,
rightside,
rightside,
rightside,
rightside,
rightside,
rightside,
rightside,
rightside,
rightside,
rightside,
crossbar,
rightside,
rightside,
rightside,
rightside,
rightside,
rightside,
rightside,
rightside,
rightside,
rightside,
rightside,
rightside,
rightside,
rightside,
rightside,
rightside,
rightside,
rightside,
rightside
);
};
};
width = 153;
},
{
layerId = "7A9BD435-3083-4FB3-9FE1-50106B21C13B";
paths = (
{
closed = 1;
nodes = (
"1181 0 LINE",
"1181 478 LINE",
"607 478 LINE",
"607 445 LINE",
"1140 445 LINE",
"1140 32 LINE",
"87 32 LINE",
"87 547 LINE",
"206 718 LINE",
"1142 718 LINE",
"1142 561 LINE",
"1183 561 LINE",
"1183 750 LINE",
"177 750 LINE",
"46 559 LINE",
"46 0 LINE"
);
}
);
width = 1224;
},
{
layerId = "401C54E9-F42A-49C7-842E-99B3D4FBDAC0";
paths = (
{
closed = 1;
nodes = (
"1820 0 LINE",
"1820 506 LINE",
"929 506 LINE",
"929 392 LINE",
"1380 392 LINE",
"1380 156 LINE",
"489 156 LINE",
"489 359 LINE",
"678 594 LINE",
"1380 594 LINE",
"1380 594 LINE",
"1810 594 LINE",
"1810 750 LINE",
"281 750 LINE",
"49 459 LINE",
"49 0 LINE"
);
}
);
width = 1876;
},
{
layerId = "5B01A85C-72B1-477B-9F3C-4C3A665051AF";
paths = (
{
closed = 1;
nodes = (
"805 0 LINE",
"805 314 LINE",
"411 314 LINE",
"411 197 LINE",
"466 197 LINE",
"466 97 LINE",
"365 97 LINE",
"365 579 LINE",
"394 653 LINE",
"458 653 LINE",
"458 492 LINE",
"797 492 LINE",
"797 750 LINE",
"89 750 LINE",
"26 587 LINE",
"26 0 LINE"
);
}
);
width = 831;
},
{
layerId = "6A003782-5630-46D5-9AEF-173A49B0B076";
paths = (
{
closed = 1;
nodes = (
"136 0 LINE",
"136 235 LINE",
"71 235 LINE",
"71 213 LINE",
"105 213 LINE",
"105 22 LINE",
"51 22 LINE",
"51 649 LINE",
"79 728 LINE",
"107 728 LINE",
"107 557 LINE",
"138 557 LINE",
"138 750 LINE",
"59 750 LINE",
"20 650 LINE",
"20 0 LINE"
);
}
);
userData = {
com.schriftgestaltung.Glyphs.lastChange = "2019-04-28 11:53:33 +0000";
com.typemytype.robofont.pointLabels = {
03XIRquU5H = (
rightside,
crossbar,
shiftstem,
rightside,
rightside,
shiftdown,
rightside,
rightside,
rightside,
rightside,
rightside,
rightside,
rightside,
rightside,
rightside,
rightside,
rightside,
rightside,
rightside,
rightside,
rightside,
rightside,
rightside,
rightside,
crossbar,
rightside,
rightside,
rightside,
rightside,
rightside,
rightside,
rightside,
rightside,
rightside,
rightside,
rightside,
rightside,
rightside,
rightside,
rightside,
rightside,
rightside,
rightside,
rightside,
rightside,
crossbar,
rightside,
rightside,
shiftdown,
rightside,
rightside,
rightside,
rightside,
rightside,
rightside,
rightside,
rightside,
rightside,
rightside,
rightside,
rightside,
rightside,
rightside,
rightside,
rightside,
rightside,
rightside,
crossbar,
rightside,
rightside,
rightside,
rightside,
rightside,
rightside,
rightside,
rightside,
rightside,
rightside,
rightside,
rightside,
rightside,
rightside,
rightside,
rightside,
rightside,
rightside,
rightside,
leftside,
leftside,
leftside,
rightside,
crossbar,
rightside,
rightside,
shiftdown,
rightside,
rightside,
rightside,
rightside,
rightside,
rightside,
rightside,
rightside,
rightside,
rightside,
rightside,
rightside,
rightside,
rightside,
rightside,
rightside,
rightside,
rightside,
crossbar,
rightside,
rightside,
rightside,
rightside,
rightside,
rightside,
rightside,
rightside,
rightside,
rightside,
rightside,
rightside,
rightside,
rightside,
rightside,
rightside,
rightside,
rightside,
rightside
);
0C3ytxLmQy = (
rightside,
rightside,
rightside,
rightside,
rightside,
rightside,
rightside,
rightside
);
3nCTj46eZY = (
rightside,
crossbar,
rightside,
rightside,
shiftdown,
rightside,
rightside,
rightside,
rightside,
rightside,
rightside,
rightside,
rightside,
rightside,
rightside,
rightside,
rightside,
rightside,
rightside,
rightside,
rightside,
rightside,
rightside,
crossbar,
rightside,
rightside,
rightside,
rightside,
rightside,
rightside,
rightside,
rightside,
rightside,
rightside,
rightside,
rightside,
rightside,
rightside,
rightside,
rightside,
rightside,
rightside,
rightside
);
8B2JVN8ZLJ = (
rightside,
rightside,
rightside,
rightside,
rightside,
rightside,
rightside,
rightside
);
8rex52NyWa = (
rightside,
crossbar,
rightside,
rightside,
rightside,
rightside,
rightside,
rightside,
rightside,
rightside,
rightside,
rightside,
rightside,
rightside,
rightside,
rightside,
rightside,
rightside,
rightside,
rightside,
rightside
);
BK8t8NwvTJ = (
rightside,
crossbar,
shiftstem,
rightside,
rightside,
shiftdown,
rightside,
rightside,
rightside,
rightside,
rightside,
rightside,
rightside,
rightside,
rightside,
rightside,
rightside,
rightside,
rightside,
rightside,
rightside,
rightside,
rightside,
rightside,
crossbar,
rightside,
rightside,
rightside,
rightside,
rightside,
rightside,
rightside,
rightside,
rightside,
rightside,
rightside,
rightside,
rightside,
rightside,
rightside,
rightside,
rightside,
rightside,
rightside,
rightside,
crossbar,
rightside,
rightside,
shiftdown,
rightside,
rightside,
rightside,
rightside,
rightside,
rightside,
rightside,
rightside,
rightside,
rightside,
rightside,
rightside,
rightside,
rightside,
rightside,
rightside,
rightside,
rightside,
crossbar,
rightside,
rightside,
rightside,
rightside,
rightside,
rightside,
rightside,
rightside,
rightside,
rightside,
rightside,
rightside,
rightside,
rightside,
rightside,
rightside,
rightside,
rightside,
rightside,
leftside,
leftside,
leftside,
rightside,
crossbar,
rightside,
rightside,
shiftdown,
rightside,
rightside,
rightside,
rightside,
rightside,
rightside,
rightside,
rightside,
rightside,
rightside,
rightside,
rightside,
rightside,
rightside,
rightside,
rightside,
rightside,
rightside,
crossbar,
rightside,
rightside,
rightside,
rightside,
rightside,
rightside,
rightside,
rightside,
rightside,
rightside,
rightside,
rightside,
rightside,
rightside,
rightside,
rightside,
rightside,
rightside,
rightside
);
CxPWfAz72K = (
rightside,
crossbar,
rightside,
rightside,
shiftdown,
rightside,
rightside,
rightside,
rightside,
rightside,
rightside,
rightside,
rightside,
rightside,
rightside,
rightside,
rightside,
rightside,
rightside,
rightside,
rightside,
rightside,
rightside,
crossbar,
rightside,
rightside,
rightside,
rightside,
rightside,
rightside,
rightside,
rightside,
rightside,
rightside,
rightside,
rightside,
rightside,
rightside,
rightside,
rightside,
rightside,
rightside,
rightside
);
DkNGLrNVA4 = (
rightside,
crossbar,
rightside,
rightside,
rightside,
rightside,
rightside,
rightside,
rightside,
rightside,
rightside,
rightside,
rightside,
rightside,
rightside,
rightside,
rightside,
rightside,
rightside,
rightside,
rightside
);
HNKsGz9B03 = (
rightside,
crossbar,
rightside,
rightside,
shiftdown,
rightside,
rightside,
rightside,
rightside,
rightside,
rightside,
rightside,
rightside,
rightside,
rightside,
rightside,
rightside,
rightside,
rightside,
rightside,
rightside,
rightside,
rightside,
crossbar,
rightside,
rightside,
rightside,
rightside,
rightside,
rightside,
rightside,
rightside,
rightside,
rightside,
rightside,
rightside,
rightside,
rightside,
rightside,
rightside,
rightside,
rightside,
rightside
);
Mtb7ldvxRR = (
rightside,
rightside,
rightside,
rightside,
rightside,
rightside,
rightside,
rightside
);
PhwuN5iOza = (
rightside,
crossbar,
rightside,
rightside,
shiftdown,
rightside,
rightside,
rightside,
rightside,
rightside,
rightside,
rightside,
rightside,
rightside,
rightside,
rightside,
rightside,
rightside,
rightside,
rightside,
rightside,
rightside,
rightside,
crossbar,
rightside,
rightside,
rightside,
rightside,
rightside,
rightside,
rightside,
rightside,
rightside,
rightside,
rightside,
rightside,
rightside,
rightside,
rightside,
rightside,
rightside,
rightside,
rightside
);
gruPC0rm4E = (
rightside,
crossbar,
shiftstem,
rightside,
rightside,
shiftdown,
rightside,
rightside,
rightside,
rightside,
rightside,
rightside,
rightside,
rightside,
rightside,
rightside,
rightside,
rightside,
rightside,
rightside,
rightside,
rightside,
rightside,
rightside,
crossbar,
rightside,
rightside,
rightside,
rightside,
rightside,
rightside,
rightside,
rightside,
rightside,
rightside,
rightside,
rightside,
rightside,
rightside,
rightside,
rightside,
rightside,
rightside,
rightside,
rightside,
crossbar,
rightside,
rightside,
shiftdown,
rightside,
rightside,
rightside,
rightside,
rightside,
rightside,
rightside,
rightside,
rightside,
rightside,
rightside,
rightside,
rightside,
rightside,
rightside,
rightside,
rightside,
rightside,
crossbar,
rightside,
rightside,
rightside,
rightside,
rightside,
rightside,
rightside,
rightside,
rightside,
rightside,
rightside,
rightside,
rightside,
rightside,
rightside,
rightside,
rightside,
rightside,
rightside,
leftside,
leftside,
leftside,
rightside,
crossbar,
rightside,
rightside,
shiftdown,
rightside,
rightside,
rightside,
rightside,
rightside,
rightside,
rightside,
rightside,
rightside,
rightside,
rightside,
rightside,
rightside,
rightside,
rightside,
rightside,
rightside,
rightside,
crossbar,
rightside,
rightside,
rightside,
rightside,
rightside,
rightside,
rightside,
rightside,
rightside,
rightside,
rightside,
rightside,
rightside,
rightside,
rightside,
rightside,
rightside,
rightside,
rightside
);
gyWZd1V7bg = (
rightside,
rightside,
rightside,
rightside,
rightside,
rightside,
rightside,
rightside
);
oP4AYTo8BD = (
rightside,
rightside,
rightside,
rightside,
rightside,
rightside,
rightside,
rightside
);
p5qGxSYyHQ = (
rightside,
crossbar,
shiftstem,
rightside,
rightside,
shiftdown,
rightside,
rightside,
rightside,
rightside,
rightside,
rightside,
rightside,
rightside,
rightside,
rightside,
rightside,
rightside,
rightside,
rightside,
rightside,
rightside,
rightside,
rightside,
crossbar,
rightside,
rightside,
rightside,
rightside,
rightside,
rightside,
rightside,
rightside,
rightside,
rightside,
rightside,
rightside,
rightside,
rightside,
rightside,
rightside,
rightside,
rightside,
rightside,
rightside,
crossbar,
rightside,
rightside,
shiftdown,
rightside,
rightside,
rightside,
rightside,
rightside,
rightside,
rightside,
rightside,
rightside,
rightside,
rightside,
rightside,
rightside,
rightside,
rightside,
rightside,
rightside,
rightside,
crossbar,
rightside,
rightside,
rightside,
rightside,
rightside,
rightside,
rightside,
rightside,
rightside,
rightside,
rightside,
rightside,
rightside,
rightside,
rightside,
rightside,
rightside,
rightside,
rightside,
leftside,
leftside,
leftside,
rightside,
crossbar,
rightside,
rightside,
shiftdown,
rightside,
rightside,
rightside,
rightside,
rightside,
rightside,
rightside,
rightside,
rightside,
rightside,
rightside,
rightside,
rightside,
rightside,
rightside,
rightside,
rightside,
rightside,
crossbar,
rightside,
rightside,
rightside,
rightside,
rightside,
rightside,
rightside,
rightside,
rightside,
rightside,
rightside,
rightside,
rightside,
rightside,
rightside,
rightside,
rightside,
rightside,
rightside
);
q5MpLm6pYB = (
rightside,
crossbar,
shiftstem,
rightside,
rightside,
shiftdown,
rightside,
rightside,
rightside,
rightside,
rightside,
rightside,
rightside,
rightside,
rightside,
rightside,
rightside,
rightside,
rightside,
rightside,
rightside,
rightside,
rightside,
rightside,
crossbar,
rightside,
rightside,
rightside,
rightside,
rightside,
rightside,
rightside,
rightside,
rightside,
rightside,
rightside,
rightside,
rightside,
rightside,
rightside,
rightside,
rightside,
rightside,
rightside,
rightside,
crossbar,
rightside,
rightside,
shiftdown,
rightside,
rightside,
rightside,
rightside,
rightside,
rightside,
rightside,
rightside,
rightside,
rightside,
rightside,
rightside,
rightside,
rightside,
rightside,
rightside,
rightside,
rightside,
crossbar,
rightside,
rightside,
rightside,
rightside,
rightside,
rightside,
rightside,
rightside,
rightside,
rightside,
rightside,
rightside,
rightside,
rightside,
rightside,
rightside,
rightside,
rightside,
rightside,
leftside,
leftside,
leftside,
rightside,
crossbar,
rightside,
rightside,
shiftdown,
rightside,
rightside,
rightside,
rightside,
rightside,
rightside,
rightside,
rightside,
rightside,
rightside,
rightside,
rightside,
rightside,
rightside,
rightside,
rightside,
rightside,
rightside,
crossbar,
rightside,
rightside,
rightside,
rightside,
rightside,
rightside,
rightside,
rightside,
rightside,
rightside,
rightside,
rightside,
rightside,
rightside,
rightside,
rightside,
rightside,
rightside,
rightside
);
sayqGOMtzs = (
rightside,
crossbar,
shiftstem,
rightside,
rightside,
shiftdown,
rightside,
rightside,
rightside,
rightside,
rightside,
rightside,
rightside,
rightside,
rightside,
rightside,
rightside,
rightside,
rightside,
rightside,
rightside,
rightside,
rightside,
rightside,
crossbar,
rightside,
rightside,
rightside,
rightside,
rightside,
rightside,
rightside,
rightside,
rightside,
rightside,
rightside,
rightside,
rightside,
rightside,
rightside,
rightside,
rightside,
rightside,
rightside,
rightside,
crossbar,
rightside,
rightside,
shiftdown,
rightside,
rightside,
rightside,
rightside,
rightside,
rightside,
rightside,
rightside,
rightside,
rightside,
rightside,
rightside,
rightside,
rightside,
rightside,
rightside,
rightside,
rightside,
crossbar,
rightside,
rightside,
rightside,
rightside,
rightside,
rightside,
rightside,
rightside,
rightside,
rightside,
rightside,
rightside,
rightside,
rightside,
rightside,
rightside,
rightside,
rightside,
rightside,
leftside,
leftside,
leftside,
rightside,
crossbar,
rightside,
rightside,
shiftdown,
rightside,
rightside,
rightside,
rightside,
rightside,
rightside,
rightside,
rightside,
rightside,
rightside,
rightside,
rightside,
rightside,
rightside,
rightside,
rightside,
rightside,
rightside,
crossbar,
rightside,
rightside,
rightside,
rightside,
rightside,
rightside,
rightside,
rightside,
rightside,
rightside,
rightside,
rightside,
rightside,
rightside,
rightside,
rightside,
rightside,
rightside,
rightside
);
};
};
width = 153;
},
{
layerId = "9EF6E879-D021-4626-8F52-6D74284C4DC7";
paths = (
{
closed = 1;
nodes = (
"1181 0 LINE",
"1181 276 LINE",
"607 276 LINE",
"607 243 LINE",
"1140 243 LINE",
"1140 32 LINE",
"87 32 LINE",
"87 547 LINE",
"206 718 LINE",
"1142 718 LINE",
"1142 561 LINE",
"1183 561 LINE",
"1183 750 LINE",
"177 750 LINE",
"46 559 LINE",
"46 0 LINE"
);
}
);
width = 1224;
},
{
layerId = "FEE31BD6-05B9-4F93-BD72-F1214701600E";
paths = (
{
closed = 1;
nodes = (
"1820 0 LINE",
"1820 334 LINE",
"929 334 LINE",
"929 220 LINE",
"1380 220 LINE",
"1380 156 LINE",
"489 156 LINE",
"489 359 LINE",
"678 594 LINE",
"1380 594 LINE",
"1380 594 LINE",
"1810 594 LINE",
"1810 750 LINE",
"281 750 LINE",
"49 459 LINE",
"49 0 LINE"
);
}
);
width = 1876;
}
);
rightMetricsKey = "-160t";
unicode = 0047;
},
{
glyphname = H;
lastChange = "2019-09-09 01:10:33 +0000";
layers = (
{
layerId = "41E2CF60-9A62-485C-A680-66BBCCBE3685";
paths = (
{
closed = 1;
nodes = (
"489 0 LINE",
"489 288 LINE",
"1377 288 LINE",
"1377 0 LINE",
"1816 0 LINE",
"1816 750 LINE",
"1377 750 LINE",
"1377 448 LINE",
"489 448 LINE",
"489 750 LINE",
"49 750 LINE",
"49 0 LINE"
);
}
);
width = 1865;
},
{
layerId = "C9BA7AB2-4C39-4898-B0E1-23BE521DA8C1";
paths = (
{
closed = 1;
nodes = (
"87 0 LINE",
"87 369 LINE",
"1143 369 LINE",
"1143 0 LINE",
"1184 0 LINE",
"1184 750 LINE",
"1143 750 LINE",
"1143 404 LINE",
"87 404 LINE",
"87 750 LINE",
"46 750 LINE",
"46 0 LINE"
);
}
);
width = 1230;
},
{
layerId = "1577B97C-DCC5-4AA4-842F-E9BB22E99E3C";
paths = (
{
closed = 1;
nodes = (
"51 0 LINE",
"51 364 LINE",
"108 364 LINE",
"108 0 LINE",
"139 0 LINE",
"139 750 LINE",
"108 750 LINE",
"108 386 LINE",
"51 386 LINE",
"51 750 LINE",
"20 750 LINE",
"20 0 LINE"
);
}
);
userData = {
com.schriftgestaltung.Glyphs.lastChange = "2019-04-28 05:35:59 +0000";
com.typemytype.robofont.pointLabels = {
7JgTtdb0jg = (
crossbar,
crossbar,
shiftdown
);
8OglXgblhr = (
rightside
);
MTAeavIVWY = (
crossbar
);
QjywsYY2yB = (
leftside,
crossbar,
shiftstem,
crossbar,
shiftdown,
crossbar,
leftside
);
UPaHY3UudR = (
leftside,
crossbar,
shiftstem,
crossbar,
shiftdown,
crossbar,
leftside
);
WUaPOcaxKT = (
leftside,
crossbar,
shiftstem,
crossbar,
shiftdown,
crossbar,
leftside
);
ZnCDQVdtyD = (
leftside,
crossbar,
shiftstem,
crossbar,
shiftdown,
crossbar,
leftside
);
lggLiivmLt = (
leftside,
crossbar,
shiftstem,
crossbar,
shiftdown,
crossbar,
leftside
);
oOtn61SmRY = (
rightside
);
uqAJBjDIOT = (
leftside,
crossbar,
shiftstem,
crossbar,
shiftdown,
crossbar,
leftside
);
};
};
width = 159;
},
{
layerId = "628C7BDB-7DBE-4EE3-879C-693AF95326D4";
paths = (
{
closed = 1;
nodes = (
"370 0 LINE",
"370 295 LINE",
"459 295 LINE",
"459 0 LINE",
"798 0 LINE",
"798 750 LINE",
"459 750 LINE",
"459 439 LINE",
"370 439 LINE",
"370 750 LINE",
"31 750 LINE",
"31 0 LINE"
);
}
);
width = 829;
},
{
layerId = "B41498C8-9825-4C4A-856B-8BEA93F27BCF";
paths = (
{
closed = 1;
nodes = (
"370 0 LINE",
"370 398 LINE",
"459 398 LINE",
"459 0 LINE",
"798 0 LINE",
"798 750 LINE",
"459 750 LINE",
"459 542 LINE",
"370 542 LINE",
"370 750 LINE",
"31 750 LINE",
"31 0 LINE"
);
}
);
width = 829;
},
{
layerId = "7F3C6EE5-2603-4259-9F13-C30BB9E194E1";
paths = (
{
closed = 1;
nodes = (
"51 0 LINE",
"51 469 LINE",
"108 469 LINE",
"108 0 LINE",
"139 0 LINE",
"139 750 LINE",
"108 750 LINE",
"108 491 LINE",
"51 491 LINE",
"51 750 LINE",
"20 750 LINE",
"20 0 LINE"
);
}
);
userData = {
com.schriftgestaltung.Glyphs.lastChange = "2019-04-28 05:35:59 +0000";
com.typemytype.robofont.pointLabels = {
7JgTtdb0jg = (
crossbar,
crossbar,
shiftdown
);
8OglXgblhr = (
rightside
);
MTAeavIVWY = (
crossbar
);
QjywsYY2yB = (
leftside,
crossbar,
shiftstem,
crossbar,
shiftdown,
crossbar,
leftside
);
UPaHY3UudR = (
leftside,
crossbar,
shiftstem,
crossbar,
shiftdown,
crossbar,
leftside
);
WUaPOcaxKT = (
leftside,
crossbar,
shiftstem,
crossbar,
shiftdown,
crossbar,
leftside
);
ZnCDQVdtyD = (
leftside,
crossbar,
shiftstem,
crossbar,
shiftdown,
crossbar,
leftside
);
lggLiivmLt = (
leftside,
crossbar,
shiftstem,
crossbar,
shiftdown,
crossbar,
leftside
);
oOtn61SmRY = (
rightside
);
uqAJBjDIOT = (
leftside,
crossbar,
shiftstem,
crossbar,
shiftdown,
crossbar,
leftside
);
};
};
width = 159;
},
{
layerId = "7A9BD435-3083-4FB3-9FE1-50106B21C13B";
paths = (
{
closed = 1;
nodes = (
"87 0 LINE",
"87 472 LINE",
"1143 472 LINE",
"1143 0 LINE",
"1184 0 LINE",
"1184 750 LINE",
"1143 750 LINE",
"1143 507 LINE",
"87 507 LINE",
"87 750 LINE",
"46 750 LINE",
"46 0 LINE"
);
}
);
width = 1230;
},
{
layerId = "401C54E9-F42A-49C7-842E-99B3D4FBDAC0";
paths = (
{
closed = 1;
nodes = (
"489 0 LINE",
"489 378 LINE",
"1377 378 LINE",
"1377 0 LINE",
"1816 0 LINE",
"1816 750 LINE",
"1377 750 LINE",
"1377 538 LINE",
"489 538 LINE",
"489 750 LINE",
"49 750 LINE",
"49 0 LINE"
);
}
);
width = 1865;
},
{
layerId = "5B01A85C-72B1-477B-9F3C-4C3A665051AF";
paths = (
{
closed = 1;
nodes = (
"370 0 LINE",
"370 187 LINE",
"459 187 LINE",
"459 0 LINE",
"798 0 LINE",
"798 750 LINE",
"459 750 LINE",
"459 331 LINE",
"370 331 LINE",
"370 750 LINE",
"31 750 LINE",
"31 0 LINE"
);
}
);
width = 829;
},
{
layerId = "6A003782-5630-46D5-9AEF-173A49B0B076";
paths = (
{
closed = 1;
nodes = (
"51 0 LINE",
"51 234 LINE",
"108 234 LINE",
"108 0 LINE",
"139 0 LINE",
"139 750 LINE",
"108 750 LINE",
"108 256 LINE",
"51 256 LINE",
"51 750 LINE",
"20 750 LINE",
"20 0 LINE"
);
}
);
userData = {
com.schriftgestaltung.Glyphs.lastChange = "2019-04-28 05:35:59 +0000";
com.typemytype.robofont.pointLabels = {
7JgTtdb0jg = (
crossbar,
crossbar,
shiftdown
);
8OglXgblhr = (
rightside
);
MTAeavIVWY = (
crossbar
);
QjywsYY2yB = (
leftside,
crossbar,
shiftstem,
crossbar,
shiftdown,
crossbar,
leftside
);
UPaHY3UudR = (
leftside,
crossbar,
shiftstem,
crossbar,
shiftdown,
crossbar,
leftside
);
WUaPOcaxKT = (
leftside,
crossbar,
shiftstem,
crossbar,
shiftdown,
crossbar,
leftside
);
ZnCDQVdtyD = (
leftside,
crossbar,
shiftstem,
crossbar,
shiftdown,
crossbar,
leftside
);
lggLiivmLt = (
leftside,
crossbar,
shiftstem,
crossbar,
shiftdown,
crossbar,
leftside
);
oOtn61SmRY = (
rightside
);
uqAJBjDIOT = (
leftside,
crossbar,
shiftstem,
crossbar,
shiftdown,
crossbar,
leftside
);
};
};
width = 159;
},
{
layerId = "9EF6E879-D021-4626-8F52-6D74284C4DC7";
paths = (
{
closed = 1;
nodes = (
"87 0 LINE",
"87 255 LINE",
"1143 255 LINE",
"1143 0 LINE",
"1184 0 LINE",
"1184 750 LINE",
"1143 750 LINE",
"1143 290 LINE",
"87 290 LINE",
"87 750 LINE",
"46 750 LINE",
"46 0 LINE"
);
}
);
width = 1230;
},
{
layerId = "FEE31BD6-05B9-4F93-BD72-F1214701600E";
paths = (
{
closed = 1;
nodes = (
"489 0 LINE",
"489 168 LINE",
"1377 168 LINE",
"1377 0 LINE",
"1816 0 LINE",
"1816 750 LINE",
"1377 750 LINE",
"1377 328 LINE",
"489 328 LINE",
"489 750 LINE",
"49 750 LINE",
"49 0 LINE"
);
}
);
width = 1865;
}
);
unicode = 0048;
},
{
glyphname = I;
lastChange = "2019-09-09 00:26:30 +0000";
layers = (
{
layerId = "41E2CF60-9A62-485C-A680-66BBCCBE3685";
paths = (
{
closed = 1;
nodes = (
"506 0 LINE",
"506 750 LINE",
"66 750 LINE",
"66 0 LINE"
);
}
);
width = 572;
},
{
layerId = "C9BA7AB2-4C39-4898-B0E1-23BE521DA8C1";
paths = (
{
closed = 1;
nodes = (
"87 0 LINE",
"87 750 LINE",
"46 750 LINE",
"46 0 LINE"
);
}
);
width = 133;
},
{
layerId = "1577B97C-DCC5-4AA4-842F-E9BB22E99E3C";
paths = (
{
closed = 1;
nodes = (
"51 0 LINE",
"51 750 LINE",
"20 750 LINE",
"20 0 LINE"
);
}
);
userData = {
com.schriftgestaltung.Glyphs.lastChange = "2019-04-28 05:35:59 +0000";
com.typemytype.robofont.pointLabels = {
G11nOl1a96 = (
ri
);
LJaww9hqQY = (
leftside
);
jRE4QRN7r7 = (
ri
);
rhZOX8XKiW = (
leftside
);
};
};
width = 71;
},
{
layerId = "628C7BDB-7DBE-4EE3-879C-693AF95326D4";
paths = (
{
closed = 1;
nodes = (
"375 0 LINE",
"375 750 LINE",
"36 750 LINE",
"36 0 LINE"
);
}
);
width = 411;
},
{
layerId = "B41498C8-9825-4C4A-856B-8BEA93F27BCF";
paths = (
{
closed = 1;
nodes = (
"375 0 LINE",
"375 750 LINE",
"36 750 LINE",
"36 0 LINE"
);
}
);
width = 411;
},
{
layerId = "7F3C6EE5-2603-4259-9F13-C30BB9E194E1";
paths = (
{
closed = 1;
nodes = (
"51 0 LINE",
"51 750 LINE",
"20 750 LINE",
"20 0 LINE"
);
}
);
userData = {
com.schriftgestaltung.Glyphs.lastChange = "2019-04-28 05:35:59 +0000";
com.typemytype.robofont.pointLabels = {
G11nOl1a96 = (
ri
);
LJaww9hqQY = (
leftside
);
jRE4QRN7r7 = (
ri
);
rhZOX8XKiW = (
leftside
);
};
};
width = 71;
},
{
layerId = "7A9BD435-3083-4FB3-9FE1-50106B21C13B";
paths = (
{
closed = 1;
nodes = (
"87 0 LINE",
"87 750 LINE",
"46 750 LINE",
"46 0 LINE"
);
}
);
width = 133;
},
{
layerId = "401C54E9-F42A-49C7-842E-99B3D4FBDAC0";
paths = (
{
closed = 1;
nodes = (
"506 0 LINE",
"506 750 LINE",
"66 750 LINE",
"66 0 LINE"
);
}
);
width = 572;
},
{
layerId = "5B01A85C-72B1-477B-9F3C-4C3A665051AF";
paths = (
{
closed = 1;
nodes = (
"375 0 LINE",
"375 750 LINE",
"36 750 LINE",
"36 0 LINE"
);
}
);
width = 411;
},
{
layerId = "6A003782-5630-46D5-9AEF-173A49B0B076";
paths = (
{
closed = 1;
nodes = (
"51 0 LINE",
"51 750 LINE",
"20 750 LINE",
"20 0 LINE"
);
}
);
userData = {
com.schriftgestaltung.Glyphs.lastChange = "2019-04-28 05:35:59 +0000";
com.typemytype.robofont.pointLabels = {
G11nOl1a96 = (
ri
);
LJaww9hqQY = (
leftside
);
jRE4QRN7r7 = (
ri
);
rhZOX8XKiW = (
leftside
);
};
};
width = 71;
},
{
layerId = "9EF6E879-D021-4626-8F52-6D74284C4DC7";
paths = (
{
closed = 1;
nodes = (
"87 0 LINE",
"87 750 LINE",
"46 750 LINE",
"46 0 LINE"
);
}
);
width = 133;
},
{
layerId = "FEE31BD6-05B9-4F93-BD72-F1214701600E";
paths = (
{
closed = 1;
nodes = (
"506 0 LINE",
"506 750 LINE",
"66 750 LINE",
"66 0 LINE"
);
}
);
width = 572;
}
);
unicode = 0049;
},
{
glyphname = J;
lastChange = "2019-09-08 22:09:38 +0000";
layers = (
{
layerId = "41E2CF60-9A62-485C-A680-66BBCCBE3685";
paths = (
{
closed = 1;
nodes = (
"1729 0 LINE",
"1729 750 LINE",
"111 750 LINE",
"111 594 LINE",
"1289 594 LINE",
"1289 156 LINE",
"581 156 LINE",
"486 379 LINE",
"36 379 LINE",
"211 0 LINE"
);
}
);
width = 1793;
},
{
layerId = "C9BA7AB2-4C39-4898-B0E1-23BE521DA8C1";
paths = (
{
closed = 1;
nodes = (
"1153 0 LINE",
"1153 750 LINE",
"51 750 LINE",
"51 718 LINE",
"1111 718 LINE",
"1111 32 LINE",
"106 32 LINE",
"70 275 LINE",
"28 275 LINE",
"71 0 LINE"
);
}
);
width = 1199;
},
{
layerId = "1577B97C-DCC5-4AA4-842F-E9BB22E99E3C";
paths = (
{
closed = 1;
nodes = (
"125 0 LINE",
"125 750 LINE",
"17 750 LINE",
"17 728 LINE",
"94 728 LINE",
"94 22 LINE",
"62 22 LINE",
"34 157 LINE",
"3 157 LINE",
"37 0 LINE"
);
}
);
userData = {
com.schriftgestaltung.Glyphs.lastChange = "2019-04-28 12:46:30 +0000";
com.typemytype.robofont.pointLabels = {
46RrD1WET2 = (
rightside,
rightside,
shiftstem,
leftside,
rightside,
rightside,
shiftdown,
shiftstem
);
7exNZv1XSc = (
leftside
);
AdYfGKx8QJ = (
rightside,
rightside,
shiftstem,
leftside,
rightside,
rightside,
shiftdown,
shiftstem
);
NQmE31PUns = (
rightside,
rightside,
shiftstem,
leftside,
rightside,
rightside,
shiftdown,
shiftstem
);
TbrXnCyMEi = (
leftside
);
d5Di3vNzni = (
rightside,
rightside,
shiftstem
);
jiO9eX9U07 = (
leftside
);
wgpFs1yguc = (
rightside,
rightside,
shiftstem
);
zFXsE8BUYG = (
rightside,
rightside,
shiftstem,
leftside,
rightside,
rightside,
shiftdown,
shiftstem
);
};
};
width = 145;
},
{
layerId = "628C7BDB-7DBE-4EE3-879C-693AF95326D4";
paths = (
{
closed = 1;
nodes = (
"778 0 LINE",
"778 750 LINE",
"34 750 LINE",
"34 653 LINE",
"439 653 LINE",
"439 97 LINE",
"397 97 LINE",
"359 317 LINE",
"18 317 LINE",
"80 0 LINE"
);
}
);
width = 809;
},
{
layerId = "B41498C8-9825-4C4A-856B-8BEA93F27BCF";
paths = (
{
closed = 1;
nodes = (
"778 0 LINE",
"778 750 LINE",
"34 750 LINE",
"34 653 LINE",
"439 653 LINE",
"439 97 LINE",
"397 97 LINE",
"359 317 LINE",
"18 317 LINE",
"80 0 LINE"
);
}
);
width = 809;
},
{
layerId = "7F3C6EE5-2603-4259-9F13-C30BB9E194E1";
paths = (
{
closed = 1;
nodes = (
"125 0 LINE",
"125 750 LINE",
"17 750 LINE",
"17 728 LINE",
"94 728 LINE",
"94 22 LINE",
"62 22 LINE",
"34 157 LINE",
"3 157 LINE",
"37 0 LINE"
);
}
);
userData = {
com.schriftgestaltung.Glyphs.lastChange = "2019-04-28 12:46:30 +0000";
com.typemytype.robofont.pointLabels = {
46RrD1WET2 = (
rightside,
rightside,
shiftstem,
leftside,
rightside,
rightside,
shiftdown,
shiftstem
);
7exNZv1XSc = (
leftside
);
AdYfGKx8QJ = (
rightside,
rightside,
shiftstem,
leftside,
rightside,
rightside,
shiftdown,
shiftstem
);
NQmE31PUns = (
rightside,
rightside,
shiftstem,
leftside,
rightside,
rightside,
shiftdown,
shiftstem
);
TbrXnCyMEi = (
leftside
);
d5Di3vNzni = (
rightside,
rightside,
shiftstem
);
jiO9eX9U07 = (
leftside
);
wgpFs1yguc = (
rightside,
rightside,
shiftstem
);
zFXsE8BUYG = (
rightside,
rightside,
shiftstem,
leftside,
rightside,
rightside,
shiftdown,
shiftstem
);
};
};
width = 145;
},
{
layerId = "7A9BD435-3083-4FB3-9FE1-50106B21C13B";
paths = (
{
closed = 1;
nodes = (
"1153 0 LINE",
"1153 750 LINE",
"51 750 LINE",
"51 718 LINE",
"1111 718 LINE",
"1111 32 LINE",
"106 32 LINE",
"70 275 LINE",
"28 275 LINE",
"71 0 LINE"
);
}
);
width = 1199;
},
{
layerId = "401C54E9-F42A-49C7-842E-99B3D4FBDAC0";
paths = (
{
closed = 1;
nodes = (
"1729 0 LINE",
"1729 750 LINE",
"111 750 LINE",
"111 594 LINE",
"1289 594 LINE",
"1289 156 LINE",
"581 156 LINE",
"486 379 LINE",
"36 379 LINE",
"211 0 LINE"
);
}
);
width = 1793;
},
{
layerId = "5B01A85C-72B1-477B-9F3C-4C3A665051AF";
paths = (
{
closed = 1;
nodes = (
"778 0 LINE",
"778 750 LINE",
"34 750 LINE",
"34 653 LINE",
"439 653 LINE",
"439 97 LINE",
"397 97 LINE",
"359 317 LINE",
"18 317 LINE",
"80 0 LINE"
);
}
);
width = 809;
},
{
layerId = "6A003782-5630-46D5-9AEF-173A49B0B076";
paths = (
{
closed = 1;
nodes = (
"125 0 LINE",
"125 750 LINE",
"17 750 LINE",
"17 728 LINE",
"94 728 LINE",
"94 22 LINE",
"62 22 LINE",
"34 157 LINE",
"3 157 LINE",
"37 0 LINE"
);
}
);
userData = {
com.schriftgestaltung.Glyphs.lastChange = "2019-04-28 12:46:30 +0000";
com.typemytype.robofont.pointLabels = {
46RrD1WET2 = (
rightside,
rightside,
shiftstem,
leftside,
rightside,
rightside,
shiftdown,
shiftstem
);
7exNZv1XSc = (
leftside
);
AdYfGKx8QJ = (
rightside,
rightside,
shiftstem,
leftside,
rightside,
rightside,
shiftdown,
shiftstem
);
NQmE31PUns = (
rightside,
rightside,
shiftstem,
leftside,
rightside,
rightside,
shiftdown,
shiftstem
);
TbrXnCyMEi = (
leftside
);
d5Di3vNzni = (
rightside,
rightside,
shiftstem
);
jiO9eX9U07 = (
leftside
);
wgpFs1yguc = (
rightside,
rightside,
shiftstem
);
zFXsE8BUYG = (
rightside,
rightside,
shiftstem,
leftside,
rightside,
rightside,
shiftdown,
shiftstem
);
};
};
width = 145;
},
{
layerId = "9EF6E879-D021-4626-8F52-6D74284C4DC7";
paths = (
{
closed = 1;
nodes = (
"1153 0 LINE",
"1153 750 LINE",
"51 750 LINE",
"51 718 LINE",
"1111 718 LINE",
"1111 32 LINE",
"106 32 LINE",
"70 275 LINE",
"28 275 LINE",
"71 0 LINE"
);
}
);
width = 1199;
},
{
layerId = "FEE31BD6-05B9-4F93-BD72-F1214701600E";
paths = (
{
closed = 1;
nodes = (
"1729 0 LINE",
"1729 750 LINE",
"111 750 LINE",
"111 594 LINE",
"1289 594 LINE",
"1289 156 LINE",
"581 156 LINE",
"486 379 LINE",
"36 379 LINE",
"211 0 LINE"
);
}
);
width = 1793;
}
);
unicode = 004A;
},
{
glyphname = K;
lastChange = "2019-09-09 01:10:46 +0000";
layers = (
{
layerId = "41E2CF60-9A62-485C-A680-66BBCCBE3685";
paths = (
{
closed = 1;
nodes = (
"504 0 LINE",
"504 293 LINE",
"1201 295 LINE",
"1394 249 LINE",
"1394 0 LINE",
"1834 0 LINE",
"1834 314 LINE",
"1405 372 LINE",
"1405 400 LINE",
"1809 492 LINE",
"1809 750 LINE",
"1369 750 LINE",
"1369 518 LINE",
"1189 462 LINE",
"504 462 LINE",
"504 750 LINE",
"64 750 LINE",
"64 0 LINE"
);
}
);
width = 1865;
},
{
layerId = "C9BA7AB2-4C39-4898-B0E1-23BE521DA8C1";
paths = (
{
closed = 1;
nodes = (
"88 0 LINE",
"88 363 LINE",
"760 365 LINE",
"1145 293 LINE",
"1145 0 LINE",
"1187 0 LINE",
"1187 314 LINE",
"811 382 LINE",
"811 383 LINE",
"1171 460 LINE",
"1171 750 LINE",
"1130 750 LINE",
"1130 478 LINE",
"760 395 LINE",
"88 395 LINE",
"88 750 LINE",
"46 750 LINE",
"46 0 LINE"
);
}
);
width = 1220;
},
{
layerId = "1577B97C-DCC5-4AA4-842F-E9BB22E99E3C";
paths = (
{
closed = 1;
nodes = (
"51 0 LINE",
"51 367 LINE",
"61 375 LINE",
"110 318 LINE",
"110 0 LINE",
"141 0 LINE",
"141 325 LINE",
"77 399 LINE",
"77 388 LINE",
"134 432 LINE",
"134 750 LINE",
"103 750 LINE",
"103 442 LINE",
"55 401 LINE",
"51 401 LINE",
"51 750 LINE",
"20 750 LINE",
"20 0 LINE"
);
}
);
userData = {
com.schriftgestaltung.Glyphs.lastChange = "2019-04-28 05:35:59 +0000";
com.typemytype.robofont.pointLabels = {
0mqLpz5vAU = (
leftside,
rightside,
shiftdown,
rightside,
crossbar,
shiftstem,
rightside,
rightside,
crossbar,
rightside,
rightside,
crossbar,
leftside
);
8uJIZj54GB = (
rightside,
rightside,
crossbar
);
AJFybwtISS = (
leftside,
rightside,
shiftdown,
rightside,
crossbar,
shiftstem,
rightside,
rightside,
crossbar,
rightside,
rightside,
crossbar,
leftside
);
I87sAwdtGu = (
leftside,
rightside,
shiftdown,
rightside,
crossbar,
shiftstem,
rightside,
rightside,
crossbar,
rightside,
rightside,
crossbar,
leftside
);
RNULHVAYqp = (
rightside
);
UTjU3L1PPB = (
leftside,
rightside,
shiftdown,
rightside,
crossbar,
shiftstem,
rightside,
rightside,
crossbar,
rightside,
rightside,
crossbar,
leftside
);
e8AHcRxH3I = (
rightside,
rightside,
crossbar
);
eNRdyfM1oC = (
rightside
);
nN62QTbZwT = (
rightside,
shiftdown,
rightside,
crossbar,
rightside,
rightside,
crossbar
);
nj0bO2yqxJ = (
rightside,
rightside,
crossbar
);
qeJQMGx6zx = (
rightside,
rightside,
crossbar
);
tRv54mralF = (
leftside,
rightside,
shiftdown,
rightside,
crossbar,
shiftstem,
rightside,
rightside,
crossbar,
rightside,
rightside,
crossbar,
leftside
);
up9uIbzma1 = (
rightside,
rightside,
crossbar
);
xRsK7LwvCP = (
rightside,
shiftdown,
rightside,
crossbar,
rightside,
rightside,
crossbar
);
xj8qIf4v8s = (
leftside,
rightside,
shiftdown,
rightside,
crossbar,
shiftstem,
rightside,
rightside,
crossbar,
rightside,
rightside,
crossbar,
leftside
);
};
};
width = 157;
},
{
layerId = "628C7BDB-7DBE-4EE3-879C-693AF95326D4";
paths = (
{
closed = 1;
nodes = (
"370 0 LINE",
"370 332 LINE",
"414 340 LINE",
"461 327 LINE",
"461 0 LINE",
"800 0 LINE",
"800 319 LINE",
"581 387 LINE",
"581 402 LINE",
"793 451 LINE",
"793 750 LINE",
"454 750 LINE",
"454 446 LINE",
"409 425 LINE",
"370 425 LINE",
"370 750 LINE",
"31 750 LINE",
"31 0 LINE"
);
}
);
width = 821;
},
{
layerId = "B41498C8-9825-4C4A-856B-8BEA93F27BCF";
paths = (
{
closed = 1;
nodes = (
"370 0 LINE",
"370 437 LINE",
"414 445 LINE",
"461 432 LINE",
"461 0 LINE",
"800 0 LINE",
"800 424 LINE",
"581 492 LINE",
"581 507 LINE",
"793 556 LINE",
"793 750 LINE",
"454 750 LINE",
"454 551 LINE",
"409 530 LINE",
"370 530 LINE",
"370 750 LINE",
"31 750 LINE",
"31 0 LINE"
);
}
);
width = 821;
},
{
layerId = "7F3C6EE5-2603-4259-9F13-C30BB9E194E1";
paths = (
{
closed = 1;
nodes = (
"51 0 LINE",
"51 477 LINE",
"61 485 LINE",
"110 428 LINE",
"110 0 LINE",
"141 0 LINE",
"141 435 LINE",
"77 509 LINE",
"77 498 LINE",
"134 542 LINE",
"134 750 LINE",
"103 750 LINE",
"103 552 LINE",
"55 511 LINE",
"51 511 LINE",
"51 750 LINE",
"20 750 LINE",
"20 0 LINE"
);
}
);
userData = {
com.schriftgestaltung.Glyphs.lastChange = "2019-04-28 05:35:59 +0000";
com.typemytype.robofont.pointLabels = {
0mqLpz5vAU = (
leftside,
rightside,
shiftdown,
rightside,
crossbar,
shiftstem,
rightside,
rightside,
crossbar,
rightside,
rightside,
crossbar,
leftside
);
8uJIZj54GB = (
rightside,
rightside,
crossbar
);
AJFybwtISS = (
leftside,
rightside,
shiftdown,
rightside,
crossbar,
shiftstem,
rightside,
rightside,
crossbar,
rightside,
rightside,
crossbar,
leftside
);
I87sAwdtGu = (
leftside,
rightside,
shiftdown,
rightside,
crossbar,
shiftstem,
rightside,
rightside,
crossbar,
rightside,
rightside,
crossbar,
leftside
);
RNULHVAYqp = (
rightside
);
UTjU3L1PPB = (
leftside,
rightside,
shiftdown,
rightside,
crossbar,
shiftstem,
rightside,
rightside,
crossbar,
rightside,
rightside,
crossbar,
leftside
);
e8AHcRxH3I = (
rightside,
rightside,
crossbar
);
eNRdyfM1oC = (
rightside
);
nN62QTbZwT = (
rightside,
shiftdown,
rightside,
crossbar,
rightside,
rightside,
crossbar
);
nj0bO2yqxJ = (
rightside,
rightside,
crossbar
);
qeJQMGx6zx = (
rightside,
rightside,
crossbar
);
tRv54mralF = (
leftside,
rightside,
shiftdown,
rightside,
crossbar,
shiftstem,
rightside,
rightside,
crossbar,
rightside,
rightside,
crossbar,
leftside
);
up9uIbzma1 = (
rightside,
rightside,
crossbar
);
xRsK7LwvCP = (
rightside,
shiftdown,
rightside,
crossbar,
rightside,
rightside,
crossbar
);
xj8qIf4v8s = (
leftside,
rightside,
shiftdown,
rightside,
crossbar,
shiftstem,
rightside,
rightside,
crossbar,
rightside,
rightside,
crossbar,
leftside
);
};
};
width = 157;
},
{
layerId = "7A9BD435-3083-4FB3-9FE1-50106B21C13B";
paths = (
{
closed = 1;
nodes = (
"88 0 LINE",
"88 467 LINE",
"760 469 LINE",
"1145 395 LINE",
"1145 0 LINE",
"1187 0 LINE",
"1187 418 LINE",
"811 486 LINE",
"811 487 LINE",
"1171 564 LINE",
"1171 750 LINE",
"1130 750 LINE",
"1130 584 LINE",
"760 499 LINE",
"88 499 LINE",
"88 750 LINE",
"46 750 LINE",
"46 0 LINE"
);
}
);
width = 1220;
},
{
layerId = "401C54E9-F42A-49C7-842E-99B3D4FBDAC0";
paths = (
{
closed = 1;
nodes = (
"504 0 LINE",
"504 386 LINE",
"1261 388 LINE",
"1394 342 LINE",
"1394 0 LINE",
"1834 0 LINE",
"1834 407 LINE",
"1405 472 LINE",
"1405 490 LINE",
"1809 585 LINE",
"1809 750 LINE",
"1369 750 LINE",
"1369 608 LINE",
"1249 555 LINE",
"504 555 LINE",
"504 750 LINE",
"64 750 LINE",
"64 0 LINE"
);
}
);
width = 1865;
},
{
layerId = "5B01A85C-72B1-477B-9F3C-4C3A665051AF";
paths = (
{
closed = 1;
nodes = (
"370 0 LINE",
"370 235 LINE",
"414 235 LINE",
"461 222 LINE",
"461 0 LINE",
"800 0 LINE",
"800 214 LINE",
"581 282 LINE",
"581 297 LINE",
"793 346 LINE",
"793 750 LINE",
"454 750 LINE",
"454 341 LINE",
"409 320 LINE",
"370 320 LINE",
"370 750 LINE",
"31 750 LINE",
"31 0 LINE"
);
}
);
width = 821;
},
{
layerId = "6A003782-5630-46D5-9AEF-173A49B0B076";
paths = (
{
closed = 1;
nodes = (
"51 0 LINE",
"51 190 LINE",
"61 198 LINE",
"110 141 LINE",
"110 0 LINE",
"141 0 LINE",
"141 148 LINE",
"77 222 LINE",
"77 211 LINE",
"134 255 LINE",
"134 750 LINE",
"103 750 LINE",
"103 265 LINE",
"55 224 LINE",
"51 224 LINE",
"51 750 LINE",
"20 750 LINE",
"20 0 LINE"
);
}
);
userData = {
com.schriftgestaltung.Glyphs.lastChange = "2019-04-28 05:35:59 +0000";
com.typemytype.robofont.pointLabels = {
0mqLpz5vAU = (
leftside,
rightside,
shiftdown,
rightside,
crossbar,
shiftstem,
rightside,
rightside,
crossbar,
rightside,
rightside,
crossbar,
leftside
);
8uJIZj54GB = (
rightside,
rightside,
crossbar
);
AJFybwtISS = (
leftside,
rightside,
shiftdown,
rightside,
crossbar,
shiftstem,
rightside,
rightside,
crossbar,
rightside,
rightside,
crossbar,
leftside
);
I87sAwdtGu = (
leftside,
rightside,
shiftdown,
rightside,
crossbar,
shiftstem,
rightside,
rightside,
crossbar,
rightside,
rightside,
crossbar,
leftside
);
RNULHVAYqp = (
rightside
);
UTjU3L1PPB = (
leftside,
rightside,
shiftdown,
rightside,
crossbar,
shiftstem,
rightside,
rightside,
crossbar,
rightside,
rightside,
crossbar,
leftside
);
e8AHcRxH3I = (
rightside,
rightside,
crossbar
);
eNRdyfM1oC = (
rightside
);
nN62QTbZwT = (
rightside,
shiftdown,
rightside,
crossbar,
rightside,
rightside,
crossbar
);
nj0bO2yqxJ = (
rightside,
rightside,
crossbar
);
qeJQMGx6zx = (
rightside,
rightside,
crossbar
);
tRv54mralF = (
leftside,
rightside,
shiftdown,
rightside,
crossbar,
shiftstem,
rightside,
rightside,
crossbar,
rightside,
rightside,
crossbar,
leftside
);
up9uIbzma1 = (
rightside,
rightside,
crossbar
);
xRsK7LwvCP = (
rightside,
shiftdown,
rightside,
crossbar,
rightside,
rightside,
crossbar
);
xj8qIf4v8s = (
leftside,
rightside,
shiftdown,
rightside,
crossbar,
shiftstem,
rightside,
rightside,
crossbar,
rightside,
rightside,
crossbar,
leftside
);
};
};
width = 157;
},
{
layerId = "9EF6E879-D021-4626-8F52-6D74284C4DC7";
paths = (
{
closed = 1;
nodes = (
"88 0 LINE",
"88 208 LINE",
"760 210 LINE",
"1145 138 LINE",
"1145 0 LINE",
"1187 0 LINE",
"1187 159 LINE",
"811 227 LINE",
"811 228 LINE",
"1171 305 LINE",
"1171 750 LINE",
"1130 750 LINE",
"1130 323 LINE",
"760 240 LINE",
"88 240 LINE",
"88 750 LINE",
"46 750 LINE",
"46 0 LINE"
);
}
);
width = 1220;
},
{
layerId = "FEE31BD6-05B9-4F93-BD72-F1214701600E";
paths = (
{
closed = 1;
nodes = (
"504 0 LINE",
"504 183 LINE",
"1231 185 LINE",
"1394 139 LINE",
"1394 0 LINE",
"1834 0 LINE",
"1834 208 LINE",
"1405 271 LINE",
"1405 290 LINE",
"1809 382 LINE",
"1809 750 LINE",
"1369 750 LINE",
"1369 408 LINE",
"1219 352 LINE",
"504 352 LINE",
"504 750 LINE",
"64 750 LINE",
"64 0 LINE"
);
}
);
width = 1865;
}
);
unicode = 004B;
},
{
glyphname = L;
lastChange = "2019-09-08 22:09:38 +0000";
layers = (
{
layerId = "41E2CF60-9A62-485C-A680-66BBCCBE3685";
paths = (
{
closed = 1;
nodes = (
"1698 0 LINE",
"1698 358 LINE",
"1258 358 LINE",
"1258 156 LINE",
"563 156 LINE",
"563 750 LINE",
"123 750 LINE",
"123 0 LINE"
);
}
);
width = 1718;
},
{
layerId = "C9BA7AB2-4C39-4898-B0E1-23BE521DA8C1";
paths = (
{
closed = 1;
nodes = (
"1142 0 LINE",
"1142 267 LINE",
"1101 267 LINE",
"1101 32 LINE",
"88 32 LINE",
"88 750 LINE",
"46 750 LINE",
"46 0 LINE"
);
}
);
width = 1172;
},
{
layerId = "1577B97C-DCC5-4AA4-842F-E9BB22E99E3C";
paths = (
{
closed = 1;
nodes = (
"127 0 LINE",
"127 184 LINE",
"96 184 LINE",
"96 22 LINE",
"51 22 LINE",
"51 750 LINE",
"20 750 LINE",
"20 0 LINE"
);
}
);
userData = {
com.schriftgestaltung.Glyphs.lastChange = "2019-04-28 11:50:14 +0000";
com.typemytype.robofont.pointLabels = {
82EXZEgt46 = (
rightside
);
FWtbMMY8Ck = (
rightside
);
MbxRZRd8vz = (
leftside,
shiftdown,
leftside,
shiftstem
);
VYRt9kHZtP = (
rightside
);
XFf4mMUzYo = (
leftside,
shiftdown,
leftside,
shiftstem
);
XkJNfQlnnt = (
leftside,
shiftdown,
leftside,
shiftstem
);
cqpSxwFiM3 = (
shiftdown
);
lYiaKSKITt = (
leftside,
shiftdown,
leftside,
shiftstem
);
scG1IXtWvJ = (
rightside
);
};
};
width = 142;
},
{
layerId = "628C7BDB-7DBE-4EE3-879C-693AF95326D4";
paths = (
{
closed = 1;
nodes = (
"781 0 LINE",
"781 289 LINE",
"442 289 LINE",
"442 97 LINE",
"370 97 LINE",
"370 750 LINE",
"31 750 LINE",
"31 0 LINE"
);
}
);
width = 804;
},
{
layerId = "B41498C8-9825-4C4A-856B-8BEA93F27BCF";
paths = (
{
closed = 1;
nodes = (
"781 0 LINE",
"781 289 LINE",
"442 289 LINE",
"442 97 LINE",
"370 97 LINE",
"370 750 LINE",
"31 750 LINE",
"31 0 LINE"
);
}
);
width = 804;
},
{
layerId = "7F3C6EE5-2603-4259-9F13-C30BB9E194E1";
paths = (
{
closed = 1;
nodes = (
"127 0 LINE",
"127 184 LINE",
"96 184 LINE",
"96 22 LINE",
"51 22 LINE",
"51 750 LINE",
"20 750 LINE",
"20 0 LINE"
);
}
);
userData = {
com.schriftgestaltung.Glyphs.lastChange = "2019-04-28 11:50:14 +0000";
com.typemytype.robofont.pointLabels = {
82EXZEgt46 = (
rightside
);
FWtbMMY8Ck = (
rightside
);
MbxRZRd8vz = (
leftside,
shiftdown,
leftside,
shiftstem
);
VYRt9kHZtP = (
rightside
);
XFf4mMUzYo = (
leftside,
shiftdown,
leftside,
shiftstem
);
XkJNfQlnnt = (
leftside,
shiftdown,
leftside,
shiftstem
);
cqpSxwFiM3 = (
shiftdown
);
lYiaKSKITt = (
leftside,
shiftdown,
leftside,
shiftstem
);
scG1IXtWvJ = (
rightside
);
};
};
width = 142;
},
{
layerId = "7A9BD435-3083-4FB3-9FE1-50106B21C13B";
paths = (
{
closed = 1;
nodes = (
"1142 0 LINE",
"1142 267 LINE",
"1101 267 LINE",
"1101 32 LINE",
"88 32 LINE",
"88 750 LINE",
"46 750 LINE",
"46 0 LINE"
);
}
);
width = 1172;
},
{
layerId = "401C54E9-F42A-49C7-842E-99B3D4FBDAC0";
paths = (
{
closed = 1;
nodes = (
"1698 0 LINE",
"1698 358 LINE",
"1258 358 LINE",
"1258 156 LINE",
"563 156 LINE",
"563 750 LINE",
"123 750 LINE",
"123 0 LINE"
);
}
);
width = 1718;
},
{
layerId = "5B01A85C-72B1-477B-9F3C-4C3A665051AF";
paths = (
{
closed = 1;
nodes = (
"781 0 LINE",
"781 289 LINE",
"442 289 LINE",
"442 97 LINE",
"370 97 LINE",
"370 750 LINE",
"31 750 LINE",
"31 0 LINE"
);
}
);
width = 804;
},
{
layerId = "6A003782-5630-46D5-9AEF-173A49B0B076";
paths = (
{
closed = 1;
nodes = (
"127 0 LINE",
"127 184 LINE",
"96 184 LINE",
"96 22 LINE",
"51 22 LINE",
"51 750 LINE",
"20 750 LINE",
"20 0 LINE"
);
}
);
userData = {
com.schriftgestaltung.Glyphs.lastChange = "2019-04-28 11:50:14 +0000";
com.typemytype.robofont.pointLabels = {
82EXZEgt46 = (
rightside
);
FWtbMMY8Ck = (
rightside
);
MbxRZRd8vz = (
leftside,
shiftdown,
leftside,
shiftstem
);
VYRt9kHZtP = (
rightside
);
XFf4mMUzYo = (
leftside,
shiftdown,
leftside,
shiftstem
);
XkJNfQlnnt = (
leftside,
shiftdown,
leftside,
shiftstem
);
cqpSxwFiM3 = (
shiftdown
);
lYiaKSKITt = (
leftside,
shiftdown,
leftside,
shiftstem
);
scG1IXtWvJ = (
rightside
);
};
};
width = 142;
},
{
layerId = "9EF6E879-D021-4626-8F52-6D74284C4DC7";
paths = (
{
closed = 1;
nodes = (
"1142 0 LINE",
"1142 267 LINE",
"1101 267 LINE",
"1101 32 LINE",
"88 32 LINE",
"88 750 LINE",
"46 750 LINE",
"46 0 LINE"
);
}
);
width = 1172;
},
{
layerId = "FEE31BD6-05B9-4F93-BD72-F1214701600E";
paths = (
{
closed = 1;
nodes = (
"1698 0 LINE",
"1698 358 LINE",
"1258 358 LINE",
"1258 156 LINE",
"563 156 LINE",
"563 750 LINE",
"123 750 LINE",
"123 0 LINE"
);
}
);
width = 1718;
}
);
unicode = 004C;
},
{
glyphname = M;
lastChange = "2019-09-08 23:02:27 +0000";
layers = (
{
layerId = "41E2CF60-9A62-485C-A680-66BBCCBE3685";
paths = (
{
closed = 1;
nodes = (
"504 0 LINE",
"504 583 LINE",
"549 583 LINE",
"789 96 LINE",
"1319 96 LINE",
"1556 584 LINE",
"1601 584 LINE",
"1601 0 LINE",
"2041 0 LINE",
"2041 750 LINE",
"1266 750 LINE",
"1067 272 LINE",
"1038 272 LINE",
"839 750 LINE",
"64 750 LINE",
"64 0 LINE"
);
}
);
width = 2105;
},
{
layerId = "C9BA7AB2-4C39-4898-B0E1-23BE521DA8C1";
paths = (
{
closed = 1;
nodes = (
"87 0 LINE",
"87 718 LINE",
"101 718 LINE",
"638 103 LINE",
"683 103 LINE",
"1217 719 LINE",
"1234 719 LINE",
"1234 0 LINE",
"1275 0 LINE",
"1275 750 LINE",
"1185 750 LINE",
"663 142 LINE",
"657 142 LINE",
"135 750 LINE",
"46 750 LINE",
"46 0 LINE"
);
}
);
width = 1321;
},
{
layerId = "1577B97C-DCC5-4AA4-842F-E9BB22E99E3C";
paths = (
{
closed = 1;
nodes = (
"51 0 LINE",
"51 728 LINE",
"64 728 LINE",
"93 110 LINE",
"153 110 LINE",
"181 729 LINE",
"197 729 LINE",
"197 0 LINE",
"228 0 LINE",
"228 750 LINE",
"151 750 LINE",
"126 132 LINE",
"120 132 LINE",
"94 750 LINE",
"20 750 LINE",
"20 0 LINE"
);
}
);
userData = {
com.schriftgestaltung.Glyphs.lastChange = "2019-04-28 05:35:59 +0000";
com.typemytype.robofont.pointLabels = {
0IVF7y8NCN = (
leftside,
leftside,
rightside,
rightside,
shiftstem,
leftside,
shiftdown,
leftside,
rightside,
rightside,
shiftstem,
leftside,
leftside,
rightside,
rightside,
shiftstem,
leftside,
leftside,
rightside,
rightside,
shiftstem
);
4t8tj5JGI4 = (
leftside,
leftside,
rightside,
rightside,
shiftstem
);
5TFRebmDRK = (
leftside,
leftside,
rightside,
rightside,
shiftstem
);
GaMk5bB7DR = (
leftside,
leftside,
rightside,
rightside,
shiftstem,
leftside,
shiftdown,
leftside,
rightside,
rightside,
shiftstem,
leftside,
leftside,
rightside,
rightside,
shiftstem,
leftside,
leftside,
rightside,
rightside,
shiftstem
);
N3Yjzxbj88 = (
leftside,
leftside,
rightside,
rightside,
shiftstem,
leftside,
shiftdown,
leftside,
rightside,
rightside,
shiftstem,
leftside,
leftside,
rightside,
rightside,
shiftstem,
leftside,
leftside,
rightside,
rightside,
shiftstem
);
O3YubNnacO = (
leftside,
leftside,
rightside,
rightside,
shiftstem
);
cR3kL9Ehcu = (
leftside,
leftside,
rightside,
rightside,
shiftstem,
leftside,
shiftdown,
leftside,
rightside,
rightside,
shiftstem,
leftside,
leftside,
rightside,
rightside,
shiftstem,
leftside,
leftside,
rightside,
rightside,
shiftstem
);
ceFvMk9BBo = (
leftside,
leftside,
rightside,
rightside,
shiftstem
);
czpj5jP2o1 = (
leftside,
leftside,
rightside,
rightside,
shiftstem
);
fB69TbcHQR = (
leftside,
leftside,
rightside,
rightside,
shiftstem,
leftside,
shiftdown,
leftside,
rightside,
rightside,
shiftstem,
leftside,
leftside,
rightside,
rightside,
shiftstem,
leftside,
leftside,
rightside,
rightside,
shiftstem
);
hvBQuBUzS5 = (
leftside,
leftside,
rightside,
rightside,
shiftstem
);
l3jugDCgZp = (
leftside,
leftside,
rightside,
rightside,
shiftstem
);
q5rffo9NOb = (
leftside,
leftside,
rightside,
rightside,
shiftstem,
leftside,
shiftdown,
leftside,
rightside,
rightside,
shiftstem,
leftside,
leftside,
rightside,
rightside,
shiftstem,
leftside,
leftside,
rightside,
rightside,
shiftstem
);
rc1RBgs7MK = (
leftside,
leftside,
rightside,
rightside,
shiftstem
);
rfY4yi4WM7 = (
leftside,
leftside,
rightside,
rightside,
shiftstem
);
s8LitYzs32 = (
leftside,
leftside,
rightside,
rightside,
shiftstem
);
};
};
width = 248;
},
{
layerId = "628C7BDB-7DBE-4EE3-879C-693AF95326D4";
paths = (
{
closed = 1;
nodes = (
"350 0 LINE",
"350 619 LINE",
"340 619 LINE",
"417 0 LINE",
"808 0 LINE",
"886 620 LINE",
"878 620 LINE",
"878 0 LINE",
"1207 0 LINE",
"1207 750 LINE",
"686 750 LINE",
"628 115 LINE",
"610 115 LINE",
"551 750 LINE",
"31 750 LINE",
"31 0 LINE"
);
}
);
width = 1238;
},
{
layerId = "B41498C8-9825-4C4A-856B-8BEA93F27BCF";
paths = (
{
closed = 1;
nodes = (
"350 0 LINE",
"350 619 LINE",
"370 619 LINE",
"444 0 LINE",
"775 0 LINE",
"856 620 LINE",
"878 620 LINE",
"878 0 LINE",
"1207 0 LINE",
"1207 750 LINE",
"686 750 LINE",
"628 115 LINE",
"610 115 LINE",
"551 750 LINE",
"31 750 LINE",
"31 0 LINE"
);
}
);
width = 1238;
},
{
layerId = "7F3C6EE5-2603-4259-9F13-C30BB9E194E1";
paths = (
{
closed = 1;
nodes = (
"51 0 LINE",
"51 728 LINE",
"64 728 LINE",
"93 110 LINE",
"153 110 LINE",
"181 729 LINE",
"197 729 LINE",
"197 0 LINE",
"228 0 LINE",
"228 750 LINE",
"151 750 LINE",
"126 132 LINE",
"120 132 LINE",
"94 750 LINE",
"20 750 LINE",
"20 0 LINE"
);
}
);
userData = {
com.schriftgestaltung.Glyphs.lastChange = "2019-04-28 05:35:59 +0000";
com.typemytype.robofont.pointLabels = {
0IVF7y8NCN = (
leftside,
leftside,
rightside,
rightside,
shiftstem,
leftside,
shiftdown,
leftside,
rightside,
rightside,
shiftstem,
leftside,
leftside,
rightside,
rightside,
shiftstem,
leftside,
leftside,
rightside,
rightside,
shiftstem
);
4t8tj5JGI4 = (
leftside,
leftside,
rightside,
rightside,
shiftstem
);
5TFRebmDRK = (
leftside,
leftside,
rightside,
rightside,
shiftstem
);
GaMk5bB7DR = (
leftside,
leftside,
rightside,
rightside,
shiftstem,
leftside,
shiftdown,
leftside,
rightside,
rightside,
shiftstem,
leftside,
leftside,
rightside,
rightside,
shiftstem,
leftside,
leftside,
rightside,
rightside,
shiftstem
);
N3Yjzxbj88 = (
leftside,
leftside,
rightside,
rightside,
shiftstem,
leftside,
shiftdown,
leftside,
rightside,
rightside,
shiftstem,
leftside,
leftside,
rightside,
rightside,
shiftstem,
leftside,
leftside,
rightside,
rightside,
shiftstem
);
O3YubNnacO = (
leftside,
leftside,
rightside,
rightside,
shiftstem
);
cR3kL9Ehcu = (
leftside,
leftside,
rightside,
rightside,
shiftstem,
leftside,
shiftdown,
leftside,
rightside,
rightside,
shiftstem,
leftside,
leftside,
rightside,
rightside,
shiftstem,
leftside,
leftside,
rightside,
rightside,
shiftstem
);
ceFvMk9BBo = (
leftside,
leftside,
rightside,
rightside,
shiftstem
);
czpj5jP2o1 = (
leftside,
leftside,
rightside,
rightside,
shiftstem
);
fB69TbcHQR = (
leftside,
leftside,
rightside,
rightside,
shiftstem,
leftside,
shiftdown,
leftside,
rightside,
rightside,
shiftstem,
leftside,
leftside,
rightside,
rightside,
shiftstem,
leftside,
leftside,
rightside,
rightside,
shiftstem
);
hvBQuBUzS5 = (
leftside,
leftside,
rightside,
rightside,
shiftstem
);
l3jugDCgZp = (
leftside,
leftside,
rightside,
rightside,
shiftstem
);
q5rffo9NOb = (
leftside,
leftside,
rightside,
rightside,
shiftstem,
leftside,
shiftdown,
leftside,
rightside,
rightside,
shiftstem,
leftside,
leftside,
rightside,
rightside,
shiftstem,
leftside,
leftside,
rightside,
rightside,
shiftstem
);
rc1RBgs7MK = (
leftside,
leftside,
rightside,
rightside,
shiftstem
);
rfY4yi4WM7 = (
leftside,
leftside,
rightside,
rightside,
shiftstem
);
s8LitYzs32 = (
leftside,
leftside,
rightside,
rightside,
shiftstem
);
};
};
width = 248;
},
{
layerId = "7A9BD435-3083-4FB3-9FE1-50106B21C13B";
paths = (
{
closed = 1;
nodes = (
"87 0 LINE",
"87 718 LINE",
"101 718 LINE",
"638 103 LINE",
"683 103 LINE",
"1217 719 LINE",
"1234 719 LINE",
"1234 0 LINE",
"1275 0 LINE",
"1275 750 LINE",
"1185 750 LINE",
"663 142 LINE",
"657 142 LINE",
"135 750 LINE",
"46 750 LINE",
"46 0 LINE"
);
}
);
width = 1321;
},
{
layerId = "401C54E9-F42A-49C7-842E-99B3D4FBDAC0";
paths = (
{
closed = 1;
nodes = (
"504 0 LINE",
"504 583 LINE",
"549 583 LINE",
"789 96 LINE",
"1319 96 LINE",
"1556 584 LINE",
"1601 584 LINE",
"1601 0 LINE",
"2041 0 LINE",
"2041 750 LINE",
"1266 750 LINE",
"1067 272 LINE",
"1038 272 LINE",
"839 750 LINE",
"64 750 LINE",
"64 0 LINE"
);
}
);
width = 2105;
},
{
layerId = "5B01A85C-72B1-477B-9F3C-4C3A665051AF";
paths = (
{
closed = 1;
nodes = (
"350 0 LINE",
"350 619 LINE",
"370 619 LINE",
"444 0 LINE",
"775 0 LINE",
"856 620 LINE",
"878 620 LINE",
"878 0 LINE",
"1207 0 LINE",
"1207 750 LINE",
"686 750 LINE",
"628 115 LINE",
"610 115 LINE",
"551 750 LINE",
"31 750 LINE",
"31 0 LINE"
);
}
);
width = 1238;
},
{
layerId = "6A003782-5630-46D5-9AEF-173A49B0B076";
paths = (
{
closed = 1;
nodes = (
"51 0 LINE",
"51 728 LINE",
"64 728 LINE",
"93 110 LINE",
"153 110 LINE",
"181 729 LINE",
"197 729 LINE",
"197 0 LINE",
"228 0 LINE",
"228 750 LINE",
"151 750 LINE",
"126 132 LINE",
"120 132 LINE",
"94 750 LINE",
"20 750 LINE",
"20 0 LINE"
);
}
);
userData = {
com.schriftgestaltung.Glyphs.lastChange = "2019-04-28 05:35:59 +0000";
com.typemytype.robofont.pointLabels = {
0IVF7y8NCN = (
leftside,
leftside,
rightside,
rightside,
shiftstem,
leftside,
shiftdown,
leftside,
rightside,
rightside,
shiftstem,
leftside,
leftside,
rightside,
rightside,
shiftstem,
leftside,
leftside,
rightside,
rightside,
shiftstem
);
4t8tj5JGI4 = (
leftside,
leftside,
rightside,
rightside,
shiftstem
);
5TFRebmDRK = (
leftside,
leftside,
rightside,
rightside,
shiftstem
);
GaMk5bB7DR = (
leftside,
leftside,
rightside,
rightside,
shiftstem,
leftside,
shiftdown,
leftside,
rightside,
rightside,
shiftstem,
leftside,
leftside,
rightside,
rightside,
shiftstem,
leftside,
leftside,
rightside,
rightside,
shiftstem
);
N3Yjzxbj88 = (
leftside,
leftside,
rightside,
rightside,
shiftstem,
leftside,
shiftdown,
leftside,
rightside,
rightside,
shiftstem,
leftside,
leftside,
rightside,
rightside,
shiftstem,
leftside,
leftside,
rightside,
rightside,
shiftstem
);
O3YubNnacO = (
leftside,
leftside,
rightside,
rightside,
shiftstem
);
cR3kL9Ehcu = (
leftside,
leftside,
rightside,
rightside,
shiftstem,
leftside,
shiftdown,
leftside,
rightside,
rightside,
shiftstem,
leftside,
leftside,
rightside,
rightside,
shiftstem,
leftside,
leftside,
rightside,
rightside,
shiftstem
);
ceFvMk9BBo = (
leftside,
leftside,
rightside,
rightside,
shiftstem
);
czpj5jP2o1 = (
leftside,
leftside,
rightside,
rightside,
shiftstem
);
fB69TbcHQR = (
leftside,
leftside,
rightside,
rightside,
shiftstem,
leftside,
shiftdown,
leftside,
rightside,
rightside,
shiftstem,
leftside,
leftside,
rightside,
rightside,
shiftstem,
leftside,
leftside,
rightside,
rightside,
shiftstem
);
hvBQuBUzS5 = (
leftside,
leftside,
rightside,
rightside,
shiftstem
);
l3jugDCgZp = (
leftside,
leftside,
rightside,
rightside,
shiftstem
);
q5rffo9NOb = (
leftside,
leftside,
rightside,
rightside,
shiftstem,
leftside,
shiftdown,
leftside,
rightside,
rightside,
shiftstem,
leftside,
leftside,
rightside,
rightside,
shiftstem,
leftside,
leftside,
rightside,
rightside,
shiftstem
);
rc1RBgs7MK = (
leftside,
leftside,
rightside,
rightside,
shiftstem
);
rfY4yi4WM7 = (
leftside,
leftside,
rightside,
rightside,
shiftstem
);
s8LitYzs32 = (
leftside,
leftside,
rightside,
rightside,
shiftstem
);
};
};
width = 248;
},
{
layerId = "9EF6E879-D021-4626-8F52-6D74284C4DC7";
paths = (
{
closed = 1;
nodes = (
"87 0 LINE",
"87 718 LINE",
"101 718 LINE",
"638 103 LINE",
"683 103 LINE",
"1217 719 LINE",
"1234 719 LINE",
"1234 0 LINE",
"1275 0 LINE",
"1275 750 LINE",
"1185 750 LINE",
"663 142 LINE",
"657 142 LINE",
"135 750 LINE",
"46 750 LINE",
"46 0 LINE"
);
}
);
width = 1321;
},
{
layerId = "FEE31BD6-05B9-4F93-BD72-F1214701600E";
paths = (
{
closed = 1;
nodes = (
"504 0 LINE",
"504 583 LINE",
"549 583 LINE",
"789 96 LINE",
"1319 96 LINE",
"1556 584 LINE",
"1601 584 LINE",
"1601 0 LINE",
"2041 0 LINE",
"2041 750 LINE",
"1266 750 LINE",
"1067 272 LINE",
"1038 272 LINE",
"839 750 LINE",
"64 750 LINE",
"64 0 LINE"
);
}
);
width = 2105;
}
);
unicode = 004D;
},
{
glyphname = N;
lastChange = "2019-09-08 22:09:38 +0000";
layers = (
{
layerId = "41E2CF60-9A62-485C-A680-66BBCCBE3685";
paths = (
{
closed = 1;
nodes = (
"504 0 LINE",
"504 588 LINE",
"484 588 LINE",
"1282 0 LINE",
"1928 0 LINE",
"1928 750 LINE",
"1488 750 LINE",
"1488 163 LINE",
"1509 163 LINE",
"703 750 LINE",
"64 750 LINE",
"64 0 LINE"
);
}
);
width = 1992;
},
{
layerId = "C9BA7AB2-4C39-4898-B0E1-23BE521DA8C1";
paths = (
{
closed = 1;
nodes = (
"88 0 LINE",
"88 718 LINE",
"114 718 LINE",
"1125 0 LINE",
"1219 0 LINE",
"1219 750 LINE",
"1178 750 LINE",
"1178 34 LINE",
"1152 34 LINE",
"140 750 LINE",
"46 750 LINE",
"46 0 LINE"
);
}
);
width = 1265;
},
{
layerId = "1577B97C-DCC5-4AA4-842F-E9BB22E99E3C";
paths = (
{
closed = 1;
nodes = (
"51 0 LINE",
"51 728 LINE",
"62 728 LINE",
"106 0 LINE",
"172 0 LINE",
"172 750 LINE",
"141 750 LINE",
"141 24 LINE",
"133 24 LINE",
"88 750 LINE",
"20 750 LINE",
"20 0 LINE"
);
}
);
userData = {
com.schriftgestaltung.Glyphs.lastChange = "2019-04-28 05:35:59 +0000";
com.typemytype.robofont.pointLabels = {
1omi5wQQzW = (
shiftstem
);
7wBal5jvPQ = (
shiftstem,
shiftstem,
shiftdown
);
DYg9JHyygg = (
shiftstem,
shiftstem,
shiftdown
);
HgG4gyE7AV = (
shiftstem,
shiftstem,
shiftdown
);
Icsrkoeq5r = (
leftside
);
MWbbTwGkbG = (
leftside
);
Mm9MihPC9S = (
shiftstem,
shiftstem,
rightside
);
RZjfuiFaWd = (
shiftstem,
shiftstem,
shiftdown
);
ZsB4bFWMAS = (
shiftstem,
shiftstem,
rightside
);
j2qkgH7CJF = (
shiftstem
);
};
};
width = 192;
},
{
layerId = "628C7BDB-7DBE-4EE3-879C-693AF95326D4";
paths = (
{
closed = 1;
nodes = (
"328 0 LINE",
"328 599 LINE",
"336 599 LINE",
"414 0 LINE",
"925 0 LINE",
"925 750 LINE",
"636 750 LINE",
"636 178 LINE",
"625 178 LINE",
"553 750 LINE",
"31 750 LINE",
"31 0 LINE"
);
}
);
width = 956;
},
{
layerId = "B41498C8-9825-4C4A-856B-8BEA93F27BCF";
paths = (
{
closed = 1;
nodes = (
"328 0 LINE",
"328 599 LINE",
"336 599 LINE",
"414 0 LINE",
"925 0 LINE",
"925 750 LINE",
"636 750 LINE",
"636 178 LINE",
"625 178 LINE",
"553 750 LINE",
"31 750 LINE",
"31 0 LINE"
);
}
);
width = 956;
},
{
layerId = "7F3C6EE5-2603-4259-9F13-C30BB9E194E1";
paths = (
{
closed = 1;
nodes = (
"51 0 LINE",
"51 728 LINE",
"62 728 LINE",
"106 0 LINE",
"172 0 LINE",
"172 750 LINE",
"141 750 LINE",
"141 24 LINE",
"133 24 LINE",
"88 750 LINE",
"20 750 LINE",
"20 0 LINE"
);
}
);
userData = {
com.schriftgestaltung.Glyphs.lastChange = "2019-04-28 05:35:59 +0000";
com.typemytype.robofont.pointLabels = {
1omi5wQQzW = (
shiftstem
);
7wBal5jvPQ = (
shiftstem,
shiftstem,
shiftdown
);
DYg9JHyygg = (
shiftstem,
shiftstem,
shiftdown
);
HgG4gyE7AV = (
shiftstem,
shiftstem,
shiftdown
);
Icsrkoeq5r = (
leftside
);
MWbbTwGkbG = (
leftside
);
Mm9MihPC9S = (
shiftstem,
shiftstem,
rightside
);
RZjfuiFaWd = (
shiftstem,
shiftstem,
shiftdown
);
ZsB4bFWMAS = (
shiftstem,
shiftstem,
rightside
);
j2qkgH7CJF = (
shiftstem
);
};
};
width = 192;
},
{
layerId = "7A9BD435-3083-4FB3-9FE1-50106B21C13B";
paths = (
{
closed = 1;
nodes = (
"88 0 LINE",
"88 718 LINE",
"114 718 LINE",
"1125 0 LINE",
"1219 0 LINE",
"1219 750 LINE",
"1178 750 LINE",
"1178 34 LINE",
"1152 34 LINE",
"140 750 LINE",
"46 750 LINE",
"46 0 LINE"
);
}
);
width = 1265;
},
{
layerId = "401C54E9-F42A-49C7-842E-99B3D4FBDAC0";
paths = (
{
closed = 1;
nodes = (
"504 0 LINE",
"504 588 LINE",
"484 588 LINE",
"1282 0 LINE",
"1928 0 LINE",
"1928 750 LINE",
"1488 750 LINE",
"1488 163 LINE",
"1509 163 LINE",
"703 750 LINE",
"64 750 LINE",
"64 0 LINE"
);
}
);
width = 1992;
},
{
layerId = "5B01A85C-72B1-477B-9F3C-4C3A665051AF";
paths = (
{
closed = 1;
nodes = (
"328 0 LINE",
"328 599 LINE",
"336 599 LINE",
"414 0 LINE",
"925 0 LINE",
"925 750 LINE",
"636 750 LINE",
"636 178 LINE",
"625 178 LINE",
"553 750 LINE",
"31 750 LINE",
"31 0 LINE"
);
}
);
width = 956;
},
{
layerId = "6A003782-5630-46D5-9AEF-173A49B0B076";
paths = (
{
closed = 1;
nodes = (
"51 0 LINE",
"51 728 LINE",
"62 728 LINE",
"106 0 LINE",
"172 0 LINE",
"172 750 LINE",
"141 750 LINE",
"141 24 LINE",
"133 24 LINE",
"88 750 LINE",
"20 750 LINE",
"20 0 LINE"
);
}
);
userData = {
com.schriftgestaltung.Glyphs.lastChange = "2019-04-28 05:35:59 +0000";
com.typemytype.robofont.pointLabels = {
1omi5wQQzW = (
shiftstem
);
7wBal5jvPQ = (
shiftstem,
shiftstem,
shiftdown
);
DYg9JHyygg = (
shiftstem,
shiftstem,
shiftdown
);
HgG4gyE7AV = (
shiftstem,
shiftstem,
shiftdown
);
Icsrkoeq5r = (
leftside
);
MWbbTwGkbG = (
leftside
);
Mm9MihPC9S = (
shiftstem,
shiftstem,
rightside
);
RZjfuiFaWd = (
shiftstem,
shiftstem,
shiftdown
);
ZsB4bFWMAS = (
shiftstem,
shiftstem,
rightside
);
j2qkgH7CJF = (
shiftstem
);
};
};
width = 192;
},
{
layerId = "9EF6E879-D021-4626-8F52-6D74284C4DC7";
paths = (
{
closed = 1;
nodes = (
"88 0 LINE",
"88 718 LINE",
"114 718 LINE",
"1125 0 LINE",
"1219 0 LINE",
"1219 750 LINE",
"1178 750 LINE",
"1178 34 LINE",
"1152 34 LINE",
"140 750 LINE",
"46 750 LINE",
"46 0 LINE"
);
}
);
width = 1265;
},
{
layerId = "FEE31BD6-05B9-4F93-BD72-F1214701600E";
paths = (
{
closed = 1;
nodes = (
"504 0 LINE",
"504 588 LINE",
"484 588 LINE",
"1282 0 LINE",
"1928 0 LINE",
"1928 750 LINE",
"1488 750 LINE",
"1488 163 LINE",
"1509 163 LINE",
"703 750 LINE",
"64 750 LINE",
"64 0 LINE"
);
}
);
width = 1992;
}
);
unicode = 004E;
},
{
glyphname = O;
lastChange = "2019-09-09 01:41:16 +0000";
layers = (
{
layerId = "41E2CF60-9A62-485C-A680-66BBCCBE3685";
paths = (
{
closed = 1;
nodes = (
"1617 0 LINE",
"1851 238 LINE",
"1851 750 LINE",
"316 750 LINE",
"75 501 LINE",
"75 0 LINE"
);
},
{
closed = 1;
nodes = (
"515 386 LINE",
"706 594 LINE",
"1411 594 LINE",
"1411 355 LINE",
"1217 156 LINE",
"515 156 LINE"
);
}
);
width = 1921;
},
{
layerId = "C9BA7AB2-4C39-4898-B0E1-23BE521DA8C1";
paths = (
{
closed = 1;
nodes = (
"1064 0 LINE",
"1187 152 LINE",
"1187 750 LINE",
"169 750 LINE",
"46 596 LINE",
"46 0 LINE"
);
},
{
closed = 1;
nodes = (
"87 584 LINE",
"196 718 LINE",
"1146 718 LINE",
"1146 166 LINE",
"1036 32 LINE",
"87 32 LINE"
);
}
);
width = 1233;
},
{
layerId = "1577B97C-DCC5-4AA4-842F-E9BB22E99E3C";
paths = (
{
closed = 1;
nodes = (
"111 0 LINE",
"142 62 LINE",
"142 750 LINE",
"51 750 LINE",
"20 688 LINE",
"20 0 LINE"
);
},
{
closed = 1;
nodes = (
"51 684 LINE",
"73 728 LINE",
"111 728 LINE",
"111 66 LINE",
"89 22 LINE",
"51 22 LINE"
);
}
);
userData = {
com.schriftgestaltung.Glyphs.lastChange = "2019-08-12 16:07:16 +0000";
com.typemytype.robofont.pointLabels = {
SnrsQD5TLy = (
rightside,
rightside,
rightside,
shiftstem,
leftside,
leftside,
shiftstem,
leftside,
leftside,
shiftdown,
leftside,
shiftstem,
leftside,
leftside,
leftside,
shiftstem,
leftside,
leftside,
leftside,
shiftstem,
leftside,
leftside,
shiftdown,
leftside,
shiftstem,
leftside,
leftside,
leftside,
shiftstem,
leftside,
leftside,
leftside,
shiftstem,
leftside,
leftside,
shiftdown,
leftside,
shiftstem,
leftside,
leftside,
leftside,
shiftstem,
leftside
);
U6WibAQAUl = (
leftside,
leftside,
leftside
);
YbQKHpAtYn = (
shiftstem,
shiftdown,
shiftstem,
leftside,
leftside,
leftside,
shiftstem,
leftside,
leftside,
leftside,
shiftstem,
leftside,
leftside,
shiftdown,
leftside,
shiftstem,
leftside,
leftside,
leftside,
shiftstem,
leftside
);
a4Ql951bxG = (
leftside,
leftside,
leftside
);
c9brEFyXXA = (
rightside,
rightside,
rightside,
shiftstem,
leftside,
leftside,
shiftstem,
leftside,
leftside,
shiftdown,
leftside,
shiftstem,
leftside,
leftside,
leftside,
shiftstem,
leftside,
leftside,
leftside,
shiftstem,
leftside,
leftside,
shiftdown,
leftside,
shiftstem,
leftside,
leftside,
leftside,
shiftstem,
leftside,
leftside,
leftside,
shiftstem,
leftside,
leftside,
shiftdown,
leftside,
shiftstem,
leftside,
leftside,
leftside,
shiftstem,
leftside
);
dfgNHTgBfR = (
rightside,
rightside,
rightside,
shiftstem,
leftside,
leftside,
shiftstem,
leftside,
leftside,
shiftdown,
leftside,
shiftstem,
leftside,
leftside,
leftside,
shiftstem,
leftside,
leftside,
leftside,
shiftstem,
leftside,
leftside,
shiftdown,
leftside,
shiftstem,
leftside,
leftside,
leftside,
shiftstem,
leftside,
leftside,
leftside,
shiftstem,
leftside,
leftside,
shiftdown,
leftside,
shiftstem,
leftside,
leftside,
leftside,
shiftstem,
leftside
);
g70r2r6DwY = (
rightside,
rightside,
rightside,
shiftstem,
leftside,
leftside,
shiftstem,
leftside,
leftside,
shiftdown,
leftside,
shiftstem,
leftside,
leftside,
leftside,
shiftstem,
leftside,
leftside,
leftside,
shiftstem,
leftside,
leftside,
shiftdown,
leftside,
shiftstem,
leftside,
leftside,
leftside,
shiftstem,
leftside,
leftside,
leftside,
shiftstem,
leftside,
leftside,
shiftdown,
leftside,
shiftstem,
leftside,
leftside,
leftside,
shiftstem,
leftside
);
jjd5iRDXWT = (
rightside,
rightside,
rightside,
shiftstem,
leftside,
leftside,
shiftstem,
leftside,
leftside,
shiftdown,
leftside,
shiftstem,
leftside,
leftside,
leftside,
shiftstem,
leftside,
leftside,
leftside,
shiftstem,
leftside,
leftside,
shiftdown,
leftside,
shiftstem,
leftside,
leftside,
leftside,
shiftstem,
leftside,
leftside,
leftside,
shiftstem,
leftside,
leftside,
shiftdown,
leftside,
shiftstem,
leftside,
leftside,
leftside,
shiftstem,
leftside
);
kbL68Qh2zr = (
leftside,
leftside,
leftside
);
ob8US3C311 = (
rightside,
rightside,
rightside,
shiftstem,
leftside,
leftside,
shiftstem,
leftside,
leftside,
shiftdown,
leftside,
shiftstem,
leftside,
leftside,
leftside,
shiftstem,
leftside,
leftside,
leftside,
shiftstem,
leftside,
leftside,
shiftdown,
leftside,
shiftstem,
leftside,
leftside,
leftside,
shiftstem,
leftside,
leftside,
leftside,
shiftstem,
leftside,
leftside,
shiftdown,
leftside,
shiftstem,
leftside,
leftside,
leftside,
shiftstem,
leftside
);
qXlVxK5ShE = (
leftside,
leftside,
shiftstem,
leftside,
leftside,
shiftdown,
leftside,
shiftstem,
leftside,
leftside,
leftside,
shiftstem,
leftside
);
vdfGLkskOQ = (
shiftstem,
shiftdown,
shiftstem,
leftside,
leftside,
leftside,
shiftstem,
leftside,
leftside,
leftside,
shiftstem,
leftside,
leftside,
shiftdown,
leftside,
shiftstem,
leftside,
leftside,
leftside,
shiftstem,
leftside
);
};
};
width = 162;
},
{
layerId = "628C7BDB-7DBE-4EE3-879C-693AF95326D4";
paths = (
{
closed = 1;
nodes = (
"747 0 LINE",
"808 162 LINE",
"808 750 LINE",
"104 750 LINE",
"26 564 LINE",
"26 0 LINE"
);
},
{
closed = 1;
nodes = (
"365 485 LINE",
"419 653 LINE",
"469 653 LINE",
"469 241 LINE",
"414 97 LINE",
"365 97 LINE"
);
}
);
width = 834;
},
{
layerId = "B41498C8-9825-4C4A-856B-8BEA93F27BCF";
paths = (
{
closed = 1;
nodes = (
"747 0 LINE",
"808 162 LINE",
"808 750 LINE",
"104 750 LINE",
"26 564 LINE",
"26 0 LINE"
);
},
{
closed = 1;
nodes = (
"365 485 LINE",
"419 653 LINE",
"469 653 LINE",
"469 241 LINE",
"414 97 LINE",
"365 97 LINE"
);
}
);
width = 834;
},
{
layerId = "7F3C6EE5-2603-4259-9F13-C30BB9E194E1";
paths = (
{
closed = 1;
nodes = (
"111 0 LINE",
"142 62 LINE",
"142 750 LINE",
"51 750 LINE",
"20 688 LINE",
"20 0 LINE"
);
},
{
closed = 1;
nodes = (
"51 684 LINE",
"73 728 LINE",
"111 728 LINE",
"111 66 LINE",
"89 22 LINE",
"51 22 LINE"
);
}
);
userData = {
com.schriftgestaltung.Glyphs.lastChange = "2019-08-12 16:07:16 +0000";
com.typemytype.robofont.pointLabels = {
SnrsQD5TLy = (
rightside,
rightside,
rightside,
shiftstem,
leftside,
leftside,
shiftstem,
leftside,
leftside,
shiftdown,
leftside,
shiftstem,
leftside,
leftside,
leftside,
shiftstem,
leftside,
leftside,
leftside,
shiftstem,
leftside,
leftside,
shiftdown,
leftside,
shiftstem,
leftside,
leftside,
leftside,
shiftstem,
leftside,
leftside,
leftside,
shiftstem,
leftside,
leftside,
shiftdown,
leftside,
shiftstem,
leftside,
leftside,
leftside,
shiftstem,
leftside
);
U6WibAQAUl = (
leftside,
leftside,
leftside
);
YbQKHpAtYn = (
shiftstem,
shiftdown,
shiftstem,
leftside,
leftside,
leftside,
shiftstem,
leftside,
leftside,
leftside,
shiftstem,
leftside,
leftside,
shiftdown,
leftside,
shiftstem,
leftside,
leftside,
leftside,
shiftstem,
leftside
);
a4Ql951bxG = (
leftside,
leftside,
leftside
);
c9brEFyXXA = (
rightside,
rightside,
rightside,
shiftstem,
leftside,
leftside,
shiftstem,
leftside,
leftside,
shiftdown,
leftside,
shiftstem,
leftside,
leftside,
leftside,
shiftstem,
leftside,
leftside,
leftside,
shiftstem,
leftside,
leftside,
shiftdown,
leftside,
shiftstem,
leftside,
leftside,
leftside,
shiftstem,
leftside,
leftside,
leftside,
shiftstem,
leftside,
leftside,
shiftdown,
leftside,
shiftstem,
leftside,
leftside,
leftside,
shiftstem,
leftside
);
dfgNHTgBfR = (
rightside,
rightside,
rightside,
shiftstem,
leftside,
leftside,
shiftstem,
leftside,
leftside,
shiftdown,
leftside,
shiftstem,
leftside,
leftside,
leftside,
shiftstem,
leftside,
leftside,
leftside,
shiftstem,
leftside,
leftside,
shiftdown,
leftside,
shiftstem,
leftside,
leftside,
leftside,
shiftstem,
leftside,
leftside,
leftside,
shiftstem,
leftside,
leftside,
shiftdown,
leftside,
shiftstem,
leftside,
leftside,
leftside,
shiftstem,
leftside
);
g70r2r6DwY = (
rightside,
rightside,
rightside,
shiftstem,
leftside,
leftside,
shiftstem,
leftside,
leftside,
shiftdown,
leftside,
shiftstem,
leftside,
leftside,
leftside,
shiftstem,
leftside,
leftside,
leftside,
shiftstem,
leftside,
leftside,
shiftdown,
leftside,
shiftstem,
leftside,
leftside,
leftside,
shiftstem,
leftside,
leftside,
leftside,
shiftstem,
leftside,
leftside,
shiftdown,
leftside,
shiftstem,
leftside,
leftside,
leftside,
shiftstem,
leftside
);
jjd5iRDXWT = (
rightside,
rightside,
rightside,
shiftstem,
leftside,
leftside,
shiftstem,
leftside,
leftside,
shiftdown,
leftside,
shiftstem,
leftside,
leftside,
leftside,
shiftstem,
leftside,
leftside,
leftside,
shiftstem,
leftside,
leftside,
shiftdown,
leftside,
shiftstem,
leftside,
leftside,
leftside,
shiftstem,
leftside,
leftside,
leftside,
shiftstem,
leftside,
leftside,
shiftdown,
leftside,
shiftstem,
leftside,
leftside,
leftside,
shiftstem,
leftside
);
kbL68Qh2zr = (
leftside,
leftside,
leftside
);
ob8US3C311 = (
rightside,
rightside,
rightside,
shiftstem,
leftside,
leftside,
shiftstem,
leftside,
leftside,
shiftdown,
leftside,
shiftstem,
leftside,
leftside,
leftside,
shiftstem,
leftside,
leftside,
leftside,
shiftstem,
leftside,
leftside,
shiftdown,
leftside,
shiftstem,
leftside,
leftside,
leftside,
shiftstem,
leftside,
leftside,
leftside,
shiftstem,
leftside,
leftside,
shiftdown,
leftside,
shiftstem,
leftside,
leftside,
leftside,
shiftstem,
leftside
);
qXlVxK5ShE = (
leftside,
leftside,
shiftstem,
leftside,
leftside,
shiftdown,
leftside,
shiftstem,
leftside,
leftside,
leftside,
shiftstem,
leftside
);
vdfGLkskOQ = (
shiftstem,
shiftdown,
shiftstem,
leftside,
leftside,
leftside,
shiftstem,
leftside,
leftside,
leftside,
shiftstem,
leftside,
leftside,
shiftdown,
leftside,
shiftstem,
leftside,
leftside,
leftside,
shiftstem,
leftside
);
};
};
width = 162;
},
{
layerId = "7A9BD435-3083-4FB3-9FE1-50106B21C13B";
paths = (
{
closed = 1;
nodes = (
"1064 0 LINE",
"1187 152 LINE",
"1187 750 LINE",
"169 750 LINE",
"46 596 LINE",
"46 0 LINE"
);
},
{
closed = 1;
nodes = (
"87 584 LINE",
"196 718 LINE",
"1146 718 LINE",
"1146 166 LINE",
"1036 32 LINE",
"87 32 LINE"
);
}
);
width = 1233;
},
{
layerId = "401C54E9-F42A-49C7-842E-99B3D4FBDAC0";
paths = (
{
closed = 1;
nodes = (
"1617 0 LINE",
"1851 238 LINE",
"1851 750 LINE",
"316 750 LINE",
"75 501 LINE",
"75 0 LINE"
);
},
{
closed = 1;
nodes = (
"515 386 LINE",
"706 594 LINE",
"1411 594 LINE",
"1411 355 LINE",
"1217 156 LINE",
"515 156 LINE"
);
}
);
width = 1921;
},
{
layerId = "5B01A85C-72B1-477B-9F3C-4C3A665051AF";
paths = (
{
closed = 1;
nodes = (
"747 0 LINE",
"808 162 LINE",
"808 750 LINE",
"104 750 LINE",
"26 564 LINE",
"26 0 LINE"
);
},
{
closed = 1;
nodes = (
"365 485 LINE",
"419 653 LINE",
"469 653 LINE",
"469 241 LINE",
"414 97 LINE",
"365 97 LINE"
);
}
);
width = 834;
},
{
layerId = "6A003782-5630-46D5-9AEF-173A49B0B076";
paths = (
{
closed = 1;
nodes = (
"111 0 LINE",
"142 62 LINE",
"142 750 LINE",
"51 750 LINE",
"20 688 LINE",
"20 0 LINE"
);
},
{
closed = 1;
nodes = (
"51 684 LINE",
"73 728 LINE",
"111 728 LINE",
"111 66 LINE",
"89 22 LINE",
"51 22 LINE"
);
}
);
userData = {
com.schriftgestaltung.Glyphs.lastChange = "2019-08-12 16:07:16 +0000";
com.typemytype.robofont.pointLabels = {
SnrsQD5TLy = (
rightside,
rightside,
rightside,
shiftstem,
leftside,
leftside,
shiftstem,
leftside,
leftside,
shiftdown,
leftside,
shiftstem,
leftside,
leftside,
leftside,
shiftstem,
leftside,
leftside,
leftside,
shiftstem,
leftside,
leftside,
shiftdown,
leftside,
shiftstem,
leftside,
leftside,
leftside,
shiftstem,
leftside,
leftside,
leftside,
shiftstem,
leftside,
leftside,
shiftdown,
leftside,
shiftstem,
leftside,
leftside,
leftside,
shiftstem,
leftside
);
U6WibAQAUl = (
leftside,
leftside,
leftside
);
YbQKHpAtYn = (
shiftstem,
shiftdown,
shiftstem,
leftside,
leftside,
leftside,
shiftstem,
leftside,
leftside,
leftside,
shiftstem,
leftside,
leftside,
shiftdown,
leftside,
shiftstem,
leftside,
leftside,
leftside,
shiftstem,
leftside
);
a4Ql951bxG = (
leftside,
leftside,
leftside
);
c9brEFyXXA = (
rightside,
rightside,
rightside,
shiftstem,
leftside,
leftside,
shiftstem,
leftside,
leftside,
shiftdown,
leftside,
shiftstem,
leftside,
leftside,
leftside,
shiftstem,
leftside,
leftside,
leftside,
shiftstem,
leftside,
leftside,
shiftdown,
leftside,
shiftstem,
leftside,
leftside,
leftside,
shiftstem,
leftside,
leftside,
leftside,
shiftstem,
leftside,
leftside,
shiftdown,
leftside,
shiftstem,
leftside,
leftside,
leftside,
shiftstem,
leftside
);
dfgNHTgBfR = (
rightside,
rightside,
rightside,
shiftstem,
leftside,
leftside,
shiftstem,
leftside,
leftside,
shiftdown,
leftside,
shiftstem,
leftside,
leftside,
leftside,
shiftstem,
leftside,
leftside,
leftside,
shiftstem,
leftside,
leftside,
shiftdown,
leftside,
shiftstem,
leftside,
leftside,
leftside,
shiftstem,
leftside,
leftside,
leftside,
shiftstem,
leftside,
leftside,
shiftdown,
leftside,
shiftstem,
leftside,
leftside,
leftside,
shiftstem,
leftside
);
g70r2r6DwY = (
rightside,
rightside,
rightside,
shiftstem,
leftside,
leftside,
shiftstem,
leftside,
leftside,
shiftdown,
leftside,
shiftstem,
leftside,
leftside,
leftside,
shiftstem,
leftside,
leftside,
leftside,
shiftstem,
leftside,
leftside,
shiftdown,
leftside,
shiftstem,
leftside,
leftside,
leftside,
shiftstem,
leftside,
leftside,
leftside,
shiftstem,
leftside,
leftside,
shiftdown,
leftside,
shiftstem,
leftside,
leftside,
leftside,
shiftstem,
leftside
);
jjd5iRDXWT = (
rightside,
rightside,
rightside,
shiftstem,
leftside,
leftside,
shiftstem,
leftside,
leftside,
shiftdown,
leftside,
shiftstem,
leftside,
leftside,
leftside,
shiftstem,
leftside,
leftside,
leftside,
shiftstem,
leftside,
leftside,
shiftdown,
leftside,
shiftstem,
leftside,
leftside,
leftside,
shiftstem,
leftside,
leftside,
leftside,
shiftstem,
leftside,
leftside,
shiftdown,
leftside,
shiftstem,
leftside,
leftside,
leftside,
shiftstem,
leftside
);
kbL68Qh2zr = (
leftside,
leftside,
leftside
);
ob8US3C311 = (
rightside,
rightside,
rightside,
shiftstem,
leftside,
leftside,
shiftstem,
leftside,
leftside,
shiftdown,
leftside,
shiftstem,
leftside,
leftside,
leftside,
shiftstem,
leftside,
leftside,
leftside,
shiftstem,
leftside,
leftside,
shiftdown,
leftside,
shiftstem,
leftside,
leftside,
leftside,
shiftstem,
leftside,
leftside,
leftside,
shiftstem,
leftside,
leftside,
shiftdown,
leftside,
shiftstem,
leftside,
leftside,
leftside,
shiftstem,
leftside
);
qXlVxK5ShE = (
leftside,
leftside,
shiftstem,
leftside,
leftside,
shiftdown,
leftside,
shiftstem,
leftside,
leftside,
leftside,
shiftstem,
leftside
);
vdfGLkskOQ = (
shiftstem,
shiftdown,
shiftstem,
leftside,
leftside,
leftside,
shiftstem,
leftside,
leftside,
leftside,
shiftstem,
leftside,
leftside,
shiftdown,
leftside,
shiftstem,
leftside,
leftside,
leftside,
shiftstem,
leftside
);
};
};
width = 162;
},
{
layerId = "9EF6E879-D021-4626-8F52-6D74284C4DC7";
paths = (
{
closed = 1;
nodes = (
"1064 0 LINE",
"1187 152 LINE",
"1187 750 LINE",
"169 750 LINE",
"46 596 LINE",
"46 0 LINE"
);
},
{
closed = 1;
nodes = (
"87 584 LINE",
"196 718 LINE",
"1146 718 LINE",
"1146 166 LINE",
"1036 32 LINE",
"87 32 LINE"
);
}
);
width = 1233;
},
{
layerId = "FEE31BD6-05B9-4F93-BD72-F1214701600E";
paths = (
{
closed = 1;
nodes = (
"1617 0 LINE",
"1851 238 LINE",
"1851 750 LINE",
"316 750 LINE",
"75 501 LINE",
"75 0 LINE"
);
},
{
closed = 1;
nodes = (
"515 386 LINE",
"706 594 LINE",
"1411 594 LINE",
"1411 355 LINE",
"1217 156 LINE",
"515 156 LINE"
);
}
);
width = 1921;
}
);
unicode = 004F;
},
{
glyphname = P;
lastChange = "2019-09-09 01:12:05 +0000";
layers = (
{
layerId = "41E2CF60-9A62-485C-A680-66BBCCBE3685";
paths = (
{
closed = 1;
nodes = (
"563 0 LINE",
"563 240 LINE",
"1836 329 LINE",
"1836 750 LINE",
"123 750 LINE",
"123 0 LINE"
);
},
{
closed = 1;
nodes = (
"563 594 LINE",
"1396 594 LINE",
"1396 426 LINE",
"563 382 LINE"
);
}
);
width = 1890;
},
{
layerId = "C9BA7AB2-4C39-4898-B0E1-23BE521DA8C1";
paths = (
{
closed = 1;
nodes = (
"88 0 LINE",
"88 325 LINE",
"1150 420 LINE",
"1150 750 LINE",
"46 750 LINE",
"46 0 LINE"
);
},
{
closed = 1;
nodes = (
"88 718 LINE",
"1108 718 LINE",
"1108 447 LINE",
"88 359 LINE"
);
}
);
width = 1170;
},
{
layerId = "1577B97C-DCC5-4AA4-842F-E9BB22E99E3C";
paths = (
{
closed = 1;
nodes = (
"51 0 LINE",
"51 331 LINE",
"134 372 LINE",
"134 750 LINE",
"20 750 LINE",
"20 0 LINE"
);
},
{
closed = 1;
nodes = (
"51 728 LINE",
"103 728 LINE",
"103 385 LINE",
"51 361 LINE"
);
}
);
userData = {
com.schriftgestaltung.Glyphs.lastChange = "2019-04-28 05:35:59 +0000";
com.typemytype.robofont.pointLabels = {
1WCnzth1GX = (
rightside,
rightside,
shiftstem,
shiftdown,
rightside,
shiftstem
);
2c4LCF1E1R = (
rightside,
rightside,
shiftstem,
shiftdown,
rightside,
shiftstem
);
6xW04auDFu = (
rightside,
rightside,
shiftstem
);
EG08jqU5fb = (
leftside
);
IZIZQr2gYJ = (
rightside,
rightside,
shiftstem,
shiftdown,
rightside,
shiftstem
);
PIBVN1PGv1 = (
rightside,
rightside,
shiftstem,
shiftdown,
rightside,
shiftstem
);
Tt6D8zYZmU = (
rightside,
rightside,
shiftstem
);
eETO5GBD5v = (
leftside
);
};
};
width = 147;
},
{
layerId = "628C7BDB-7DBE-4EE3-879C-693AF95326D4";
paths = (
{
closed = 1;
nodes = (
"370 0 LINE",
"370 288 LINE",
"793 348 LINE",
"793 750 LINE",
"31 750 LINE",
"31 0 LINE"
);
},
{
closed = 1;
nodes = (
"370 653 LINE",
"454 653 LINE",
"454 420 LINE",
"370 411 LINE"
);
}
);
width = 804;
},
{
layerId = "B41498C8-9825-4C4A-856B-8BEA93F27BCF";
paths = (
{
closed = 1;
nodes = (
"370 0 LINE",
"370 388 LINE",
"793 448 LINE",
"793 750 LINE",
"31 750 LINE",
"31 0 LINE"
);
},
{
closed = 1;
nodes = (
"370 653 LINE",
"454 653 LINE",
"454 520 LINE",
"370 511 LINE"
);
}
);
width = 804;
},
{
layerId = "7F3C6EE5-2603-4259-9F13-C30BB9E194E1";
paths = (
{
closed = 1;
nodes = (
"51 0 LINE",
"51 441 LINE",
"134 482 LINE",
"134 750 LINE",
"20 750 LINE",
"20 0 LINE"
);
},
{
closed = 1;
nodes = (
"51 728 LINE",
"103 728 LINE",
"103 495 LINE",
"51 471 LINE"
);
}
);
userData = {
com.schriftgestaltung.Glyphs.lastChange = "2019-04-28 05:35:59 +0000";
com.typemytype.robofont.pointLabels = {
1WCnzth1GX = (
rightside,
rightside,
shiftstem,
shiftdown,
rightside,
shiftstem
);
2c4LCF1E1R = (
rightside,
rightside,
shiftstem,
shiftdown,
rightside,
shiftstem
);
6xW04auDFu = (
rightside,
rightside,
shiftstem
);
EG08jqU5fb = (
leftside
);
IZIZQr2gYJ = (
rightside,
rightside,
shiftstem,
shiftdown,
rightside,
shiftstem
);
PIBVN1PGv1 = (
rightside,
rightside,
shiftstem,
shiftdown,
rightside,
shiftstem
);
Tt6D8zYZmU = (
rightside,
rightside,
shiftstem
);
eETO5GBD5v = (
leftside
);
};
};
width = 147;
},
{
layerId = "7A9BD435-3083-4FB3-9FE1-50106B21C13B";
paths = (
{
closed = 1;
nodes = (
"88 0 LINE",
"88 438 LINE",
"1150 533 LINE",
"1150 750 LINE",
"46 750 LINE",
"46 0 LINE"
);
},
{
closed = 1;
nodes = (
"88 718 LINE",
"1108 718 LINE",
"1108 560 LINE",
"88 472 LINE"
);
}
);
width = 1170;
},
{
layerId = "401C54E9-F42A-49C7-842E-99B3D4FBDAC0";
paths = (
{
closed = 1;
nodes = (
"563 0 LINE",
"563 325 LINE",
"1836 419 LINE",
"1836 750 LINE",
"123 750 LINE",
"123 0 LINE"
);
},
{
closed = 1;
nodes = (
"563 594 LINE",
"1396 594 LINE",
"1396 519 LINE",
"563 475 LINE"
);
}
);
width = 1890;
},
{
layerId = "5B01A85C-72B1-477B-9F3C-4C3A665051AF";
paths = (
{
closed = 1;
nodes = (
"370 0 LINE",
"370 159 LINE",
"793 219 LINE",
"793 750 LINE",
"31 750 LINE",
"31 0 LINE"
);
},
{
closed = 1;
nodes = (
"370 653 LINE",
"454 653 LINE",
"454 291 LINE",
"370 282 LINE"
);
}
);
width = 804;
},
{
layerId = "6A003782-5630-46D5-9AEF-173A49B0B076";
paths = (
{
closed = 1;
nodes = (
"51 0 LINE",
"51 166 LINE",
"134 207 LINE",
"134 750 LINE",
"20 750 LINE",
"20 0 LINE"
);
},
{
closed = 1;
nodes = (
"51 728 LINE",
"103 728 LINE",
"103 220 LINE",
"51 196 LINE"
);
}
);
userData = {
com.schriftgestaltung.Glyphs.lastChange = "2019-04-28 05:35:59 +0000";
com.typemytype.robofont.pointLabels = {
1WCnzth1GX = (
rightside,
rightside,
shiftstem,
shiftdown,
rightside,
shiftstem
);
2c4LCF1E1R = (
rightside,
rightside,
shiftstem,
shiftdown,
rightside,
shiftstem
);
6xW04auDFu = (
rightside,
rightside,
shiftstem
);
EG08jqU5fb = (
leftside
);
IZIZQr2gYJ = (
rightside,
rightside,
shiftstem,
shiftdown,
rightside,
shiftstem
);
PIBVN1PGv1 = (
rightside,
rightside,
shiftstem,
shiftdown,
rightside,
shiftstem
);
Tt6D8zYZmU = (
rightside,
rightside,
shiftstem
);
eETO5GBD5v = (
leftside
);
};
};
width = 147;
},
{
layerId = "9EF6E879-D021-4626-8F52-6D74284C4DC7";
paths = (
{
closed = 1;
nodes = (
"88 0 LINE",
"88 175 LINE",
"1150 270 LINE",
"1150 750 LINE",
"46 750 LINE",
"46 0 LINE"
);
},
{
closed = 1;
nodes = (
"88 718 LINE",
"1108 718 LINE",
"1108 297 LINE",
"88 209 LINE"
);
}
);
width = 1170;
},
{
layerId = "FEE31BD6-05B9-4F93-BD72-F1214701600E";
paths = (
{
closed = 1;
nodes = (
"563 0 LINE",
"563 141 LINE",
"1836 235 LINE",
"1836 750 LINE",
"123 750 LINE",
"123 0 LINE"
);
},
{
closed = 1;
nodes = (
"563 594 LINE",
"1396 594 LINE",
"1396 336 LINE",
"563 292 LINE"
);
}
);
width = 1890;
}
);
unicode = 0050;
},
{
glyphname = Q;
lastChange = "2019-09-08 22:56:04 +0000";
layers = (
{
layerId = "41E2CF60-9A62-485C-A680-66BBCCBE3685";
paths = (
{
closed = 1;
nodes = (
"1829 0 LINE",
"1829 750 LINE",
"281 750 LINE",
"59 406 LINE",
"59 0 LINE"
);
},
{
closed = 1;
nodes = (
"1288 -213 LINE",
"1179 60 LINE",
"773 60 LINE",
"880 -213 LINE"
);
},
{
closed = 1;
nodes = (
"499 353 LINE",
"639 594 LINE",
"1390 594 LINE",
"1390 156 LINE",
"499 156 LINE"
);
}
);
width = 1893;
},
{
layerId = "C9BA7AB2-4C39-4898-B0E1-23BE521DA8C1";
paths = (
{
closed = 1;
nodes = (
"1187 0 LINE",
"1187 750 LINE",
"169 750 LINE",
"46 591 LINE",
"46 0 LINE"
);
},
{
closed = 1;
nodes = (
"730 -180 LINE",
"636 10 LINE",
"599 10 LINE",
"690 -180 LINE"
);
},
{
closed = 1;
nodes = (
"88 582 LINE",
"196 718 LINE",
"1146 718 LINE",
"1146 32 LINE",
"88 32 LINE"
);
}
);
width = 1233;
},
{
layerId = "1577B97C-DCC5-4AA4-842F-E9BB22E99E3C";
paths = (
{
closed = 1;
nodes = (
"142 0 LINE",
"142 750 LINE",
"51 750 LINE",
"20 688 LINE",
"20 0 LINE"
);
},
{
closed = 1;
nodes = (
"131 -111 LINE",
"96 10 LINE",
"68 10 LINE",
"100 -111 LINE"
);
},
{
closed = 1;
nodes = (
"51 684 LINE",
"73 728 LINE",
"111 728 LINE",
"111 22 LINE",
"51 22 LINE"
);
}
);
userData = {
com.schriftgestaltung.Glyphs.lastChange = "2019-04-28 05:35:59 +0000";
com.typemytype.robofont.pointLabels = {
2q9VlGka1x = (
rightside,
rightside,
shiftstem,
shiftdown,
shiftdown
);
8lRHbc76vf = (
shiftdown
);
QaOuzaR5Nc = (
shiftdown
);
U6WibAQAUl = (
leftside
);
a4Ql951bxG = (
leftside
);
b9GvAVdrlf = (
shiftdown
);
bEeLKF9K0J = (
rightside,
rightside,
shiftstem,
shiftdown,
shiftdown
);
c9brEFyXXA = (
rightside,
rightside,
shiftstem,
shiftdown,
shiftdown
);
dfgNHTgBfR = (
rightside,
rightside,
shiftstem,
shiftdown,
shiftdown
);
gOQWswYvKT = (
leftside
);
ivebcmARlA = (
leftside
);
kbL68Qh2zr = (
leftside
);
};
};
width = 162;
},
{
layerId = "628C7BDB-7DBE-4EE3-879C-693AF95326D4";
paths = (
{
closed = 1;
nodes = (
"798 0 LINE",
"798 750 LINE",
"91 750 LINE",
"28 545 LINE",
"28 0 LINE"
);
},
{
closed = 1;
nodes = (
"548 -138 LINE",
"504 10 LINE",
"320 10 LINE",
"362 -138 LINE"
);
},
{
closed = 1;
nodes = (
"367 467 LINE",
"403 653 LINE",
"459 653 LINE",
"459 117 LINE",
"367 117 LINE"
);
}
);
width = 829;
},
{
layerId = "B41498C8-9825-4C4A-856B-8BEA93F27BCF";
paths = (
{
closed = 1;
nodes = (
"798 0 LINE",
"798 750 LINE",
"91 750 LINE",
"28 545 LINE",
"28 0 LINE"
);
},
{
closed = 1;
nodes = (
"548 -138 LINE",
"504 10 LINE",
"320 10 LINE",
"362 -138 LINE"
);
},
{
closed = 1;
nodes = (
"367 467 LINE",
"403 653 LINE",
"459 653 LINE",
"459 117 LINE",
"367 117 LINE"
);
}
);
width = 829;
},
{
layerId = "7F3C6EE5-2603-4259-9F13-C30BB9E194E1";
paths = (
{
closed = 1;
nodes = (
"142 0 LINE",
"142 750 LINE",
"51 750 LINE",
"20 688 LINE",
"20 0 LINE"
);
},
{
closed = 1;
nodes = (
"131 -111 LINE",
"96 10 LINE",
"68 10 LINE",
"100 -111 LINE"
);
},
{
closed = 1;
nodes = (
"51 684 LINE",
"73 728 LINE",
"111 728 LINE",
"111 22 LINE",
"51 22 LINE"
);
}
);
userData = {
com.schriftgestaltung.Glyphs.lastChange = "2019-04-28 05:35:59 +0000";
com.typemytype.robofont.pointLabels = {
2q9VlGka1x = (
rightside,
rightside,
shiftstem,
shiftdown,
shiftdown
);
8lRHbc76vf = (
shiftdown
);
QaOuzaR5Nc = (
shiftdown
);
U6WibAQAUl = (
leftside
);
a4Ql951bxG = (
leftside
);
b9GvAVdrlf = (
shiftdown
);
bEeLKF9K0J = (
rightside,
rightside,
shiftstem,
shiftdown,
shiftdown
);
c9brEFyXXA = (
rightside,
rightside,
shiftstem,
shiftdown,
shiftdown
);
dfgNHTgBfR = (
rightside,
rightside,
shiftstem,
shiftdown,
shiftdown
);
gOQWswYvKT = (
leftside
);
ivebcmARlA = (
leftside
);
kbL68Qh2zr = (
leftside
);
};
};
width = 162;
},
{
layerId = "7A9BD435-3083-4FB3-9FE1-50106B21C13B";
paths = (
{
closed = 1;
nodes = (
"1187 0 LINE",
"1187 750 LINE",
"169 750 LINE",
"46 591 LINE",
"46 0 LINE"
);
},
{
closed = 1;
nodes = (
"730 -180 LINE",
"636 10 LINE",
"599 10 LINE",
"690 -180 LINE"
);
},
{
closed = 1;
nodes = (
"88 582 LINE",
"196 718 LINE",
"1146 718 LINE",
"1146 32 LINE",
"88 32 LINE"
);
}
);
width = 1233;
},
{
layerId = "401C54E9-F42A-49C7-842E-99B3D4FBDAC0";
paths = (
{
closed = 1;
nodes = (
"1829 0 LINE",
"1829 750 LINE",
"281 750 LINE",
"59 406 LINE",
"59 0 LINE"
);
},
{
closed = 1;
nodes = (
"1288 -213 LINE",
"1179 60 LINE",
"773 60 LINE",
"880 -213 LINE"
);
},
{
closed = 1;
nodes = (
"499 353 LINE",
"639 594 LINE",
"1390 594 LINE",
"1390 156 LINE",
"499 156 LINE"
);
}
);
width = 1893;
},
{
layerId = "5B01A85C-72B1-477B-9F3C-4C3A665051AF";
paths = (
{
closed = 1;
nodes = (
"798 0 LINE",
"798 750 LINE",
"91 750 LINE",
"28 545 LINE",
"28 0 LINE"
);
},
{
closed = 1;
nodes = (
"548 -138 LINE",
"504 10 LINE",
"320 10 LINE",
"362 -138 LINE"
);
},
{
closed = 1;
nodes = (
"367 467 LINE",
"403 653 LINE",
"459 653 LINE",
"459 117 LINE",
"367 117 LINE"
);
}
);
width = 829;
},
{
layerId = "6A003782-5630-46D5-9AEF-173A49B0B076";
paths = (
{
closed = 1;
nodes = (
"142 0 LINE",
"142 750 LINE",
"51 750 LINE",
"20 688 LINE",
"20 0 LINE"
);
},
{
closed = 1;
nodes = (
"131 -111 LINE",
"96 10 LINE",
"68 10 LINE",
"100 -111 LINE"
);
},
{
closed = 1;
nodes = (
"51 684 LINE",
"73 728 LINE",
"111 728 LINE",
"111 22 LINE",
"51 22 LINE"
);
}
);
userData = {
com.schriftgestaltung.Glyphs.lastChange = "2019-04-28 05:35:59 +0000";
com.typemytype.robofont.pointLabels = {
2q9VlGka1x = (
rightside,
rightside,
shiftstem,
shiftdown,
shiftdown
);
8lRHbc76vf = (
shiftdown
);
QaOuzaR5Nc = (
shiftdown
);
U6WibAQAUl = (
leftside
);
a4Ql951bxG = (
leftside
);
b9GvAVdrlf = (
shiftdown
);
bEeLKF9K0J = (
rightside,
rightside,
shiftstem,
shiftdown,
shiftdown
);
c9brEFyXXA = (
rightside,
rightside,
shiftstem,
shiftdown,
shiftdown
);
dfgNHTgBfR = (
rightside,
rightside,
shiftstem,
shiftdown,
shiftdown
);
gOQWswYvKT = (
leftside
);
ivebcmARlA = (
leftside
);
kbL68Qh2zr = (
leftside
);
};
};
width = 162;
},
{
layerId = "9EF6E879-D021-4626-8F52-6D74284C4DC7";
paths = (
{
closed = 1;
nodes = (
"1187 0 LINE",
"1187 750 LINE",
"169 750 LINE",
"46 591 LINE",
"46 0 LINE"
);
},
{
closed = 1;
nodes = (
"730 -180 LINE",
"636 10 LINE",
"599 10 LINE",
"690 -180 LINE"
);
},
{
closed = 1;
nodes = (
"88 582 LINE",
"196 718 LINE",
"1146 718 LINE",
"1146 32 LINE",
"88 32 LINE"
);
}
);
width = 1233;
},
{
layerId = "FEE31BD6-05B9-4F93-BD72-F1214701600E";
paths = (
{
closed = 1;
nodes = (
"1829 0 LINE",
"1829 750 LINE",
"281 750 LINE",
"59 406 LINE",
"59 0 LINE"
);
},
{
closed = 1;
nodes = (
"1288 -213 LINE",
"1179 60 LINE",
"773 60 LINE",
"880 -213 LINE"
);
},
{
closed = 1;
nodes = (
"499 353 LINE",
"639 594 LINE",
"1390 594 LINE",
"1390 156 LINE",
"499 156 LINE"
);
}
);
width = 1893;
}
);
unicode = 0051;
},
{
glyphname = R;
lastChange = "2019-09-09 01:12:16 +0000";
layers = (
{
layerId = "41E2CF60-9A62-485C-A680-66BBCCBE3685";
paths = (
{
closed = 1;
nodes = (
"504 0 LINE",
"504 278 LINE",
"1160 280 LINE",
"1391 232 LINE",
"1391 0 LINE",
"1830 0 LINE",
"1830 290 LINE",
"1552 348 LINE",
"1552 362 LINE",
"1805 433 LINE",
"1805 750 LINE",
"64 750 LINE",
"64 0 LINE"
);
},
{
closed = 1;
nodes = (
"504 594 LINE",
"1366 594 LINE",
"1366 451 LINE",
"1202 417 LINE",
"504 417 LINE"
);
}
);
width = 1861;
},
{
layerId = "C9BA7AB2-4C39-4898-B0E1-23BE521DA8C1";
paths = (
{
closed = 1;
nodes = (
"87 0 LINE",
"87 362 LINE",
"898 362 LINE",
"1142 264 LINE",
"1142 0 LINE",
"1183 0 LINE",
"1183 282 LINE",
"937 375 LINE",
"937 379 LINE",
"1154 461 LINE",
"1154 750 LINE",
"46 750 LINE",
"46 0 LINE"
);
},
{
closed = 1;
nodes = (
"87 718 LINE",
"1113 718 LINE",
"1113 474 LINE",
"892 392 LINE",
"87 392 LINE"
);
}
);
width = 1209;
},
{
layerId = "1577B97C-DCC5-4AA4-842F-E9BB22E99E3C";
paths = (
{
closed = 1;
nodes = (
"51 0 LINE",
"51 363 LINE",
"59 367 LINE",
"107 317 LINE",
"107 0 LINE",
"137 0 LINE",
"136 325 LINE",
"83 376 LINE",
"83 380 LINE",
"134 401 LINE",
"134 750 LINE",
"20 750 LINE",
"20 0 LINE"
);
},
{
closed = 1;
nodes = (
"51 728 LINE",
"103 728 LINE",
"103 413 LINE",
"54 390 LINE",
"51 390 LINE"
);
}
);
userData = {
com.schriftgestaltung.Glyphs.lastChange = "2019-04-28 05:35:59 +0000";
com.typemytype.robofont.pointLabels = {
2AKhSOaavW = (
crossbar
);
7iGA9EjrJP = (
crossbar
);
9fBpwr0c5A = (
leftside,
crossbar,
leftside,
crossbar,
crossbar,
shiftstem,
shiftdown,
crossbar,
crossbar,
shiftdown
);
CHVOARGKU2 = (
leftside,
crossbar,
leftside,
crossbar,
crossbar,
shiftstem,
shiftdown,
crossbar,
crossbar,
shiftdown
);
FKSRxBbMyE = (
crossbar
);
JkNiARIXMp = (
crossbar,
crossbar,
shiftdown
);
V9Ywxgiq2G = (
crossbar,
crossbar,
rightside
);
gNqIOGc9HF = (
crossbar,
crossbar,
rightside
);
itimCqoufa = (
leftside,
crossbar,
leftside,
crossbar,
crossbar,
shiftstem,
shiftdown,
crossbar,
crossbar,
shiftdown
);
j4s86nnkOj = (
crossbar,
crossbar,
shiftdown
);
jqqb8BKfoQ = (
leftside,
crossbar,
leftside,
crossbar,
crossbar,
shiftstem,
shiftdown,
crossbar,
crossbar,
shiftdown
);
nPfCo47fuL = (
crossbar,
crossbar,
rightside
);
pOaU6sS7pE = (
leftside,
crossbar,
leftside,
crossbar,
crossbar,
shiftstem,
shiftdown,
crossbar,
crossbar,
shiftdown
);
s4rDE72DYf = (
leftside,
crossbar,
leftside,
crossbar,
crossbar,
shiftstem,
shiftdown,
crossbar,
crossbar,
shiftdown
);
xAUivuY8OU = (
crossbar,
crossbar,
rightside
);
};
};
width = 154;
},
{
layerId = "628C7BDB-7DBE-4EE3-879C-693AF95326D4";
paths = (
{
closed = 1;
nodes = (
"370 0 LINE",
"370 328 LINE",
"406 328 LINE",
"458 304 LINE",
"458 0 LINE",
"796 0 LINE",
"795 324 LINE",
"652 371 LINE",
"652 383 LINE",
"792 404 LINE",
"792 750 LINE",
"31 750 LINE",
"31 0 LINE"
);
},
{
closed = 1;
nodes = (
"370 653 LINE",
"453 653 LINE",
"453 430 LINE",
"409 414 LINE",
"370 414 LINE"
);
}
);
width = 819;
},
{
layerId = "B41498C8-9825-4C4A-856B-8BEA93F27BCF";
paths = (
{
closed = 1;
nodes = (
"370 0 LINE",
"370 428 LINE",
"429 428 LINE",
"458 404 LINE",
"458 0 LINE",
"796 0 LINE",
"795 424 LINE",
"667 471 LINE",
"667 483 LINE",
"792 504 LINE",
"792 750 LINE",
"31 750 LINE",
"31 0 LINE"
);
},
{
closed = 1;
nodes = (
"370 653 LINE",
"453 653 LINE",
"453 527 LINE",
"419 514 LINE",
"370 514 LINE"
);
}
);
width = 819;
},
{
layerId = "7F3C6EE5-2603-4259-9F13-C30BB9E194E1";
paths = (
{
closed = 1;
nodes = (
"51 0 LINE",
"51 460 LINE",
"59 464 LINE",
"107 414 LINE",
"107 0 LINE",
"137 0 LINE",
"136 422 LINE",
"83 473 LINE",
"83 477 LINE",
"134 498 LINE",
"134 750 LINE",
"20 750 LINE",
"20 0 LINE"
);
},
{
closed = 1;
nodes = (
"51 728 LINE",
"103 728 LINE",
"103 510 LINE",
"54 487 LINE",
"51 487 LINE"
);
}
);
userData = {
com.schriftgestaltung.Glyphs.lastChange = "2019-04-28 05:35:59 +0000";
com.typemytype.robofont.pointLabels = {
2AKhSOaavW = (
crossbar
);
7iGA9EjrJP = (
crossbar
);
9fBpwr0c5A = (
leftside,
crossbar,
leftside,
crossbar,
crossbar,
shiftstem,
shiftdown,
crossbar,
crossbar,
shiftdown
);
CHVOARGKU2 = (
leftside,
crossbar,
leftside,
crossbar,
crossbar,
shiftstem,
shiftdown,
crossbar,
crossbar,
shiftdown
);
FKSRxBbMyE = (
crossbar
);
JkNiARIXMp = (
crossbar,
crossbar,
shiftdown
);
V9Ywxgiq2G = (
crossbar,
crossbar,
rightside
);
gNqIOGc9HF = (
crossbar,
crossbar,
rightside
);
itimCqoufa = (
leftside,
crossbar,
leftside,
crossbar,
crossbar,
shiftstem,
shiftdown,
crossbar,
crossbar,
shiftdown
);
j4s86nnkOj = (
crossbar,
crossbar,
shiftdown
);
jqqb8BKfoQ = (
leftside,
crossbar,
leftside,
crossbar,
crossbar,
shiftstem,
shiftdown,
crossbar,
crossbar,
shiftdown
);
nPfCo47fuL = (
crossbar,
crossbar,
rightside
);
pOaU6sS7pE = (
leftside,
crossbar,
leftside,
crossbar,
crossbar,
shiftstem,
shiftdown,
crossbar,
crossbar,
shiftdown
);
s4rDE72DYf = (
leftside,
crossbar,
leftside,
crossbar,
crossbar,
shiftstem,
shiftdown,
crossbar,
crossbar,
shiftdown
);
xAUivuY8OU = (
crossbar,
crossbar,
rightside
);
};
};
width = 154;
},
{
layerId = "7A9BD435-3083-4FB3-9FE1-50106B21C13B";
paths = (
{
closed = 1;
nodes = (
"87 0 LINE",
"87 464 LINE",
"898 464 LINE",
"1142 366 LINE",
"1142 0 LINE",
"1183 0 LINE",
"1183 384 LINE",
"937 477 LINE",
"937 481 LINE",
"1154 563 LINE",
"1154 750 LINE",
"46 750 LINE",
"46 0 LINE"
);
},
{
closed = 1;
nodes = (
"87 718 LINE",
"1113 718 LINE",
"1113 576 LINE",
"892 494 LINE",
"87 494 LINE"
);
}
);
width = 1209;
},
{
layerId = "401C54E9-F42A-49C7-842E-99B3D4FBDAC0";
paths = (
{
closed = 1;
nodes = (
"504 0 LINE",
"504 348 LINE",
"1160 350 LINE",
"1391 272 LINE",
"1391 0 LINE",
"1830 0 LINE",
"1830 334 LINE",
"1523 421 LINE",
"1523 435 LINE",
"1805 507 LINE",
"1805 750 LINE",
"64 750 LINE",
"64 0 LINE"
);
},
{
closed = 1;
nodes = (
"504 594 LINE",
"1366 594 LINE",
"1366 521 LINE",
"1321 487 LINE",
"504 487 LINE"
);
}
);
width = 1861;
},
{
layerId = "5B01A85C-72B1-477B-9F3C-4C3A665051AF";
paths = (
{
closed = 1;
nodes = (
"370 0 LINE",
"370 213 LINE",
"406 213 LINE",
"458 189 LINE",
"458 0 LINE",
"796 0 LINE",
"795 209 LINE",
"650 256 LINE",
"650 268 LINE",
"792 289 LINE",
"792 750 LINE",
"31 750 LINE",
"31 0 LINE"
);
},
{
closed = 1;
nodes = (
"370 653 LINE",
"453 653 LINE",
"453 315 LINE",
"409 299 LINE",
"370 299 LINE"
);
}
);
width = 819;
},
{
layerId = "6A003782-5630-46D5-9AEF-173A49B0B076";
paths = (
{
closed = 1;
nodes = (
"51 0 LINE",
"51 253 LINE",
"59 257 LINE",
"107 207 LINE",
"107 0 LINE",
"137 0 LINE",
"136 215 LINE",
"83 266 LINE",
"83 270 LINE",
"134 291 LINE",
"134 750 LINE",
"20 750 LINE",
"20 0 LINE"
);
},
{
closed = 1;
nodes = (
"51 728 LINE",
"103 728 LINE",
"103 303 LINE",
"54 280 LINE",
"51 280 LINE"
);
}
);
userData = {
com.schriftgestaltung.Glyphs.lastChange = "2019-04-28 05:35:59 +0000";
com.typemytype.robofont.pointLabels = {
2AKhSOaavW = (
crossbar
);
7iGA9EjrJP = (
crossbar
);
9fBpwr0c5A = (
leftside,
crossbar,
leftside,
crossbar,
crossbar,
shiftstem,
shiftdown,
crossbar,
crossbar,
shiftdown
);
CHVOARGKU2 = (
leftside,
crossbar,
leftside,
crossbar,
crossbar,
shiftstem,
shiftdown,
crossbar,
crossbar,
shiftdown
);
FKSRxBbMyE = (
crossbar
);
JkNiARIXMp = (
crossbar,
crossbar,
shiftdown
);
V9Ywxgiq2G = (
crossbar,
crossbar,
rightside
);
gNqIOGc9HF = (
crossbar,
crossbar,
rightside
);
itimCqoufa = (
leftside,
crossbar,
leftside,
crossbar,
crossbar,
shiftstem,
shiftdown,
crossbar,
crossbar,
shiftdown
);
j4s86nnkOj = (
crossbar,
crossbar,
shiftdown
);
jqqb8BKfoQ = (
leftside,
crossbar,
leftside,
crossbar,
crossbar,
shiftstem,
shiftdown,
crossbar,
crossbar,
shiftdown
);
nPfCo47fuL = (
crossbar,
crossbar,
rightside
);
pOaU6sS7pE = (
leftside,
crossbar,
leftside,
crossbar,
crossbar,
shiftstem,
shiftdown,
crossbar,
crossbar,
shiftdown
);
s4rDE72DYf = (
leftside,
crossbar,
leftside,
crossbar,
crossbar,
shiftstem,
shiftdown,
crossbar,
crossbar,
shiftdown
);
xAUivuY8OU = (
crossbar,
crossbar,
rightside
);
};
};
width = 154;
},
{
layerId = "9EF6E879-D021-4626-8F52-6D74284C4DC7";
paths = (
{
closed = 1;
nodes = (
"87 0 LINE",
"87 229 LINE",
"889 229 LINE",
"1142 131 LINE",
"1142 0 LINE",
"1183 0 LINE",
"1183 149 LINE",
"937 243 LINE",
"937 247 LINE",
"1165 328 LINE",
"1165 750 LINE",
"46 750 LINE",
"46 0 LINE"
);
},
{
closed = 1;
nodes = (
"87 718 LINE",
"1124 718 LINE",
"1124 341 LINE",
"883 259 LINE",
"87 259 LINE"
);
}
);
width = 1209;
},
{
layerId = "FEE31BD6-05B9-4F93-BD72-F1214701600E";
paths = (
{
closed = 1;
nodes = (
"504 0 LINE",
"504 169 LINE",
"1260 171 LINE",
"1391 171 LINE",
"1391 0 LINE",
"1830 0 LINE",
"1830 197 LINE",
"1533 248 LINE",
"1533 254 LINE",
"1805 336 LINE",
"1805 750 LINE",
"64 750 LINE",
"64 0 LINE"
);
},
{
closed = 1;
nodes = (
"504 594 LINE",
"1366 594 LINE",
"1366 344 LINE",
"1298 310 LINE",
"504 310 LINE"
);
}
);
width = 1861;
}
);
unicode = 0052;
},
{
glyphname = S;
lastChange = "2019-09-09 01:12:39 +0000";
layers = (
{
layerId = "41E2CF60-9A62-485C-A680-66BBCCBE3685";
paths = (
{
closed = 1;
nodes = (
"1552 0 LINE",
"1552 431 LINE",
"481 431 LINE",
"481 431 LINE",
"637 608 LINE",
"1095 608 LINE",
"1095 608 LINE",
"1535 608 LINE",
"1535 750 LINE",
"265 750 LINE",
"41 472 LINE",
"41 285 LINE",
"1112 285 LINE",
"1112 153 LINE",
"483 153 LINE",
"483 153 LINE",
"43 153 LINE",
"43 0 LINE"
);
}
);
width = 1592;
},
{
layerId = "C9BA7AB2-4C39-4898-B0E1-23BE521DA8C1";
paths = (
{
closed = 1;
nodes = (
"1160 0 LINE",
"1160 388 LINE",
"87 388 LINE",
"87 589 LINE",
"189 720 LINE",
"1107 720 LINE",
"1107 538 LINE",
"1149 538 LINE",
"1149 750 LINE",
"165 750 LINE",
"46 598 LINE",
"46 358 LINE",
"1118 358 LINE",
"1118 31 LINE",
"89 31 LINE",
"89 174 LINE",
"48 174 LINE",
"48 0 LINE"
);
}
);
width = 1203;
},
{
layerId = "1577B97C-DCC5-4AA4-842F-E9BB22E99E3C";
paths = (
{
closed = 1;
nodes = (
"129 0 LINE",
"129 386 LINE",
"48 386 LINE",
"48 685 LINE",
"69 728 LINE",
"98 728 LINE",
"98 557 LINE",
"129 557 LINE",
"129 750 LINE",
"47 750 LINE",
"17 686 LINE",
"17 364 LINE",
"98 364 LINE",
"98 22 LINE",
"50 22 LINE",
"50 157 LINE",
"19 157 LINE",
"19 0 LINE"
);
}
);
userData = {
com.schriftgestaltung.Glyphs.lastChange = "2019-04-28 05:35:59 +0000";
com.typemytype.robofont.pointLabels = {
09VlJ0BjUX = (
leftside,
leftside,
leftside,
leftside,
leftside,
shiftstem
);
3ZUkG35meB = (
leftside,
leftside,
leftside,
leftside,
shiftdown,
leftside,
shiftstem,
leftside,
leftside,
leftside,
leftside,
leftside,
shiftstem,
leftside,
leftside,
leftside,
leftside,
leftside,
shiftstem,
leftside,
leftside,
leftside,
leftside,
leftside,
shiftstem
);
3sQ8t8BZ6b = (
leftside,
leftside,
leftside,
leftside,
shiftdown,
leftside,
shiftstem,
leftside,
leftside,
leftside,
leftside,
leftside,
shiftstem,
leftside,
leftside,
leftside,
leftside,
leftside,
shiftstem,
leftside,
leftside,
leftside,
leftside,
leftside,
shiftstem
);
9KDcrfQ5Ui = (
rightside
);
9kdl9SYsn8 = (
leftside,
leftside,
leftside,
leftside,
shiftdown,
leftside,
shiftstem,
leftside,
leftside,
leftside,
leftside,
leftside,
shiftstem,
leftside,
leftside,
leftside,
leftside,
leftside,
shiftstem,
leftside,
leftside,
leftside,
leftside,
leftside,
shiftstem
);
At364YZFEy = (
leftside,
leftside,
leftside,
leftside,
leftside,
shiftstem
);
BcuLfvaQKC = (
leftside,
leftside,
leftside,
leftside,
shiftdown,
leftside,
shiftstem,
leftside,
leftside,
leftside,
leftside,
leftside,
shiftstem,
leftside,
leftside,
leftside,
leftside,
leftside,
shiftstem,
leftside,
leftside,
leftside,
leftside,
leftside,
shiftstem
);
EagWihqFM8 = (
rightside
);
F4sQEYelA8 = (
leftside,
leftside,
leftside,
leftside,
leftside,
shiftstem
);
KfNuQA7eZe = (
rightside
);
SaF9ojRFrW = (
rightside
);
WkcxKHKSWy = (
leftside,
leftside,
leftside,
leftside,
shiftdown,
leftside,
shiftstem,
leftside,
leftside,
leftside,
leftside,
leftside,
shiftstem,
leftside,
leftside,
leftside,
leftside,
leftside,
shiftstem,
leftside,
leftside,
leftside,
leftside,
leftside,
shiftstem
);
ho4DrS0rdW = (
leftside,
leftside,
leftside,
leftside,
leftside,
shiftstem
);
jYb9001DTm = (
leftside,
leftside,
leftside,
leftside,
leftside,
shiftstem
);
yQOPz5AOt8 = (
leftside,
leftside,
leftside,
leftside,
leftside,
shiftstem
);
yZDWuX8LLe = (
leftside,
leftside,
leftside,
leftside,
shiftdown,
leftside,
shiftstem,
leftside,
leftside,
leftside,
leftside,
leftside,
shiftstem,
leftside,
leftside,
leftside,
leftside,
leftside,
shiftstem,
leftside,
leftside,
leftside,
leftside,
leftside,
shiftstem
);
yiV6OCBLHg = (
leftside,
leftside,
leftside,
leftside,
shiftdown,
leftside,
shiftstem,
leftside,
leftside,
leftside,
leftside,
leftside,
shiftstem,
leftside,
leftside,
leftside,
leftside,
leftside,
shiftstem,
leftside,
leftside,
leftside,
leftside,
leftside,
shiftstem
);
};
};
width = 146;
},
{
layerId = "628C7BDB-7DBE-4EE3-879C-693AF95326D4";
paths = (
{
closed = 1;
nodes = (
"769 0 LINE",
"769 421 LINE",
"360 421 LINE",
"360 487 LINE",
"386 654 LINE",
"434 654 LINE",
"434 518 LINE",
"763 518 LINE",
"763 750 LINE",
"106 750 LINE",
"21 533 LINE",
"21 299 LINE",
"430 299 LINE",
"430 97 LINE",
"362 97 LINE",
"362 199 LINE",
"23 199 LINE",
"23 0 LINE"
);
}
);
width = 790;
},
{
layerId = "B41498C8-9825-4C4A-856B-8BEA93F27BCF";
paths = (
{
closed = 1;
nodes = (
"769 0 LINE",
"769 469 LINE",
"360 469 LINE",
"360 505 LINE",
"386 654 LINE",
"434 654 LINE",
"434 518 LINE",
"763 518 LINE",
"763 750 LINE",
"106 750 LINE",
"21 551 LINE",
"21 347 LINE",
"430 347 LINE",
"430 97 LINE",
"362 97 LINE",
"362 199 LINE",
"23 199 LINE",
"23 0 LINE"
);
}
);
width = 790;
},
{
layerId = "7F3C6EE5-2603-4259-9F13-C30BB9E194E1";
paths = (
{
closed = 1;
nodes = (
"129 0 LINE",
"129 482 LINE",
"48 482 LINE",
"48 685 LINE",
"69 728 LINE",
"98 728 LINE",
"98 557 LINE",
"129 557 LINE",
"129 750 LINE",
"47 750 LINE",
"17 686 LINE",
"17 460 LINE",
"98 460 LINE",
"98 22 LINE",
"50 22 LINE",
"50 157 LINE",
"19 157 LINE",
"19 0 LINE"
);
}
);
userData = {
com.schriftgestaltung.Glyphs.lastChange = "2019-04-28 05:35:59 +0000";
com.typemytype.robofont.pointLabels = {
09VlJ0BjUX = (
leftside,
leftside,
leftside,
leftside,
leftside,
shiftstem
);
3ZUkG35meB = (
leftside,
leftside,
leftside,
leftside,
shiftdown,
leftside,
shiftstem,
leftside,
leftside,
leftside,
leftside,
leftside,
shiftstem,
leftside,
leftside,
leftside,
leftside,
leftside,
shiftstem,
leftside,
leftside,
leftside,
leftside,
leftside,
shiftstem
);
3sQ8t8BZ6b = (
leftside,
leftside,
leftside,
leftside,
shiftdown,
leftside,
shiftstem,
leftside,
leftside,
leftside,
leftside,
leftside,
shiftstem,
leftside,
leftside,
leftside,
leftside,
leftside,
shiftstem,
leftside,
leftside,
leftside,
leftside,
leftside,
shiftstem
);
9KDcrfQ5Ui = (
rightside
);
9kdl9SYsn8 = (
leftside,
leftside,
leftside,
leftside,
shiftdown,
leftside,
shiftstem,
leftside,
leftside,
leftside,
leftside,
leftside,
shiftstem,
leftside,
leftside,
leftside,
leftside,
leftside,
shiftstem,
leftside,
leftside,
leftside,
leftside,
leftside,
shiftstem
);
At364YZFEy = (
leftside,
leftside,
leftside,
leftside,
leftside,
shiftstem
);
BcuLfvaQKC = (
leftside,
leftside,
leftside,
leftside,
shiftdown,
leftside,
shiftstem,
leftside,
leftside,
leftside,
leftside,
leftside,
shiftstem,
leftside,
leftside,
leftside,
leftside,
leftside,
shiftstem,
leftside,
leftside,
leftside,
leftside,
leftside,
shiftstem
);
EagWihqFM8 = (
rightside
);
F4sQEYelA8 = (
leftside,
leftside,
leftside,
leftside,
leftside,
shiftstem
);
KfNuQA7eZe = (
rightside
);
SaF9ojRFrW = (
rightside
);
WkcxKHKSWy = (
leftside,
leftside,
leftside,
leftside,
shiftdown,
leftside,
shiftstem,
leftside,
leftside,
leftside,
leftside,
leftside,
shiftstem,
leftside,
leftside,
leftside,
leftside,
leftside,
shiftstem,
leftside,
leftside,
leftside,
leftside,
leftside,
shiftstem
);
ho4DrS0rdW = (
leftside,
leftside,
leftside,
leftside,
leftside,
shiftstem
);
jYb9001DTm = (
leftside,
leftside,
leftside,
leftside,
leftside,
shiftstem
);
yQOPz5AOt8 = (
leftside,
leftside,
leftside,
leftside,
leftside,
shiftstem
);
yZDWuX8LLe = (
leftside,
leftside,
leftside,
leftside,
shiftdown,
leftside,
shiftstem,
leftside,
leftside,
leftside,
leftside,
leftside,
shiftstem,
leftside,
leftside,
leftside,
leftside,
leftside,
shiftstem,
leftside,
leftside,
leftside,
leftside,
leftside,
shiftstem
);
yiV6OCBLHg = (
leftside,
leftside,
leftside,
leftside,
shiftdown,
leftside,
shiftstem,
leftside,
leftside,
leftside,
leftside,
leftside,
shiftstem,
leftside,
leftside,
leftside,
leftside,
leftside,
shiftstem,
leftside,
leftside,
leftside,
leftside,
leftside,
shiftstem
);
};
};
width = 146;
},
{
layerId = "7A9BD435-3083-4FB3-9FE1-50106B21C13B";
paths = (
{
closed = 1;
nodes = (
"1160 0 LINE",
"1160 488 LINE",
"87 488 LINE",
"87 589 LINE",
"189 720 LINE",
"1107 720 LINE",
"1107 538 LINE",
"1149 538 LINE",
"1149 750 LINE",
"165 750 LINE",
"46 598 LINE",
"46 458 LINE",
"1118 458 LINE",
"1118 31 LINE",
"89 31 LINE",
"89 174 LINE",
"48 174 LINE",
"48 0 LINE"
);
}
);
width = 1203;
},
{
layerId = "401C54E9-F42A-49C7-842E-99B3D4FBDAC0";
paths = (
{
closed = 1;
nodes = (
"1552 0 LINE",
"1552 480 LINE",
"481 480 LINE",
"481 501 LINE",
"588 608 LINE",
"1095 608 LINE",
"1095 608 LINE",
"1535 608 LINE",
"1535 750 LINE",
"265 750 LINE",
"41 542 LINE",
"41 334 LINE",
"1112 334 LINE",
"1112 153 LINE",
"483 153 LINE",
"483 153 LINE",
"43 153 LINE",
"43 0 LINE"
);
}
);
width = 1592;
},
{
layerId = "5B01A85C-72B1-477B-9F3C-4C3A665051AF";
paths = (
{
closed = 1;
nodes = (
"769 0 LINE",
"769 361 LINE",
"360 361 LINE",
"360 510 LINE",
"390 654 LINE",
"434 654 LINE",
"434 518 LINE",
"763 518 LINE",
"763 750 LINE",
"106 750 LINE",
"21 483 LINE",
"21 239 LINE",
"430 239 LINE",
"430 97 LINE",
"362 97 LINE",
"362 199 LINE",
"23 199 LINE",
"23 0 LINE"
);
}
);
width = 790;
},
{
layerId = "6A003782-5630-46D5-9AEF-173A49B0B076";
paths = (
{
closed = 1;
nodes = (
"129 0 LINE",
"129 270 LINE",
"48 270 LINE",
"48 685 LINE",
"69 728 LINE",
"98 728 LINE",
"98 557 LINE",
"129 557 LINE",
"129 750 LINE",
"47 750 LINE",
"17 686 LINE",
"17 248 LINE",
"98 248 LINE",
"98 22 LINE",
"50 22 LINE",
"50 157 LINE",
"19 157 LINE",
"19 0 LINE"
);
}
);
userData = {
com.schriftgestaltung.Glyphs.lastChange = "2019-04-28 05:35:59 +0000";
com.typemytype.robofont.pointLabels = {
09VlJ0BjUX = (
leftside,
leftside,
leftside,
leftside,
leftside,
shiftstem
);
3ZUkG35meB = (
leftside,
leftside,
leftside,
leftside,
shiftdown,
leftside,
shiftstem,
leftside,
leftside,
leftside,
leftside,
leftside,
shiftstem,
leftside,
leftside,
leftside,
leftside,
leftside,
shiftstem,
leftside,
leftside,
leftside,
leftside,
leftside,
shiftstem
);
3sQ8t8BZ6b = (
leftside,
leftside,
leftside,
leftside,
shiftdown,
leftside,
shiftstem,
leftside,
leftside,
leftside,
leftside,
leftside,
shiftstem,
leftside,
leftside,
leftside,
leftside,
leftside,
shiftstem,
leftside,
leftside,
leftside,
leftside,
leftside,
shiftstem
);
9KDcrfQ5Ui = (
rightside
);
9kdl9SYsn8 = (
leftside,
leftside,
leftside,
leftside,
shiftdown,
leftside,
shiftstem,
leftside,
leftside,
leftside,
leftside,
leftside,
shiftstem,
leftside,
leftside,
leftside,
leftside,
leftside,
shiftstem,
leftside,
leftside,
leftside,
leftside,
leftside,
shiftstem
);
At364YZFEy = (
leftside,
leftside,
leftside,
leftside,
leftside,
shiftstem
);
BcuLfvaQKC = (
leftside,
leftside,
leftside,
leftside,
shiftdown,
leftside,
shiftstem,
leftside,
leftside,
leftside,
leftside,
leftside,
shiftstem,
leftside,
leftside,
leftside,
leftside,
leftside,
shiftstem,
leftside,
leftside,
leftside,
leftside,
leftside,
shiftstem
);
EagWihqFM8 = (
rightside
);
F4sQEYelA8 = (
leftside,
leftside,
leftside,
leftside,
leftside,
shiftstem
);
KfNuQA7eZe = (
rightside
);
SaF9ojRFrW = (
rightside
);
WkcxKHKSWy = (
leftside,
leftside,
leftside,
leftside,
shiftdown,
leftside,
shiftstem,
leftside,
leftside,
leftside,
leftside,
leftside,
shiftstem,
leftside,
leftside,
leftside,
leftside,
leftside,
shiftstem,
leftside,
leftside,
leftside,
leftside,
leftside,
shiftstem
);
ho4DrS0rdW = (
leftside,
leftside,
leftside,
leftside,
leftside,
shiftstem
);
jYb9001DTm = (
leftside,
leftside,
leftside,
leftside,
leftside,
shiftstem
);
yQOPz5AOt8 = (
leftside,
leftside,
leftside,
leftside,
leftside,
shiftstem
);
yZDWuX8LLe = (
leftside,
leftside,
leftside,
leftside,
shiftdown,
leftside,
shiftstem,
leftside,
leftside,
leftside,
leftside,
leftside,
shiftstem,
leftside,
leftside,
leftside,
leftside,
leftside,
shiftstem,
leftside,
leftside,
leftside,
leftside,
leftside,
shiftstem
);
yiV6OCBLHg = (
leftside,
leftside,
leftside,
leftside,
shiftdown,
leftside,
shiftstem,
leftside,
leftside,
leftside,
leftside,
leftside,
shiftstem,
leftside,
leftside,
leftside,
leftside,
leftside,
shiftstem,
leftside,
leftside,
leftside,
leftside,
leftside,
shiftstem
);
};
};
width = 146;
},
{
layerId = "9EF6E879-D021-4626-8F52-6D74284C4DC7";
paths = (
{
closed = 1;
nodes = (
"1160 0 LINE",
"1160 282 LINE",
"87 282 LINE",
"87 589 LINE",
"189 720 LINE",
"1107 720 LINE",
"1107 538 LINE",
"1149 538 LINE",
"1149 750 LINE",
"165 750 LINE",
"46 598 LINE",
"46 252 LINE",
"1118 252 LINE",
"1118 31 LINE",
"89 31 LINE",
"89 174 LINE",
"48 174 LINE",
"48 0 LINE"
);
}
);
width = 1203;
},
{
layerId = "FEE31BD6-05B9-4F93-BD72-F1214701600E";
paths = (
{
closed = 1;
nodes = (
"1552 0 LINE",
"1552 371 LINE",
"481 371 LINE",
"481 431 LINE",
"637 608 LINE",
"1095 608 LINE",
"1095 608 LINE",
"1535 608 LINE",
"1535 750 LINE",
"265 750 LINE",
"41 472 LINE",
"41 225 LINE",
"1112 225 LINE",
"1112 153 LINE",
"483 153 LINE",
"483 153 LINE",
"43 153 LINE",
"43 0 LINE"
);
}
);
width = 1592;
}
);
unicode = 0053;
},
{
glyphname = T;
lastChange = "2019-09-08 22:09:38 +0000";
layers = (
{
layerId = "41E2CF60-9A62-485C-A680-66BBCCBE3685";
paths = (
{
closed = 1;
nodes = (
"1179 0 LINE",
"1179 603 LINE",
"1467 603 LINE",
"1467 377 LINE",
"1849 377 LINE",
"1849 750 LINE",
"70 750 LINE",
"70 377 LINE",
"451 377 LINE",
"451 603 LINE",
"739 603 LINE",
"739 0 LINE"
);
}
);
width = 1919;
},
{
layerId = "C9BA7AB2-4C39-4898-B0E1-23BE521DA8C1";
paths = (
{
closed = 1;
nodes = (
"642 0 LINE",
"642 719 LINE",
"1177 719 LINE",
"1177 518 LINE",
"1216 518 LINE",
"1216 750 LINE",
"26 750 LINE",
"26 518 LINE",
"65 518 LINE",
"65 719 LINE",
"601 719 LINE",
"601 0 LINE"
);
}
);
width = 1242;
},
{
layerId = "1577B97C-DCC5-4AA4-842F-E9BB22E99E3C";
paths = (
{
closed = 1;
nodes = (
"99 0 LINE",
"99 728 LINE",
"139 728 LINE",
"139 642 LINE",
"168 642 LINE",
"168 750 LINE",
"-2 750 LINE",
"-2 642 LINE",
"27 642 LINE",
"27 728 LINE",
"68 728 LINE",
"68 0 LINE"
);
}
);
userData = {
com.schriftgestaltung.Glyphs.lastChange = "2019-04-28 05:35:59 +0000";
com.typemytype.robofont.pointLabels = {
1xm0mHc9eh = (
rightside,
leftside,
leftside,
rightside,
shiftdown
);
8oS81nStJX = (
rightside,
leftside,
leftside,
shiftstem,
rightside,
shiftdown,
rightside,
rightside,
leftside,
leftside,
rightside,
shiftdown,
rightside,
leftside,
leftside,
rightside,
shiftdown,
rightside,
leftside,
rightside,
leftside,
leftside,
rightside,
shiftdown,
rightside,
leftside,
leftside,
rightside,
shiftdown,
rightside,
leftside,
leftside,
rightside,
shiftdown,
leftside
);
ABe8abv3LE = (
rightside,
leftside,
leftside,
shiftstem,
rightside,
shiftdown,
rightside,
rightside,
leftside,
leftside,
rightside,
shiftdown,
rightside,
leftside,
leftside,
rightside,
shiftdown,
rightside,
leftside,
rightside,
leftside,
leftside,
rightside,
shiftdown,
rightside,
leftside,
leftside,
rightside,
shiftdown,
rightside,
leftside,
leftside,
rightside,
shiftdown,
leftside
);
DJQ7u43twI = (
rightside,
leftside,
leftside,
shiftstem,
rightside,
shiftdown,
rightside,
rightside,
leftside,
leftside,
rightside,
shiftdown,
rightside,
leftside,
leftside,
rightside,
shiftdown,
rightside,
leftside,
rightside,
leftside,
leftside,
rightside,
shiftdown,
rightside,
leftside,
leftside,
rightside,
shiftdown,
rightside,
leftside,
leftside,
rightside,
shiftdown,
leftside
);
J3fH9EFg0z = (
rightside,
leftside,
leftside,
shiftstem,
rightside,
shiftdown,
rightside,
rightside,
leftside,
leftside,
rightside,
shiftdown,
rightside,
leftside,
leftside,
rightside,
shiftdown,
rightside,
leftside,
rightside,
leftside,
leftside,
rightside,
shiftdown,
rightside,
leftside,
leftside,
rightside,
shiftdown,
rightside,
leftside,
leftside,
rightside,
shiftdown,
leftside
);
KjT4D91qvu = (
rightside,
leftside,
leftside,
shiftstem,
rightside,
shiftdown,
rightside,
rightside,
leftside,
leftside,
rightside,
shiftdown,
rightside,
leftside,
leftside,
rightside,
shiftdown,
rightside,
leftside,
rightside,
leftside,
leftside,
rightside,
shiftdown,
rightside,
leftside,
leftside,
rightside,
shiftdown,
rightside,
leftside,
leftside,
rightside,
shiftdown,
leftside
);
PAcKW7vhev = (
rightside,
leftside,
leftside,
shiftstem,
rightside,
shiftdown,
rightside,
rightside,
leftside,
leftside,
rightside,
shiftdown,
rightside,
leftside,
leftside,
rightside,
shiftdown,
rightside,
leftside,
rightside,
leftside,
leftside,
rightside,
shiftdown,
rightside,
leftside,
leftside,
rightside,
shiftdown,
rightside,
leftside,
leftside,
rightside,
shiftdown,
leftside
);
asx7RUXZ8K = (
rightside,
leftside,
leftside,
shiftstem,
rightside,
shiftdown,
rightside,
rightside,
leftside,
leftside,
rightside,
shiftdown,
rightside,
leftside,
leftside,
rightside,
shiftdown,
rightside,
leftside,
rightside,
leftside,
leftside,
rightside,
shiftdown,
rightside,
leftside,
leftside,
rightside,
shiftdown,
rightside,
leftside,
leftside,
rightside,
shiftdown,
leftside
);
jHGwg0m2Tu = (
rightside,
leftside,
leftside,
shiftstem,
rightside,
shiftdown,
rightside,
rightside,
leftside,
leftside,
rightside,
shiftdown,
rightside,
leftside,
leftside,
rightside,
shiftdown,
rightside,
leftside,
rightside,
leftside,
leftside,
rightside,
shiftdown,
rightside,
leftside,
leftside,
rightside,
shiftdown,
rightside,
leftside,
leftside,
rightside,
shiftdown,
leftside
);
je7pQw9mYt = (
rightside,
leftside,
leftside,
shiftstem,
rightside,
shiftdown,
rightside,
rightside,
leftside,
leftside,
rightside,
shiftdown,
rightside,
leftside,
leftside,
rightside,
shiftdown,
rightside,
leftside,
rightside,
leftside,
leftside,
rightside,
shiftdown,
rightside,
leftside,
leftside,
rightside,
shiftdown,
rightside,
leftside,
leftside,
rightside,
shiftdown,
leftside
);
l8jRaw0YkY = (
rightside,
leftside,
leftside,
shiftstem,
rightside,
shiftdown,
rightside,
rightside,
leftside,
leftside,
rightside,
shiftdown,
rightside,
leftside,
leftside,
rightside,
shiftdown,
rightside,
leftside,
rightside,
leftside,
leftside,
rightside,
shiftdown,
rightside,
leftside,
leftside,
rightside,
shiftdown,
rightside,
leftside,
leftside,
rightside,
shiftdown,
leftside
);
rf7pecy6mC = (
rightside,
leftside,
leftside,
shiftstem,
rightside,
shiftdown,
rightside,
rightside,
leftside,
leftside,
rightside,
shiftdown,
rightside,
leftside,
leftside,
rightside,
shiftdown,
rightside,
leftside,
rightside,
leftside,
leftside,
rightside,
shiftdown,
rightside,
leftside,
leftside,
rightside,
shiftdown,
rightside,
leftside,
leftside,
rightside,
shiftdown,
leftside
);
ysnLVYacKr = (
rightside,
leftside,
leftside,
shiftstem,
rightside,
shiftdown,
rightside,
rightside,
leftside,
leftside,
rightside,
shiftdown,
rightside,
leftside,
leftside,
rightside,
shiftdown,
rightside,
leftside,
rightside,
leftside,
leftside,
rightside,
shiftdown,
rightside,
leftside,
leftside,
rightside,
shiftdown,
rightside,
leftside,
leftside,
rightside,
shiftdown,
leftside
);
zTICSjBOe7 = (
rightside,
leftside,
leftside,
rightside,
shiftdown
);
};
};
width = 166;
},
{
layerId = "628C7BDB-7DBE-4EE3-879C-693AF95326D4";
paths = (
{
closed = 1;
nodes = (
"589 0 LINE",
"589 648 LINE",
"640 648 LINE",
"640 456 LINE",
"828 456 LINE",
"828 750 LINE",
"10 750 LINE",
"10 456 LINE",
"198 456 LINE",
"198 648 LINE",
"250 648 LINE",
"250 0 LINE"
);
}
);
width = 838;
},
{
layerId = "B41498C8-9825-4C4A-856B-8BEA93F27BCF";
paths = (
{
closed = 1;
nodes = (
"589 0 LINE",
"589 648 LINE",
"640 648 LINE",
"640 456 LINE",
"828 456 LINE",
"828 750 LINE",
"10 750 LINE",
"10 456 LINE",
"198 456 LINE",
"198 648 LINE",
"250 648 LINE",
"250 0 LINE"
);
}
);
width = 838;
},
{
layerId = "7F3C6EE5-2603-4259-9F13-C30BB9E194E1";
paths = (
{
closed = 1;
nodes = (
"99 0 LINE",
"99 728 LINE",
"139 728 LINE",
"139 642 LINE",
"168 642 LINE",
"168 750 LINE",
"-2 750 LINE",
"-2 642 LINE",
"27 642 LINE",
"27 728 LINE",
"68 728 LINE",
"68 0 LINE"
);
}
);
userData = {
com.schriftgestaltung.Glyphs.lastChange = "2019-04-28 05:35:59 +0000";
com.typemytype.robofont.pointLabels = {
1xm0mHc9eh = (
rightside,
leftside,
leftside,
rightside,
shiftdown
);
8oS81nStJX = (
rightside,
leftside,
leftside,
shiftstem,
rightside,
shiftdown,
rightside,
rightside,
leftside,
leftside,
rightside,
shiftdown,
rightside,
leftside,
leftside,
rightside,
shiftdown,
rightside,
leftside,
rightside,
leftside,
leftside,
rightside,
shiftdown,
rightside,
leftside,
leftside,
rightside,
shiftdown,
rightside,
leftside,
leftside,
rightside,
shiftdown,
leftside
);
ABe8abv3LE = (
rightside,
leftside,
leftside,
shiftstem,
rightside,
shiftdown,
rightside,
rightside,
leftside,
leftside,
rightside,
shiftdown,
rightside,
leftside,
leftside,
rightside,
shiftdown,
rightside,
leftside,
rightside,
leftside,
leftside,
rightside,
shiftdown,
rightside,
leftside,
leftside,
rightside,
shiftdown,
rightside,
leftside,
leftside,
rightside,
shiftdown,
leftside
);
DJQ7u43twI = (
rightside,
leftside,
leftside,
shiftstem,
rightside,
shiftdown,
rightside,
rightside,
leftside,
leftside,
rightside,
shiftdown,
rightside,
leftside,
leftside,
rightside,
shiftdown,
rightside,
leftside,
rightside,
leftside,
leftside,
rightside,
shiftdown,
rightside,
leftside,
leftside,
rightside,
shiftdown,
rightside,
leftside,
leftside,
rightside,
shiftdown,
leftside
);
J3fH9EFg0z = (
rightside,
leftside,
leftside,
shiftstem,
rightside,
shiftdown,
rightside,
rightside,
leftside,
leftside,
rightside,
shiftdown,
rightside,
leftside,
leftside,
rightside,
shiftdown,
rightside,
leftside,
rightside,
leftside,
leftside,
rightside,
shiftdown,
rightside,
leftside,
leftside,
rightside,
shiftdown,
rightside,
leftside,
leftside,
rightside,
shiftdown,
leftside
);
KjT4D91qvu = (
rightside,
leftside,
leftside,
shiftstem,
rightside,
shiftdown,
rightside,
rightside,
leftside,
leftside,
rightside,
shiftdown,
rightside,
leftside,
leftside,
rightside,
shiftdown,
rightside,
leftside,
rightside,
leftside,
leftside,
rightside,
shiftdown,
rightside,
leftside,
leftside,
rightside,
shiftdown,
rightside,
leftside,
leftside,
rightside,
shiftdown,
leftside
);
PAcKW7vhev = (
rightside,
leftside,
leftside,
shiftstem,
rightside,
shiftdown,
rightside,
rightside,
leftside,
leftside,
rightside,
shiftdown,
rightside,
leftside,
leftside,
rightside,
shiftdown,
rightside,
leftside,
rightside,
leftside,
leftside,
rightside,
shiftdown,
rightside,
leftside,
leftside,
rightside,
shiftdown,
rightside,
leftside,
leftside,
rightside,
shiftdown,
leftside
);
asx7RUXZ8K = (
rightside,
leftside,
leftside,
shiftstem,
rightside,
shiftdown,
rightside,
rightside,
leftside,
leftside,
rightside,
shiftdown,
rightside,
leftside,
leftside,
rightside,
shiftdown,
rightside,
leftside,
rightside,
leftside,
leftside,
rightside,
shiftdown,
rightside,
leftside,
leftside,
rightside,
shiftdown,
rightside,
leftside,
leftside,
rightside,
shiftdown,
leftside
);
jHGwg0m2Tu = (
rightside,
leftside,
leftside,
shiftstem,
rightside,
shiftdown,
rightside,
rightside,
leftside,
leftside,
rightside,
shiftdown,
rightside,
leftside,
leftside,
rightside,
shiftdown,
rightside,
leftside,
rightside,
leftside,
leftside,
rightside,
shiftdown,
rightside,
leftside,
leftside,
rightside,
shiftdown,
rightside,
leftside,
leftside,
rightside,
shiftdown,
leftside
);
je7pQw9mYt = (
rightside,
leftside,
leftside,
shiftstem,
rightside,
shiftdown,
rightside,
rightside,
leftside,
leftside,
rightside,
shiftdown,
rightside,
leftside,
leftside,
rightside,
shiftdown,
rightside,
leftside,
rightside,
leftside,
leftside,
rightside,
shiftdown,
rightside,
leftside,
leftside,
rightside,
shiftdown,
rightside,
leftside,
leftside,
rightside,
shiftdown,
leftside
);
l8jRaw0YkY = (
rightside,
leftside,
leftside,
shiftstem,
rightside,
shiftdown,
rightside,
rightside,
leftside,
leftside,
rightside,
shiftdown,
rightside,
leftside,
leftside,
rightside,
shiftdown,
rightside,
leftside,
rightside,
leftside,
leftside,
rightside,
shiftdown,
rightside,
leftside,
leftside,
rightside,
shiftdown,
rightside,
leftside,
leftside,
rightside,
shiftdown,
leftside
);
rf7pecy6mC = (
rightside,
leftside,
leftside,
shiftstem,
rightside,
shiftdown,
rightside,
rightside,
leftside,
leftside,
rightside,
shiftdown,
rightside,
leftside,
leftside,
rightside,
shiftdown,
rightside,
leftside,
rightside,
leftside,
leftside,
rightside,
shiftdown,
rightside,
leftside,
leftside,
rightside,
shiftdown,
rightside,
leftside,
leftside,
rightside,
shiftdown,
leftside
);
ysnLVYacKr = (
rightside,
leftside,
leftside,
shiftstem,
rightside,
shiftdown,
rightside,
rightside,
leftside,
leftside,
rightside,
shiftdown,
rightside,
leftside,
leftside,
rightside,
shiftdown,
rightside,
leftside,
rightside,
leftside,
leftside,
rightside,
shiftdown,
rightside,
leftside,
leftside,
rightside,
shiftdown,
rightside,
leftside,
leftside,
rightside,
shiftdown,
leftside
);
zTICSjBOe7 = (
rightside,
leftside,
leftside,
rightside,
shiftdown
);
};
};
width = 166;
},
{
layerId = "7A9BD435-3083-4FB3-9FE1-50106B21C13B";
paths = (
{
closed = 1;
nodes = (
"642 0 LINE",
"642 719 LINE",
"1177 719 LINE",
"1177 518 LINE",
"1216 518 LINE",
"1216 750 LINE",
"26 750 LINE",
"26 518 LINE",
"65 518 LINE",
"65 719 LINE",
"601 719 LINE",
"601 0 LINE"
);
}
);
width = 1242;
},
{
layerId = "401C54E9-F42A-49C7-842E-99B3D4FBDAC0";
paths = (
{
closed = 1;
nodes = (
"1179 0 LINE",
"1179 603 LINE",
"1467 603 LINE",
"1467 377 LINE",
"1849 377 LINE",
"1849 750 LINE",
"70 750 LINE",
"70 377 LINE",
"451 377 LINE",
"451 603 LINE",
"739 603 LINE",
"739 0 LINE"
);
}
);
width = 1919;
},
{
layerId = "5B01A85C-72B1-477B-9F3C-4C3A665051AF";
paths = (
{
closed = 1;
nodes = (
"589 0 LINE",
"589 648 LINE",
"640 648 LINE",
"640 456 LINE",
"828 456 LINE",
"828 750 LINE",
"10 750 LINE",
"10 456 LINE",
"198 456 LINE",
"198 648 LINE",
"250 648 LINE",
"250 0 LINE"
);
}
);
width = 838;
},
{
layerId = "6A003782-5630-46D5-9AEF-173A49B0B076";
paths = (
{
closed = 1;
nodes = (
"99 0 LINE",
"99 728 LINE",
"139 728 LINE",
"139 642 LINE",
"168 642 LINE",
"168 750 LINE",
"-2 750 LINE",
"-2 642 LINE",
"27 642 LINE",
"27 728 LINE",
"68 728 LINE",
"68 0 LINE"
);
}
);
userData = {
com.schriftgestaltung.Glyphs.lastChange = "2019-04-28 05:35:59 +0000";
com.typemytype.robofont.pointLabels = {
1xm0mHc9eh = (
rightside,
leftside,
leftside,
rightside,
shiftdown
);
8oS81nStJX = (
rightside,
leftside,
leftside,
shiftstem,
rightside,
shiftdown,
rightside,
rightside,
leftside,
leftside,
rightside,
shiftdown,
rightside,
leftside,
leftside,
rightside,
shiftdown,
rightside,
leftside,
rightside,
leftside,
leftside,
rightside,
shiftdown,
rightside,
leftside,
leftside,
rightside,
shiftdown,
rightside,
leftside,
leftside,
rightside,
shiftdown,
leftside
);
ABe8abv3LE = (
rightside,
leftside,
leftside,
shiftstem,
rightside,
shiftdown,
rightside,
rightside,
leftside,
leftside,
rightside,
shiftdown,
rightside,
leftside,
leftside,
rightside,
shiftdown,
rightside,
leftside,
rightside,
leftside,
leftside,
rightside,
shiftdown,
rightside,
leftside,
leftside,
rightside,
shiftdown,
rightside,
leftside,
leftside,
rightside,
shiftdown,
leftside
);
DJQ7u43twI = (
rightside,
leftside,
leftside,
shiftstem,
rightside,
shiftdown,
rightside,
rightside,
leftside,
leftside,
rightside,
shiftdown,
rightside,
leftside,
leftside,
rightside,
shiftdown,
rightside,
leftside,
rightside,
leftside,
leftside,
rightside,
shiftdown,
rightside,
leftside,
leftside,
rightside,
shiftdown,
rightside,
leftside,
leftside,
rightside,
shiftdown,
leftside
);
J3fH9EFg0z = (
rightside,
leftside,
leftside,
shiftstem,
rightside,
shiftdown,
rightside,
rightside,
leftside,
leftside,
rightside,
shiftdown,
rightside,
leftside,
leftside,
rightside,
shiftdown,
rightside,
leftside,
rightside,
leftside,
leftside,
rightside,
shiftdown,
rightside,
leftside,
leftside,
rightside,
shiftdown,
rightside,
leftside,
leftside,
rightside,
shiftdown,
leftside
);
KjT4D91qvu = (
rightside,
leftside,
leftside,
shiftstem,
rightside,
shiftdown,
rightside,
rightside,
leftside,
leftside,
rightside,
shiftdown,
rightside,
leftside,
leftside,
rightside,
shiftdown,
rightside,
leftside,
rightside,
leftside,
leftside,
rightside,
shiftdown,
rightside,
leftside,
leftside,
rightside,
shiftdown,
rightside,
leftside,
leftside,
rightside,
shiftdown,
leftside
);
PAcKW7vhev = (
rightside,
leftside,
leftside,
shiftstem,
rightside,
shiftdown,
rightside,
rightside,
leftside,
leftside,
rightside,
shiftdown,
rightside,
leftside,
leftside,
rightside,
shiftdown,
rightside,
leftside,
rightside,
leftside,
leftside,
rightside,
shiftdown,
rightside,
leftside,
leftside,
rightside,
shiftdown,
rightside,
leftside,
leftside,
rightside,
shiftdown,
leftside
);
asx7RUXZ8K = (
rightside,
leftside,
leftside,
shiftstem,
rightside,
shiftdown,
rightside,
rightside,
leftside,
leftside,
rightside,
shiftdown,
rightside,
leftside,
leftside,
rightside,
shiftdown,
rightside,
leftside,
rightside,
leftside,
leftside,
rightside,
shiftdown,
rightside,
leftside,
leftside,
rightside,
shiftdown,
rightside,
leftside,
leftside,
rightside,
shiftdown,
leftside
);
jHGwg0m2Tu = (
rightside,
leftside,
leftside,
shiftstem,
rightside,
shiftdown,
rightside,
rightside,
leftside,
leftside,
rightside,
shiftdown,
rightside,
leftside,
leftside,
rightside,
shiftdown,
rightside,
leftside,
rightside,
leftside,
leftside,
rightside,
shiftdown,
rightside,
leftside,
leftside,
rightside,
shiftdown,
rightside,
leftside,
leftside,
rightside,
shiftdown,
leftside
);
je7pQw9mYt = (
rightside,
leftside,
leftside,
shiftstem,
rightside,
shiftdown,
rightside,
rightside,
leftside,
leftside,
rightside,
shiftdown,
rightside,
leftside,
leftside,
rightside,
shiftdown,
rightside,
leftside,
rightside,
leftside,
leftside,
rightside,
shiftdown,
rightside,
leftside,
leftside,
rightside,
shiftdown,
rightside,
leftside,
leftside,
rightside,
shiftdown,
leftside
);
l8jRaw0YkY = (
rightside,
leftside,
leftside,
shiftstem,
rightside,
shiftdown,
rightside,
rightside,
leftside,
leftside,
rightside,
shiftdown,
rightside,
leftside,
leftside,
rightside,
shiftdown,
rightside,
leftside,
rightside,
leftside,
leftside,
rightside,
shiftdown,
rightside,
leftside,
leftside,
rightside,
shiftdown,
rightside,
leftside,
leftside,
rightside,
shiftdown,
leftside
);
rf7pecy6mC = (
rightside,
leftside,
leftside,
shiftstem,
rightside,
shiftdown,
rightside,
rightside,
leftside,
leftside,
rightside,
shiftdown,
rightside,
leftside,
leftside,
rightside,
shiftdown,
rightside,
leftside,
rightside,
leftside,
leftside,
rightside,
shiftdown,
rightside,
leftside,
leftside,
rightside,
shiftdown,
rightside,
leftside,
leftside,
rightside,
shiftdown,
leftside
);
ysnLVYacKr = (
rightside,
leftside,
leftside,
shiftstem,
rightside,
shiftdown,
rightside,
rightside,
leftside,
leftside,
rightside,
shiftdown,
rightside,
leftside,
leftside,
rightside,
shiftdown,
rightside,
leftside,
rightside,
leftside,
leftside,
rightside,
shiftdown,
rightside,
leftside,
leftside,
rightside,
shiftdown,
rightside,
leftside,
leftside,
rightside,
shiftdown,
leftside
);
zTICSjBOe7 = (
rightside,
leftside,
leftside,
rightside,
shiftdown
);
};
};
width = 166;
},
{
layerId = "9EF6E879-D021-4626-8F52-6D74284C4DC7";
paths = (
{
closed = 1;
nodes = (
"642 0 LINE",
"642 719 LINE",
"1177 719 LINE",
"1177 518 LINE",
"1216 518 LINE",
"1216 750 LINE",
"26 750 LINE",
"26 518 LINE",
"65 518 LINE",
"65 719 LINE",
"601 719 LINE",
"601 0 LINE"
);
}
);
width = 1242;
},
{
layerId = "FEE31BD6-05B9-4F93-BD72-F1214701600E";
paths = (
{
closed = 1;
nodes = (
"1179 0 LINE",
"1179 603 LINE",
"1467 603 LINE",
"1467 377 LINE",
"1849 377 LINE",
"1849 750 LINE",
"70 750 LINE",
"70 377 LINE",
"451 377 LINE",
"451 603 LINE",
"739 603 LINE",
"739 0 LINE"
);
}
);
width = 1919;
}
);
unicode = 0054;
},
